<?xml version="1.0" encoding="UTF-8" standalone="no"?><!DOCTYPE svg PUBLIC "-//W3C//DTD SVG 1.1//EN" "http://www.w3.org/Graphics/SVG/1.1/DTD/svg11.dtd"><svg width="100%" height="100%" viewBox="0 0 431 431" version="1.1" xmlns="http://www.w3.org/2000/svg" xmlns:xlink="http://www.w3.org/1999/xlink" xml:space="preserve" xmlns:serif="http://www.serif.com/" style="fill-rule:evenodd;clip-rule:evenodd;stroke-linejoin:round;stroke-miterlimit:2;"><path d="M123.153,406.04c-3.354,-18.466 -1.696,-37.675 5.263,-55.575c9.604,-24.75 27.504,-49.57 18.254,-77.15c3,1.909 6.108,3.463 9.321,4.875l-0,0.213c2.825,10.025 3.671,20.054 4.45,30.362c0.033,0.109 0.071,0.213 0.104,0.317c-1.342,0.5 -2.65,0.992 -3.921,1.558c-12.004,5.575 -18.217,15.992 -21.112,28.525c-3.496,14.971 -6.142,31.813 -6.992,47.138c-0.317,5.542 3.671,9.004 8.862,11.229c0.85,5.296 1.734,10.554 2.613,15.817c-5.721,-2.188 -11.333,-4.625 -16.842,-7.309" style="fill:#ffe96b;fill-rule:nonzero;"/><path d="M122.272,220.038c-6.533,-24.221 -14.158,-49.713 -9.958,-74.992c3.533,-21.466 17.338,-46.112 40.817,-49.433c0.316,1.696 0.671,3.392 1.096,5.083c-10.346,0.392 -16.738,10.771 -20.584,19.529c-6.358,14.58 -7.416,31.813 -9.746,47.559c-2.612,5.262 0.284,13.875 1.305,18.783c0.495,2.296 0.987,4.658 1.554,7.025c-0.109,11.863 3.741,23.163 6.708,34.529c3.638,14.021 6.954,28.213 7.663,42.725c0.633,12.254 -0.671,24.821 -5.017,36.404c-2.221,5.963 -5.296,11.617 -9.246,16.63c-2.862,3.637 -8.725,10.1 -14.337,11.191c14.725,-9.041 16.737,-30.962 18.5,-46.641c2.616,-23.371 -2.68,-45.971 -8.755,-68.392" style="fill:#ffe96b;fill-rule:nonzero;"/><path d="M171.56,117.893c-18.183,-23.904 12.075,-49.995 36.05,-37.358c18.113,9.571 20.867,33.229 33.259,47.988c10.379,12.32 26.412,22.804 43.079,21.57c3.283,-0.245 6.458,-1.025 9.392,-2.258c0.07,5.296 0.354,10.558 0.808,15.817c-1.729,-0.354 -3.6,-0.425 -5.258,-0.534c-6.888,-0.316 -13.913,-0.029 -20.796,-0.029c-13.596,-0.037 -27.188,-0.075 -40.784,-0.108c-1.233,-0.208 -2.47,-0.283 -3.704,-0.179c-1.237,0.108 -1.8,1.2 -1.662,2.158c-2.504,4.621 -2.613,9.746 -1.942,14.863l-16.133,-0c0.704,-5.117 0.566,-10.242 -1.909,-14.863c0.109,-0.958 -0.425,-2.05 -1.658,-2.158c-1.271,-0.104 -2.471,-0.029 -3.708,0.179c-13.592,0.033 -27.188,0.071 -40.779,0.108c-6.921,0 -13.913,-0.287 -20.8,0.029c-2.259,0.109 -4.8,0.213 -6.988,1.03c1.413,-9.325 2.754,-18.717 4.554,-27.963c2.117,-11.125 8.475,-32.096 22.667,-31.887c1.204,3.85 2.65,7.662 4.167,11.262c0.037,0.075 0.037,0.179 0.07,0.25c0.038,0.071 0.071,0.104 0.105,0.175c0.075,0.142 0.145,0.283 0.179,0.458c0.141,0.288 0.316,0.463 0.496,0.638c1.162,1.658 2.787,2.933 4.729,3.637c1.446,0.53 3.425,0.53 4.521,-0.425c1.412,0.425 3.175,-0.95 2.045,-2.4" style="fill:#ffca9e;fill-rule:nonzero;"/><path d="M295.881,182.505c-1.304,7.171 -2.863,18.184 -8.192,23.484c-9.887,9.741 -32.167,14.441 -44.808,9.708c-10.167,-3.779 -14.159,-12.642 -16.525,-22.496c-1.938,-8.083 -5.613,-18.816 -1.267,-26.654c0.033,-0.071 0.033,-0.175 0.067,-0.279c0.216,-0 0.391,0.029 0.604,0.067c0.212,0.108 0.458,0.141 0.742,0.175c17.333,0.037 34.67,0.075 51.97,0.141c3.463,0 6.959,-0.175 10.417,0c9.675,0.496 8.333,8.721 6.992,15.854" style="fill:#ffca9e;fill-rule:nonzero;"/><path d="M221.31,186.603l-18.713,-0c0.246,-1.096 0.492,-2.121 0.705,-3.25l17.304,-0c0.208,1.129 0.454,2.154 0.704,3.25" style="fill:#fff;fill-rule:nonzero;"/><path d="M197.512,193.203c-2.366,9.85 -6.32,18.712 -16.525,22.491c-12.604,4.734 -34.916,0.034 -44.766,-9.708c-2.896,-2.896 -4.663,-7.45 -5.9,-12.146c-0,-0.496 -0.034,-0.954 -0.034,-1.412c0.034,-0.671 -0.25,-1.092 -0.637,-1.38c-0.671,-3.033 -1.2,-6.037 -1.658,-8.541c-1.342,-7.134 -2.684,-15.359 7.025,-15.854c3.425,-0.175 6.92,-0 10.383,-0c17.333,-0.071 34.633,-0.105 51.971,-0.142c0.283,-0.033 0.529,-0.071 0.741,-0.175c0.213,-0.038 0.425,-0.071 0.6,-0.071c0.034,0.108 0.034,0.213 0.105,0.283c4.345,7.834 0.637,18.571 -1.305,26.655" style="fill:#ffca9e;fill-rule:nonzero;"/><path d="M141.161,245.319c-2.717,-13.279 -8.013,-26.942 -10.063,-40.604c1.517,2.437 3.354,4.587 5.896,6.25c14.333,9.32 37.533,15.429 52.433,4.129c7.555,-5.754 10.167,-14.9 12.146,-23.796c0.071,-0.392 0.175,-0.775 0.246,-1.163l20.233,0c0.105,0.388 0.175,0.771 0.28,1.163c1.945,8.896 4.558,18.042 12.145,23.796c14.867,11.3 38.063,5.191 52.4,-4.129c1.659,-1.096 3,-2.4 4.167,-3.85c-2.225,10.345 -4.412,20.691 -6.887,30.933c-3.638,15.075 -11.721,23.758 -24.996,31.246c-6.075,3.425 -12.325,6.741 -18.892,9.075c-4.271,1.516 -8.862,2.4 -12.887,4.625c-6.321,3.496 -10.346,9.921 -7.98,17.087c0.284,0.742 0.884,1.129 1.521,1.2c3.284,4.059 9.638,5.404 14.617,7.238c1.833,0.708 3.708,1.341 5.579,1.946c-1.308,12.741 0.813,25.562 -1.062,38.27l-0,0.175c-8.896,1.805 -18.217,2.017 -26.975,1.059c-11.438,-1.2 -21.009,-7.517 -28.455,-16.025c0.034,-0.146 0.105,-0.288 0.105,-0.463c0.775,-8.791 1.162,-17.616 1.2,-26.479l-0,-0.037c5.541,-0.563 11.687,-0.563 15.958,-3.459c-0,0.038 -0,0.067 -0.033,0.104c-0.496,2.192 2.895,3.142 3.425,0.921c0.562,-2.508 0.845,-4.696 0.808,-6.641c0.108,-0.455 0.075,-0.846 -0.104,-1.125c-0.496,-5.513 -3.85,-8.83 -11.263,-10.809c-16.879,-4.591 -35.979,-7.233 -50.137,-18.216c-0.071,-0.038 -0.109,-0.038 -0.142,-0.071c-0.562,-7.488 -1.729,-14.971 -3.283,-22.35" style="fill:#ffca9e;fill-rule:nonzero;"/><path d="M255.628,314.557c2.788,0.633 5.617,1.162 8.475,1.591c0.846,3.705 1.942,7.271 3.392,10.555c0.846,1.908 1.796,3.85 2.787,5.754c-0.141,0.104 -0.283,0.179 -0.425,0.354c-4.341,4.908 -9.604,8.612 -15.391,11.337c1.2,-9.82 1.621,-19.67 1.162,-29.591" style="fill:#ffca9e;fill-rule:nonzero;"/><path d="M263.361,312.51c-4.412,-0.671 -8.721,-1.625 -13.029,-2.825c-1.729,-10.596 -1.833,-21.112 -0.283,-31.742c0.812,-0.316 1.591,-0.633 2.225,-0.95c5.366,-2.687 10.875,-5.616 15.925,-9.079c-5.579,13.275 -7.379,29.909 -4.838,44.596" style="fill:#ffe96b;fill-rule:nonzero;"/><path d="M246.697,308.624c-0.988,-0.316 -1.942,-0.6 -2.896,-0.916c-5.367,-1.767 -20.163,-5.121 -21.467,-11.475c0,-0.034 -0.033,-0.034 -0.033,-0.071c-0.354,-9.429 14.191,-13.454 24.112,-16.875c-1.237,9.812 -1.166,19.525 0.284,29.337" style="fill:#ffe96b;fill-rule:nonzero;"/><path d="M244.542,311.59c2.508,0.78 5.017,1.45 7.554,2.121c0.529,10.734 0.109,21.396 -1.337,32.021c-2.154,0.846 -4.379,1.592 -6.642,2.192c-0.033,-0.284 -0.175,-0.567 -0.387,-0.779c1.308,-11.83 -0.246,-23.725 0.812,-35.555" style="fill:#1c2733;fill-rule:nonzero;"/><path d="M176.999,304.812c-2.825,0.529 -5.65,1.129 -8.475,1.833c-0.6,-0.137 -1.271,0 -1.729,0.392c-0.955,0.283 -1.909,0.6 -2.896,0.883c-0.704,-9.533 -1.625,-18.854 -3.954,-28.142c3.075,1.163 6.212,2.225 9.462,3.142c6.392,1.804 12.854,3.392 19.313,5.088c6.816,1.795 12.712,3.6 13.558,9.85c-3.529,6.354 -18.888,5.791 -25.279,6.954" style="fill:#ffe96b;fill-rule:nonzero;"/><path d="M182.4,307.46c-0.033,7.521 -0.387,15.038 -0.954,22.525c-2.154,-2.858 -4.091,-5.895 -5.787,-9.004c0.246,-0.279 0.421,-0.596 0.458,-1.021c0.317,-3.85 0.529,-7.7 0.638,-11.579c1.937,-0.354 3.775,-0.641 5.645,-0.921" style="fill:#1c2733;fill-rule:nonzero;"/><path d="M173.22,309.121c-0.07,2.116 -0.175,4.237 -0.316,6.354c-0.884,-1.942 -1.696,-3.883 -2.4,-5.825c0.883,-0.213 1.8,-0.354 2.716,-0.529" style="fill:#ffca9e;fill-rule:nonzero;"/><path d="M143.844,414.76c-0.917,-5.295 -1.8,-10.554 -2.683,-15.854c4.908,1.45 10.204,2.121 13.841,2.438c0.492,0.033 0.884,-0.142 1.167,-0.388c0.6,2.292 1.446,4.517 2.646,6.638c3,5.333 6.462,9.604 9.217,14.3c-8.263,-1.909 -16.313,-4.271 -24.188,-7.134" style="fill:#ffca9e;fill-rule:nonzero;"/><path d="M215.377,427.224c-14.72,-0 -29.091,-1.517 -43.004,-4.379c-5.154,-10.592 -13.383,-19.417 -14.229,-32.167c-1.342,-20.267 1.058,-41.058 5.192,-60.867c0.458,-2.225 -2.934,-3.146 -3.429,-0.921c-4.021,19.35 -6.105,39.159 -5.4,58.967c0.108,3.388 0.354,6.779 0.954,10.1c-0.142,-0.075 -0.284,-0.146 -0.459,-0.146c-5.191,-0.458 -9.816,-1.446 -14.654,-3.387c-6.954,-2.825 -7.733,-6.709 -7.412,-14.338c0.246,-6.633 1.833,-13.45 2.754,-20.054c1.762,-12.675 2.575,-27.925 11.367,-38.062c5.12,-5.963 12.358,-9.284 20.02,-11.438c6.955,19.033 21.646,39.05 42.721,42.583c13.7,2.296 29.413,1.163 42.867,-4.308c0.387,0 0.737,-0.142 0.987,-0.425c6.992,-3.004 13.346,-7.171 18.396,-12.746c3.213,5.509 7.167,10.771 11.9,14.792c1.834,17.371 2.821,34.037 -4.029,50.6c-1.304,3.208 -2.75,6.387 -4.129,9.529c-0.496,0.321 -0.704,0.921 -0.671,1.521c-1.096,2.471 -2.154,4.942 -3.071,7.45c-18.041,5.012 -37.041,7.696 -56.671,7.696" style="fill:#fff;fill-rule:nonzero;"/><path d="M287.759,353.253c11.442,7.346 29.588,11.654 28.354,28.142c-0.037,0.212 0.034,0.354 0.067,0.529c-0.246,6.746 -1.446,13.275 -3.142,19.771c-10.204,6.325 -21.429,9.216 -33.329,8.725c2.329,-5.159 4.696,-10.38 6.392,-15.855c4.091,-13.45 3.108,-27.508 1.658,-41.312" style="fill:#fff;fill-rule:nonzero;"/><path d="M276.354,418.255c0.566,-1.479 1.2,-2.929 1.837,-4.379c4.063,0.288 8.05,0.179 11.967,-0.316c-4.517,1.729 -9.142,3.32 -13.804,4.695" style="fill:#ffca9e;fill-rule:nonzero;"/><path d="M316.818,401.345c2.012,-8.017 3.246,-16.171 2.862,-24.609c0,-0.462 -0.179,-0.816 -0.429,-1.062c-1.2,-5.579 -4.766,-10.238 -9.566,-13.984c-10.805,-8.362 -22.842,-10.766 -31.105,-22.7c-14.691,-21.187 -17.233,-52.645 -4.308,-75.487c0.071,-0.142 0.104,-0.283 0.142,-0.458c0.671,-0.567 1.375,-1.096 2.012,-1.73c7.059,-7.066 9.671,-15.787 11.792,-25.32c3,-13.134 5.825,-26.338 8.758,-39.509c0.104,-0.562 0,-1.021 -0.25,-1.375c0.742,-2.862 1.342,-5.754 1.946,-8.546c1.2,-5.616 4.833,-16.133 -0.25,-20.866c-0.179,-0.179 -0.387,-0.317 -0.6,-0.459c-0.633,-6.354 -0.987,-12.745 -0.987,-19.137c7.587,-4.413 12.991,-12.075 13.416,-21.5c0.104,-2.263 -3.425,-2.263 -3.533,-0c-0.633,13.946 -13.696,22.633 -26.904,22.029c-12.463,-0.567 -24.188,-7.875 -32.729,-16.525c-14.121,-14.333 -16.596,-37.212 -32.8,-49.467c-12.005,-9.104 -28.955,-9.883 -40.959,-0.316c-11.333,9.075 -13.841,24.925 -6.425,36.966c-0.037,0.109 -0.071,0.18 -0.104,0.288c-0.037,-0.038 -0.071,-0.038 -0.146,-0.038c-0.137,-0.037 -0.316,-0.108 -0.454,-0.141c-0.604,-0.175 -1.133,-0.459 -1.629,-0.85c-0.846,-0.596 -1.446,-1.409 -1.904,-2.329c-4.663,-10.805 -8.721,-22.809 -6.179,-34.638c2.966,-13.804 13.1,-20.546 26.375,-22.946c23.654,-4.312 48.266,4.375 64.154,22.384c11.9,13.487 17.125,32.941 33.187,42.65c9.146,5.508 28.25,7.662 27.934,-7.696c-0.038,-2.296 -3.567,-2.296 -3.534,-0c0.213,10.275 -10.908,9.108 -16.204,7.591c-2.617,-0.741 -5.192,-2.116 -7.45,-3.637c-5.3,-3.496 -9.396,-8.333 -12.996,-13.488c-5.612,-8.05 -9.746,-16.983 -15.816,-24.712c-11.867,-15.113 -29.484,-24.967 -48.55,-27.225c-15.396,-1.838 -36.121,0.175 -45.546,14.196c-5.296,7.871 -6.463,16.666 -5.438,25.454c-40.641,5.862 -48.3,57.408 -42.933,90.179c4.096,25.067 13.592,48.933 17.229,74.075c1.979,13.771 1.696,27.433 -0.742,41.133c-2.295,12.992 -4.379,29.2 -17.408,35.663c-0.671,0.317 -0.879,0.846 -0.879,1.375c-0.321,0.208 -0.6,0.529 -0.779,0.987c-0.071,0.213 -0.142,0.421 -0.213,0.634c-0.316,0.921 0.354,1.941 1.238,2.191c8.121,2.33 17.158,-6.708 21.608,-12.391c8.225,-10.417 12.571,-23.375 14.267,-36.404c0.421,-3.425 0.633,-6.813 0.737,-10.238c6.463,29.725 -17.616,56.275 -24.15,84.383c-3.108,13.346 -3.496,27.046 -1.375,40.359c-16.525,-8.475 -31.812,-19.067 -45.512,-31.392c1.8,-24.15 13.241,-47.1 17.725,-70.967c5.366,-28.425 -4.45,-55.183 -10.204,-82.691c-6.25,-29.767 -9.463,-61.046 -1.096,-90.775c6.816,-24.225 25.775,-59.034 55.046,-58.084c0.845,0.884 2.612,0.884 3.033,-0.633c4.662,-16.387 21.4,-26.237 36.333,-32.058c14.584,-5.688 30.613,-7.663 46.146,-6.288c31.779,2.859 60.875,20.163 81.633,43.888c11.934,13.629 19.738,28.883 22.596,46.816c2.863,17.834 2.684,36.23 1.521,54.2c-2.192,33.896 -11.725,67.617 -11.404,101.65c0.142,16.667 4.2,31.921 12.146,46.575c5.554,10.246 11.979,20.25 15.304,31.525c2.371,8.042 3.45,17.68 0.042,25.588c-2.038,4.725 -5.609,7.421 -9.771,10.204c-5.167,3.454 -10.479,6.679 -15.921,9.688" style="fill:#ffe96b;fill-rule:nonzero;"/><path d="M345.771,382.208c5.225,-14.937 0.458,-30.154 -6.675,-43.746c-9.708,-18.5 -19.417,-34.495 -20.442,-56.033c-0.954,-20.125 3.104,-40.112 6.038,-59.954c2.896,-19.317 5.258,-38.771 5.825,-58.329c0.566,-18.146 0.246,-37.359 -4.729,-54.971c-4.38,-15.608 -13.667,-29.025 -24.717,-40.679c-21.433,-22.634 -50.492,-38.592 -81.846,-40.921c-28.529,-2.083 -73.333,8.225 -83.817,39.121c-26.025,-1.025 -44.983,25.387 -53.916,46.854c-10.909,26.233 -11.655,55.117 -7.838,82.904c4.729,34.425 20.829,69.308 14.371,104.333c-4.312,23.409 -15.008,45.617 -17.517,68.992c-41.204,-38.662 -66.975,-93.6 -66.975,-154.4c0,-116.833 95.046,-211.846 211.846,-211.846c116.834,0 211.846,95.013 211.846,211.846c0,67.683 -31.883,128.025 -81.454,166.829" style="fill:#8ba8aa;fill-rule:nonzero;"/><path d="M213.559,262.632c7.741,-1.417 15.558,-10.8 15.479,-18.612c-0.046,-4.542 -7.108,-4.555 -7.058,-0c0.045,4.995 -6.33,11.662 -11.13,11.579c-5.35,-0.096 -8.679,-5.35 -11.362,-9.304c-2.542,-3.738 -8.663,-0.209 -6.1,3.566c4.608,6.779 10.946,14.454 20.171,12.771" style="fill-rule:nonzero;"/><path d="M162.063,176.373l-1.175,0c-3.796,0 -7.721,1.584 -10.579,4.121c-1.258,-0.808 -2.4,-1.812 -3.412,-3.079c-1.188,-1.492 -3.75,-1.246 -4.992,0c-1.471,1.475 -1.196,3.5 -0,4.992c1.212,1.516 2.692,2.775 4.296,3.85c-0.825,1.954 -1.292,4.05 -1.204,6.004c0.187,4.112 1.533,8.371 4.654,11.237c3.108,2.85 6.933,4.655 11.237,4.655l1.175,-0c4.075,-0 8.354,-1.775 11.234,-4.655c2.758,-2.754 4.833,-7.275 4.654,-11.237c-0.184,-4.108 -1.534,-8.367 -4.654,-11.233c-3.109,-2.85 -6.93,-4.655 -11.234,-4.655" style="fill-rule:nonzero;"/><path d="M275.601,174.481c-1.509,-0.883 -4.05,-0.483 -4.834,1.267c-0.4,0.9 -0.883,1.742 -1.416,2.542c-2.542,-2.563 -6.096,-4.267 -10.779,-4.267c-20.446,-0 -20.48,31.775 -0,31.775c12.475,-0 17.304,-11.813 14.562,-21.038c1.517,-1.595 2.813,-3.387 3.733,-5.45c0.775,-1.741 0.505,-3.795 -1.266,-4.829" style="fill-rule:nonzero;"/><path d="M345.771,382.208c5.225,-14.937 0.458,-30.154 -6.675,-43.745c-9.708,-18.5 -19.417,-34.496 -20.442,-56.034c-0.954,-20.125 3.104,-40.112 6.038,-59.954c2.896,-19.317 5.258,-38.771 5.825,-58.329c0.566,-18.146 0.246,-37.358 -4.729,-54.971c-4.38,-15.608 -13.667,-29.025 -24.717,-40.679c-21.433,-22.633 -50.492,-38.592 -81.846,-40.921c-28.529,-2.083 -73.333,8.225 -83.817,39.121c-26.025,-1.025 -44.983,25.387 -53.916,46.854c-10.909,26.233 -11.655,55.117 -7.838,82.904c4.729,34.425 20.829,69.309 14.371,104.334c-4.312,23.408 -15.008,45.616 -17.517,68.991c-41.204,-38.662 -66.975,-93.6 -66.975,-154.4c0,-116.833 95.046,-211.846 211.846,-211.846c116.834,0 211.846,95.013 211.846,211.846c0,67.684 -31.883,128.025 -81.454,166.829m-28.954,19.138c2.012,-8.017 3.25,-16.171 2.862,-24.608c0,-0.463 -0.179,-0.817 -0.425,-1.063c-1.2,-5.579 -4.767,-10.237 -9.571,-13.983c-10.8,-8.367 -22.841,-10.767 -31.104,-22.7c-14.687,-21.188 -17.229,-52.646 -4.308,-75.488c0.071,-0.141 0.108,-0.287 0.142,-0.462c0.67,-0.563 1.379,-1.092 2.012,-1.729c7.063,-7.063 9.675,-15.784 11.792,-25.317c3.004,-13.133 5.825,-26.338 8.758,-39.508c0.104,-0.563 0,-1.021 -0.25,-1.375c0.742,-2.863 1.342,-5.755 1.946,-8.546c1.2,-5.617 4.833,-16.134 -0.25,-20.867c-0.175,-0.179 -0.388,-0.317 -0.6,-0.458c-0.633,-6.359 -0.988,-12.746 -0.988,-19.138c7.592,-4.416 12.992,-12.075 13.417,-21.5c0.104,-2.262 -3.425,-2.262 -3.533,0c-0.634,13.942 -13.696,22.629 -26.904,22.029c-12.463,-0.566 -24.184,-7.875 -32.73,-16.525c-14.12,-14.333 -16.591,-37.216 -32.8,-49.466c-12.004,-9.109 -28.95,-9.884 -40.958,-0.317c-11.333,9.075 -13.837,24.925 -6.425,36.967c-0.037,0.104 -0.071,0.179 -0.104,0.283c-0.038,-0.037 -0.071,-0.037 -0.142,-0.037c-0.141,-0.034 -0.316,-0.105 -0.458,-0.142c-0.604,-0.175 -1.133,-0.454 -1.625,-0.846c-0.846,-0.596 -1.446,-1.412 -1.908,-2.329c-4.659,-10.804 -8.721,-22.808 -6.18,-34.638c2.967,-13.804 13.1,-20.55 26.375,-22.95c23.659,-4.308 48.267,4.38 64.155,22.384c11.9,13.491 17.125,32.946 33.191,42.654c9.142,5.508 28.246,7.662 27.929,-7.696c-0.037,-2.296 -3.566,-2.296 -3.533,0c0.213,10.275 -10.908,9.108 -16.204,7.588c-2.613,-0.738 -5.192,-2.117 -7.45,-3.634c-5.3,-3.5 -9.392,-8.333 -12.996,-13.487c-5.612,-8.054 -9.746,-16.984 -15.817,-24.717c-11.862,-15.112 -29.483,-24.962 -48.55,-27.221c-15.391,-1.837 -36.116,0.175 -45.545,14.192c-5.296,7.875 -6.459,16.667 -5.438,25.458c-40.637,5.863 -48.3,57.409 -42.933,90.175c4.096,25.071 13.591,48.934 17.229,74.079c1.979,13.767 1.696,27.434 -0.742,41.134c-2.291,12.991 -4.375,29.196 -17.404,35.658c-0.671,0.317 -0.883,0.846 -0.883,1.375c-0.317,0.213 -0.6,0.529 -0.779,0.992c-0.067,0.208 -0.138,0.421 -0.209,0.633c-0.321,0.921 0.35,1.942 1.234,2.188c8.12,2.333 17.162,-6.705 21.608,-12.388c8.229,-10.417 12.571,-23.379 14.267,-36.408c0.42,-3.421 0.633,-6.809 0.741,-10.238c6.459,29.729 -17.621,56.279 -24.154,84.384c-3.104,13.35 -3.496,27.05 -1.375,40.362c-16.525,-8.475 -31.812,-19.067 -45.512,-31.392c1.8,-24.15 13.241,-47.1 17.725,-70.966c5.366,-28.425 -4.45,-55.188 -10.205,-82.692c-6.25,-29.767 -9.462,-61.05 -1.095,-90.775c6.816,-24.225 25.775,-59.033 55.045,-58.083c0.846,0.883 2.613,0.883 3.038,-0.634c4.658,-16.387 21.396,-26.237 36.329,-32.058c14.583,-5.687 30.613,-7.662 46.15,-6.287c31.775,2.858 60.871,20.162 81.629,43.887c11.938,13.625 19.738,28.883 22.6,46.817c2.859,17.833 2.684,36.229 1.517,54.2c-2.188,33.896 -11.725,67.616 -11.404,101.65c0.141,16.666 4.2,31.921 12.146,46.571c5.558,10.245 11.979,20.254 15.304,31.529c2.371,8.037 3.45,17.679 0.041,25.583c-2.033,4.729 -5.604,7.425 -9.766,10.208c-5.171,3.454 -10.484,6.679 -15.925,9.688m-40.463,16.908c0.567,-1.479 1.2,-2.929 1.838,-4.375c4.058,0.283 8.05,0.179 11.966,-0.321c-4.516,1.729 -9.145,3.321 -13.804,4.696m11.404,-65c11.442,7.342 29.588,11.654 28.355,28.142c-0.038,0.208 0.033,0.354 0.066,0.529c-0.246,6.746 -1.446,13.275 -3.137,19.771c-10.209,6.321 -21.434,9.216 -33.334,8.725c2.334,-5.159 4.696,-10.384 6.392,-15.854c4.096,-13.455 3.108,-27.509 1.658,-41.313m-72.379,73.971c-14.725,-0 -29.096,-1.521 -43.004,-4.379c-5.158,-10.592 -13.383,-19.417 -14.229,-32.167c-1.346,-20.267 1.058,-41.058 5.187,-60.867c0.459,-2.225 -2.929,-3.145 -3.425,-0.92c-4.025,19.35 -6.108,39.158 -5.4,58.962c0.105,3.392 0.355,6.779 0.955,10.1c-0.142,-0.071 -0.284,-0.142 -0.463,-0.142c-5.187,-0.458 -9.812,-1.45 -14.65,-3.387c-6.958,-2.825 -7.733,-6.713 -7.417,-14.338c0.25,-6.637 1.838,-13.45 2.755,-20.054c1.766,-12.675 2.579,-27.925 11.37,-38.062c5.121,-5.967 12.359,-9.288 20.017,-11.438c6.958,19.029 21.646,39.05 42.725,42.584c13.7,2.291 29.413,1.162 42.863,-4.313c0.391,0 0.741,-0.142 0.991,-0.421c6.988,-3.004 13.342,-7.171 18.392,-12.75c3.212,5.513 7.167,10.771 11.9,14.796c1.837,17.371 2.825,34.038 -4.025,50.6c-1.308,3.208 -2.754,6.388 -4.129,9.529c-0.496,0.321 -0.709,0.917 -0.675,1.521c-1.092,2.471 -2.154,4.938 -3.071,7.45c-18.042,5.013 -37.038,7.696 -56.667,7.696m-71.533,-12.467c-0.921,-5.296 -1.804,-10.554 -2.683,-15.85c4.908,1.446 10.204,2.121 13.837,2.438c0.496,0.033 0.883,-0.142 1.167,-0.392c0.6,2.296 1.446,4.521 2.646,6.642c3.004,5.329 6.462,9.6 9.216,14.296c-8.262,-1.909 -16.312,-4.271 -24.183,-7.134m29.375,-105.637c-0.071,2.116 -0.179,4.237 -0.317,6.354c-0.883,-1.942 -1.696,-3.883 -2.4,-5.825c0.879,-0.213 1.8,-0.354 2.717,-0.529m9.179,-1.659c-0.033,7.517 -0.387,15.038 -0.954,22.525c-2.154,-2.862 -4.092,-5.895 -5.788,-9.004c0.246,-0.283 0.421,-0.6 0.459,-1.021c0.316,-3.85 0.529,-7.7 0.637,-11.583c1.938,-0.354 3.775,-0.637 5.646,-0.916m-5.4,-2.651c-2.825,0.53 -5.65,1.13 -8.475,1.834c-0.6,-0.138 -1.271,-0 -1.729,0.392c-0.954,0.279 -1.908,0.599 -2.896,0.883c-0.708,-9.534 -1.625,-18.854 -3.954,-28.142c3.071,1.163 6.212,2.225 9.462,3.142c6.392,1.804 12.85,3.387 19.313,5.087c6.812,1.796 12.708,3.6 13.558,9.85c-3.533,6.355 -18.891,5.792 -25.279,6.954m67.542,6.78c2.508,0.775 5.016,1.446 7.558,2.121c0.529,10.733 0.104,21.391 -1.342,32.02c-2.154,0.846 -4.379,1.592 -6.637,2.188c-0.038,-0.279 -0.179,-0.563 -0.392,-0.775c1.309,-11.829 -0.246,-23.725 0.813,-35.554m2.154,-2.967c-0.988,-0.317 -1.942,-0.6 -2.896,-0.917c-5.367,-1.766 -20.162,-5.12 -21.467,-11.475c0,-0.037 -0.033,-0.037 -0.033,-0.07c-0.354,-9.43 14.192,-13.455 24.113,-16.875c-1.238,9.812 -1.163,19.52 0.283,29.337m16.667,3.883c-4.413,-0.67 -8.725,-1.62 -13.03,-2.82c-1.729,-10.596 -1.837,-21.117 -0.283,-31.742c0.813,-0.321 1.588,-0.638 2.225,-0.954c5.367,-2.684 10.875,-5.617 15.925,-9.079c-5.579,13.279 -7.383,29.908 -4.837,44.595m-7.734,2.05c2.788,0.634 5.613,1.163 8.475,1.592c0.846,3.704 1.942,7.271 3.388,10.554c0.85,1.909 1.8,3.85 2.787,5.754c-0.137,0.105 -0.279,0.18 -0.421,0.355c-4.341,4.904 -9.604,8.612 -15.395,11.333c1.204,-9.817 1.625,-19.667 1.166,-29.588m-114.466,-69.241c-2.721,-13.275 -8.017,-26.938 -10.063,-40.604c1.517,2.437 3.354,4.591 5.896,6.25c14.333,9.325 37.529,15.429 52.433,4.133c7.554,-5.754 10.167,-14.904 12.146,-23.796c0.067,-0.392 0.175,-0.779 0.246,-1.167l20.229,0c0.108,0.388 0.179,0.775 0.283,1.167c1.942,8.892 4.555,18.042 12.146,23.796c14.863,11.296 38.063,5.192 52.396,-4.133c1.663,-1.092 3,-2.4 4.167,-3.846c-2.221,10.346 -4.413,20.687 -6.884,30.929c-3.637,15.079 -11.725,23.762 -25,31.246c-6.07,3.429 -12.32,6.746 -18.887,9.075c-4.275,1.516 -8.863,2.4 -12.888,4.625c-6.32,3.496 -10.345,9.921 -7.979,17.087c0.284,0.746 0.884,1.134 1.517,1.2c3.283,4.063 9.642,5.404 14.617,7.238c1.837,0.708 3.708,1.346 5.579,1.946c-1.304,12.745 0.812,25.562 -1.059,38.275l0,0.175c-8.895,1.8 -18.22,2.012 -26.975,1.058c-11.441,-1.2 -21.008,-7.521 -28.458,-16.029c0.033,-0.142 0.108,-0.284 0.108,-0.459c0.775,-8.795 1.163,-17.62 1.2,-26.483l0,-0.037c5.542,-0.559 11.684,-0.559 15.959,-3.459c-0,0.038 -0,0.071 -0.038,0.109c-0.491,2.187 2.896,3.141 3.425,0.916c0.567,-2.504 0.846,-4.696 0.813,-6.637c0.104,-0.459 0.071,-0.846 -0.104,-1.129c-0.496,-5.509 -3.85,-8.83 -11.263,-10.809c-16.879,-4.587 -35.979,-7.233 -50.137,-18.216c-0.071,-0.034 -0.109,-0.034 -0.142,-0.067c-0.567,-7.488 -1.729,-14.975 -3.283,-22.354m56.35,-52.113c-2.367,9.85 -6.321,18.713 -16.525,22.492c-12.605,4.733 -34.917,0.033 -44.767,-9.708c-2.896,-2.896 -4.663,-7.45 -5.9,-12.146c-0,-0.496 -0.033,-0.959 -0.033,-1.413c0.033,-0.671 -0.25,-1.096 -0.638,-1.379c-0.671,-3.033 -1.2,-6.037 -1.658,-8.546c-1.342,-7.133 -2.684,-15.354 7.025,-15.85c3.425,-0.175 6.921,0 10.383,0c17.333,-0.071 34.633,-0.108 51.971,-0.146c0.283,-0.029 0.529,-0.066 0.742,-0.175c0.212,-0.033 0.425,-0.066 0.6,-0.066c0.033,0.104 0.033,0.212 0.104,0.279c4.346,7.837 0.637,18.571 -1.304,26.658m23.795,-6.6l-18.712,0c0.246,-1.096 0.496,-2.121 0.708,-3.254l17.3,0c0.213,1.133 0.459,2.158 0.704,3.254m74.571,-4.1c-1.304,7.171 -2.858,18.188 -8.191,23.484c-9.884,9.741 -32.167,14.441 -44.805,9.708c-10.17,-3.779 -14.158,-12.642 -16.525,-22.492c-1.941,-8.087 -5.612,-18.821 -1.27,-26.658c0.033,-0.067 0.033,-0.175 0.07,-0.279c0.213,-0 0.388,0.033 0.6,0.066c0.213,0.109 0.459,0.146 0.742,0.175c17.338,0.038 34.671,0.075 51.975,0.146c3.458,0 6.954,-0.175 10.413,0c9.675,0.496 8.333,8.717 6.991,15.85m-124.321,-64.612c-18.179,-23.904 12.08,-49.996 36.05,-37.354c18.113,9.57 20.871,33.225 33.263,47.983c10.379,12.321 26.408,22.808 43.075,21.571c3.283,-0.246 6.462,-1.021 9.392,-2.259c0.07,5.296 0.354,10.559 0.812,15.821c-1.729,-0.354 -3.6,-0.429 -5.262,-0.533c-6.884,-0.317 -13.909,-0.033 -20.796,-0.033c-13.592,-0.038 -27.184,-0.071 -40.779,-0.105c-1.238,-0.212 -2.471,-0.287 -3.709,-0.179c-1.233,0.104 -1.8,1.2 -1.658,2.154c-2.508,4.625 -2.613,9.746 -1.942,14.867l-16.137,0c0.708,-5.121 0.566,-10.242 -1.904,-14.867c0.104,-0.954 -0.425,-2.05 -1.663,-2.154c-1.271,-0.108 -2.471,-0.033 -3.704,0.179c-13.596,0.034 -27.188,0.067 -40.783,0.105c-6.917,-0 -13.909,-0.284 -20.796,0.033c-2.259,0.104 -4.8,0.212 -6.992,1.025c1.417,-9.321 2.754,-18.713 4.554,-27.963c2.121,-11.125 8.475,-32.095 22.671,-31.883c1.2,3.85 2.646,7.663 4.167,11.263c0.033,0.07 0.033,0.179 0.071,0.245c0.033,0.071 0.07,0.109 0.104,0.175c0.071,0.146 0.141,0.288 0.175,0.463c0.141,0.283 0.321,0.458 0.496,0.633c1.166,1.663 2.787,2.934 4.733,3.638c1.446,0.529 3.425,0.529 4.517,-0.421c1.412,0.421 3.179,-0.954 2.045,-2.404m-49.287,102.146c-6.533,-24.221 -14.158,-49.713 -9.954,-74.992c3.529,-21.467 17.333,-46.113 40.812,-49.433c0.321,1.695 0.671,3.391 1.096,5.083c-10.346,0.392 -16.737,10.771 -20.583,19.529c-6.359,14.579 -7.417,31.813 -9.746,47.558c-2.613,5.263 0.283,13.875 1.304,18.784c0.496,2.296 0.992,4.658 1.558,7.025c-0.108,11.862 3.738,23.162 6.705,34.533c3.637,14.017 6.958,28.208 7.662,42.721c0.638,12.254 -0.671,24.821 -5.012,36.404c-2.225,5.963 -5.296,11.617 -9.25,16.629c-2.863,3.638 -8.721,10.1 -14.338,11.192c14.725,-9.038 16.738,-30.963 18.5,-46.642c2.617,-23.371 -2.679,-45.971 -8.754,-68.391m0.883,186.004c-3.354,-18.467 -1.696,-37.675 5.259,-55.575c9.608,-24.754 27.508,-49.575 18.254,-77.15c3.004,1.908 6.112,3.458 9.325,4.875l-0,0.212c2.821,10.025 3.671,20.05 4.45,30.363c0.033,0.104 0.071,0.212 0.104,0.316c-1.342,0.496 -2.65,0.992 -3.921,1.555c-12.004,5.579 -18.221,15.995 -21.112,28.529c-3.496,14.971 -6.146,31.812 -6.992,47.133c-0.317,5.546 3.671,9.008 8.862,11.233c0.846,5.292 1.73,10.555 2.613,15.817c-5.721,-2.192 -11.333,-4.629 -16.842,-7.308m92.225,-406.042c-118.741,0 -215.379,96.6 -215.379,215.379c0,62.813 27.046,119.446 70.121,158.85c1.096,1.021 2.225,2.046 3.354,2.963c14.017,12.358 29.658,22.879 46.538,31.283c1.304,0.638 2.645,1.271 3.987,1.908c5.442,2.58 11.054,4.905 16.738,7.025l3.812,1.375c8.296,2.9 16.842,5.338 25.6,7.205c1.304,0.283 2.646,0.533 3.988,0.812c13.345,2.575 27.154,3.954 41.241,3.954c19.067,0 37.6,-2.504 55.221,-7.166c1.413,-0.388 2.788,-0.78 4.167,-1.167c12.637,-3.638 24.821,-8.363 36.4,-14.158c1.45,-0.742 2.896,-1.484 4.346,-2.221c68.458,-36.121 115.241,-108.046 115.241,-190.663c0,-118.779 -96.6,-215.379 -215.375,-215.379" style="fill-rule:nonzero;"/></svg>