<?xml version="1.0" encoding="UTF-8" standalone="no"?><!DOCTYPE svg PUBLIC "-//W3C//DTD SVG 1.1//EN" "http://www.w3.org/Graphics/SVG/1.1/DTD/svg11.dtd"><svg width="100%" height="100%" viewBox="0 0 431 431" version="1.1" xmlns="http://www.w3.org/2000/svg" xmlns:xlink="http://www.w3.org/1999/xlink" xml:space="preserve" xmlns:serif="http://www.serif.com/" style="fill-rule:evenodd;clip-rule:evenodd;stroke-linejoin:round;stroke-miterlimit:2;"><path d="M156.166,359.537c0.567,19.525 -0.562,39.013 -3.037,58.363c-11.754,-3.633 -23.092,-8.263 -33.892,-13.804c2.821,-10.171 5.433,-20.479 8.613,-30.542c2.295,-7.167 4.979,-14.971 12.216,-18.5c4.909,-2.437 10.629,-2.371 16.029,-2.121c-0.316,1.942 0,4.167 0.071,6.604" style="fill:#a3ffc0;fill-rule:nonzero;"/><path d="M215.378,427.222c-20.441,-0 -40.25,-2.929 -58.962,-8.367c0.104,-0.142 0.137,-0.317 0.175,-0.533c1.979,-15.038 3.108,-30.15 3.246,-45.334c0.037,-4.766 -2.467,-18.287 1.875,-21.57c1.941,-1.45 6.6,-1.555 9.108,-2.121c3.425,-0.809 6.85,-1.625 10.275,-2.434c0.071,0.034 0.142,0.067 0.213,0.067l0.175,0c-1.342,17.446 1.058,30.721 11.654,45.408c4.762,6.605 11.262,13.771 19.591,15.392c1.838,0.392 3.85,0.317 5.513,-0.562c6.387,-3.288 11.792,-9.075 15.958,-14.83c10.592,-14.687 12.992,-27.962 11.646,-45.408l0.179,0c0.071,0 0.146,-0.033 0.213,-0.067c3.429,0.809 6.85,1.625 10.275,2.434c2.508,0.566 7.166,0.671 9.112,2.121c4.342,3.283 1.834,16.804 1.871,21.57c0.138,15.184 1.271,30.296 3.246,45.334c0.071,0.641 0.387,1.062 0.808,1.346c-17.896,4.904 -36.754,7.554 -56.171,7.554" style="fill:#a3ffc0;fill-rule:nonzero;"/><path d="M181.307,319.922c-16.879,-3.18 -34.463,-4.484 -48.054,-16.209c-12.5,-10.766 -19.455,-26.125 -25.667,-41.133c-0.038,-0.175 -0.108,-0.317 -0.213,-0.458l-1.379,-3.392c-0.883,-2.083 -4.271,-1.163 -3.425,0.921c0.459,1.096 0.884,2.191 1.342,3.283c-6.179,11.438 -19.771,4.521 -25.846,-3.175c-5.083,-6.462 -7.308,-13.983 -7.8,-22.104c-0.354,-6.463 -0.283,-13.488 2.013,-19.596c4.166,-11.083 19.454,-16.558 25.912,-4.129c0.463,0.95 1.379,1.054 2.083,0.737c0.142,0.038 0.321,0.071 0.463,0.142c1.233,0.425 2.575,-0.917 2.154,-2.187c-0.217,-0.709 -0.462,-1.413 -0.708,-2.155c-0.038,-0.141 -0.142,-0.245 -0.213,-0.354c-3.175,-18.816 -1.871,-38.662 5.509,-56.387c7.166,-17.263 24.258,-34.388 44.7,-29.054c8.475,2.187 15.641,7.979 23.375,11.858c12.566,6.287 23.829,9.679 38.133,9.925c14.721,0.283 25.275,-3.496 38.096,-9.925c7.733,-3.879 14.9,-9.671 23.375,-11.858c20.441,-5.334 37.496,11.791 44.696,29.054c7.379,17.725 8.687,37.571 5.512,56.387c-0.075,0.109 -0.179,0.213 -0.217,0.354c-0.245,0.742 -0.491,1.446 -0.741,2.155c-0.388,1.27 0.958,2.612 2.191,2.187c0.142,-0.071 0.317,-0.104 0.459,-0.142c0.708,0.317 1.625,0.213 2.083,-0.737c6.463,-12.429 21.75,-6.954 25.917,4.129c2.291,6.108 2.366,13.133 1.975,19.596c-0.459,8.121 -2.679,15.642 -7.767,22.104c-6.071,7.696 -19.667,14.613 -25.846,3.175c0.459,-1.092 0.884,-2.187 1.342,-3.283c0.846,-2.084 -2.542,-3.004 -3.425,-0.921l-1.375,3.392c-0.108,0.141 -0.175,0.283 -0.213,0.458c-6.212,15.008 -13.17,30.367 -25.666,41.133c-13.596,11.725 -31.179,13.029 -48.054,16.209c-7.7,1.45 -22.034,3.458 -21.825,14.229c0.212,9.566 10.1,12.075 18.116,12.637c1.059,13.104 0.742,24.896 -6.429,36.617c-4.092,6.708 -8.929,13.417 -15.354,18.075c-3.146,2.262 -5.758,3.85 -9.713,2.4c-3.316,-1.233 -6.037,-3.813 -8.508,-6.246c-4.271,-4.167 -7.767,-9.146 -10.875,-14.229c-7.167,-11.721 -7.483,-23.513 -6.425,-36.617c8.013,-0.562 17.9,-3.071 18.113,-12.637c0.212,-10.771 -14.125,-12.779 -21.821,-14.229" style="fill:#e38764;fill-rule:nonzero;"/><path d="M296.657,123.327c-17.654,-7.412 -30.046,1.555 -45.338,9.496c-11.754,6.075 -24.679,9.821 -37.671,10.063c-12.958,-0.242 -25.879,-3.988 -37.637,-10.063c-15.292,-7.941 -27.717,-16.908 -45.333,-9.496c-30.792,12.888 -36.688,54.834 -32.592,84.492c-2.613,-2.717 -5.967,-4.483 -9.533,-4.942c-2.65,-37.637 -3.25,-79.866 23.62,-109.595c26.059,-28.846 62.671,-46.184 101.475,-47.171c38.838,0.987 75.455,18.325 101.509,47.171c26.871,29.729 26.271,71.958 23.621,109.595c-3.563,0.459 -6.921,2.225 -9.534,4.942c4.1,-29.658 -1.796,-71.604 -32.587,-84.492" style="fill:#1c2733;fill-rule:nonzero;"/><path d="M274.2,418.925c0.104,-0.175 0.104,-0.354 0.075,-0.604c-2.546,-19.484 -3.675,-39.117 -3.112,-58.784c0.07,-2.437 0.387,-4.662 0.07,-6.604c5.405,-0.246 11.125,-0.316 16.034,2.121c7.237,3.533 9.921,11.333 12.212,18.5c3.359,10.592 6.042,21.396 9.009,32.063c-10.946,5.4 -22.388,9.85 -34.288,13.308" style="fill:#a3ffc0;fill-rule:nonzero;"/><path d="M311.696,403.992c-3.813,-14.125 -6.388,-30.088 -13.483,-42.938c-6.109,-11.05 -17.055,-12.108 -28.671,-11.579c-0.392,-0.283 -0.779,-0.604 -1.238,-0.921c-2.4,-1.516 -6.6,-1.658 -9.321,-2.325c-4.591,-1.062 -9.145,-2.121 -13.695,-3.179c-0.425,-0.104 -0.817,-0.038 -1.134,0.104c-0.458,-0.071 -0.95,-0.071 -1.341,0.175c-3.85,-0.175 -7.134,-0.812 -10.663,-3.387c-7.662,-5.65 -0.746,-12.746 6.071,-14.721c5.721,-1.696 11.758,-2.438 17.621,-3.392c10.837,-1.8 21.854,-3.708 31.6,-9.108c17.441,-9.709 26.766,-27.967 34.321,-45.829c5.716,7.375 16.412,6.883 24.008,1.337c9.708,-7.096 14.158,-18.958 14.796,-30.575c0.671,-11.367 -0.529,-25.879 -11.267,-32.483c-2.262,-1.413 -4.625,-2.15 -6.958,-2.4c2.65,-38.625 2.825,-81.525 -24.713,-111.996c-26.233,-29.058 -63.133,-46.642 -102.146,-48.092c-0.212,-0.104 -0.42,-0.137 -0.704,-0.137c-0.354,-0 -0.741,0.033 -1.129,0.033c-0.354,0 -0.742,-0.033 -1.096,-0.033c-0.283,-0 -0.496,0.033 -0.704,0.137c-39.017,1.45 -75.917,19.034 -102.15,48.092c-27.537,30.471 -27.362,73.371 -24.712,111.996c-2.334,0.25 -4.696,0.987 -6.959,2.4c-10.733,6.604 -11.933,21.117 -11.296,32.483c0.671,11.617 5.117,23.479 14.83,30.575c7.591,5.546 18.287,6.038 24.008,-1.337c7.554,17.862 16.879,36.12 34.321,45.829c9.741,5.4 20.762,7.308 31.6,9.108c5.858,0.954 11.9,1.696 17.616,3.392c6.817,1.975 13.734,9.071 6.075,14.721c-3.533,2.575 -6.816,3.212 -10.662,3.387c-0.392,-0.246 -0.883,-0.246 -1.342,-0.175c-0.316,-0.142 -0.708,-0.208 -1.133,-0.104c-4.55,1.058 -9.146,2.117 -13.696,3.179c-2.721,0.667 -6.921,0.809 -9.325,2.325c-0.454,0.317 -0.846,0.638 -1.233,0.921c-11.617,-0.529 -22.563,0.529 -28.671,11.579c-6.813,12.396 -9.496,27.646 -13.1,41.384c-66.871,-35.663 -112.488,-106.138 -112.488,-187.063c0,-116.833 95.046,-211.846 211.846,-211.846c116.834,0 211.846,95.013 211.846,211.846c0,82.125 -46.996,153.517 -115.529,188.617" style="fill:#8ba8aa;fill-rule:nonzero;"/><path d="M219.716,289.913c8.408,-0.771 13.979,-8.567 12.121,-16.713c-1.009,-4.425 -7.817,-2.55 -6.809,1.88c1.196,5.245 -3.862,8.591 -8.641,7.691c-4.663,-0.879 -7.638,-4.929 -9.171,-9.121c-1.55,-4.233 -8.375,-2.404 -6.808,1.88c3.016,8.254 9.875,15.25 19.308,14.383" style="fill-rule:nonzero;"/><path d="M168.803,196.915c-2.88,-2.879 -7.163,-4.654 -11.234,-4.654c-3.896,0 -8.554,1.729 -11.237,4.654c-2.779,3.03 -4.842,7.005 -4.654,11.234c0.191,4.212 1.612,8.196 4.654,11.237c0.196,0.192 0.396,0.388 0.591,0.584c2.88,2.887 7.159,4.654 11.234,4.654c3.896,-0 8.554,-1.729 11.233,-4.654c2.783,-3.025 4.846,-7 4.654,-11.234c-0.187,-4.212 -1.612,-8.191 -4.654,-11.233c-0.196,-0.196 -0.392,-0.392 -0.587,-0.588" style="fill-rule:nonzero;"/><path d="M273.492,228.145c2.188,0.088 4.229,-0.37 6.121,-1.366c1.967,-0.638 3.675,-1.734 5.112,-3.284c2.755,-2.754 4.83,-7.279 4.655,-11.237c-0.184,-4.108 -1.534,-8.371 -4.655,-11.233c-1.483,-1.363 -3.32,-2.663 -5.304,-3.555c-0.404,-0.204 -0.812,-0.32 -1.221,-0.487c-0.045,-0.013 -0.087,-0.033 -0.125,-0.05c-0.504,-0.2 -1,-0.446 -1.5,-0.583c-3.8,-1.05 -8.866,-0.575 -12.241,1.6c-7.396,4.766 -9.979,13.937 -5.696,21.741c2.717,4.954 9.021,9.121 14.854,8.454" style="fill-rule:nonzero;"/><path d="M311.696,403.992c-3.813,-14.125 -6.388,-30.088 -13.483,-42.938c-6.109,-11.05 -17.055,-12.108 -28.671,-11.579c-0.392,-0.283 -0.779,-0.604 -1.238,-0.921c-2.4,-1.516 -6.6,-1.658 -9.321,-2.325c-4.591,-1.062 -9.145,-2.121 -13.695,-3.179c-0.425,-0.104 -0.817,-0.038 -1.134,0.104c-0.458,-0.071 -0.95,-0.071 -1.341,0.175c-3.85,-0.175 -7.134,-0.812 -10.663,-3.387c-7.662,-5.65 -0.746,-12.746 6.071,-14.721c5.721,-1.696 11.758,-2.438 17.621,-3.392c10.837,-1.8 21.854,-3.708 31.6,-9.108c17.441,-9.709 26.766,-27.967 34.321,-45.829c5.716,7.375 16.412,6.883 24.008,1.337c9.708,-7.096 14.158,-18.958 14.796,-30.575c0.671,-11.367 -0.529,-25.879 -11.267,-32.483c-2.262,-1.413 -4.625,-2.15 -6.958,-2.4c2.65,-38.625 2.825,-81.525 -24.713,-111.996c-26.233,-29.058 -63.133,-46.642 -102.146,-48.092c-0.212,-0.104 -0.42,-0.137 -0.704,-0.137c-0.354,-0 -0.741,0.033 -1.129,0.033c-0.354,0 -0.742,-0.033 -1.096,-0.033c-0.283,-0 -0.496,0.033 -0.704,0.137c-39.017,1.45 -75.917,19.034 -102.15,48.092c-27.537,30.471 -27.362,73.371 -24.712,111.996c-2.334,0.25 -4.696,0.987 -6.959,2.4c-10.733,6.604 -11.933,21.117 -11.296,32.483c0.671,11.617 5.117,23.479 14.83,30.575c7.591,5.546 18.287,6.038 24.008,-1.337c7.554,17.862 16.879,36.12 34.321,45.829c9.741,5.4 20.762,7.308 31.6,9.108c5.858,0.954 11.9,1.696 17.616,3.392c6.817,1.975 13.734,9.071 6.075,14.721c-3.533,2.575 -6.816,3.212 -10.662,3.387c-0.392,-0.246 -0.883,-0.246 -1.342,-0.175c-0.316,-0.142 -0.708,-0.208 -1.133,-0.104c-4.55,1.058 -9.146,2.117 -13.696,3.179c-2.721,0.667 -6.921,0.809 -9.325,2.325c-0.454,0.317 -0.846,0.638 -1.233,0.921c-11.617,-0.529 -22.563,0.529 -28.671,11.579c-6.813,12.396 -9.496,27.646 -13.1,41.384c-66.871,-35.663 -112.488,-106.138 -112.488,-187.063c0,-116.833 95.046,-211.846 211.846,-211.846c116.834,0 211.846,95.013 211.846,211.846c0,82.125 -46.996,153.517 -115.529,188.617m-37.496,14.933c0.104,-0.175 0.104,-0.354 0.075,-0.604c-2.546,-19.483 -3.675,-39.117 -3.112,-58.783c0.07,-2.438 0.387,-4.663 0.07,-6.605c5.405,-0.245 11.125,-0.316 16.034,2.121c7.237,3.534 9.921,11.334 12.212,18.5c3.359,10.592 6.042,21.396 9.004,32.063c-10.941,5.4 -22.383,9.85 -34.283,13.308m22.458,-295.596c-17.658,-7.416 -30.045,1.554 -45.337,9.496c-11.758,6.075 -24.679,9.817 -37.671,10.063c-12.958,-0.246 -25.883,-3.988 -37.637,-10.063c-15.292,-7.942 -27.717,-16.912 -45.338,-9.496c-30.787,12.884 -36.687,54.834 -32.592,84.492c-2.612,-2.717 -5.966,-4.483 -9.529,-4.946c-2.65,-37.637 -3.25,-79.867 23.621,-109.592c26.054,-28.845 62.671,-46.183 101.475,-47.175c38.838,0.992 75.45,18.33 101.508,47.175c26.867,29.725 26.271,71.955 23.621,109.592c-3.562,0.463 -6.921,2.229 -9.533,4.946c4.096,-29.658 -1.8,-71.608 -32.588,-84.492m-115.35,196.592c-16.879,-3.175 -34.462,-4.483 -48.054,-16.204c-12.5,-10.767 -19.458,-26.129 -25.671,-41.134c-0.037,-0.175 -0.104,-0.32 -0.212,-0.462l-1.375,-3.388c-0.883,-2.083 -4.275,-1.166 -3.425,0.917c0.458,1.096 0.879,2.192 1.342,3.283c-6.18,11.442 -19.775,4.521 -25.846,-3.175c-5.088,-6.462 -7.309,-13.983 -7.804,-22.104c-0.35,-6.462 -0.284,-13.487 2.012,-19.596c4.167,-11.083 19.454,-16.558 25.917,-4.129c0.458,0.95 1.375,1.059 2.083,0.738c0.142,0.037 0.317,0.071 0.458,0.146c1.238,0.42 2.58,-0.921 2.155,-2.192c-0.213,-0.708 -0.459,-1.413 -0.705,-2.15c-0.037,-0.142 -0.141,-0.25 -0.212,-0.354c-3.179,-18.821 -1.871,-38.667 5.508,-56.388c7.167,-17.266 24.254,-34.387 44.7,-29.058c8.475,2.187 15.642,7.979 23.371,11.862c12.571,6.284 23.833,9.675 38.133,9.921c14.725,0.284 25.28,-3.491 38.096,-9.921c7.738,-3.883 14.9,-9.675 23.375,-11.862c20.446,-5.329 37.496,11.792 44.7,29.058c7.379,17.721 8.688,37.567 5.509,56.388c-0.071,0.104 -0.18,0.212 -0.213,0.354c-0.246,0.737 -0.496,1.442 -0.742,2.15c-0.387,1.271 0.955,2.612 2.188,2.192c0.142,-0.075 0.317,-0.109 0.462,-0.146c0.705,0.321 1.621,0.212 2.084,-0.738c6.458,-12.429 21.746,-6.954 25.912,4.129c2.296,6.109 2.371,13.134 1.979,19.596c-0.458,8.121 -2.683,15.642 -7.766,22.104c-6.071,7.696 -19.667,14.617 -25.85,3.175c0.462,-1.091 0.883,-2.187 1.346,-3.283c0.845,-2.083 -2.546,-3 -3.43,-0.917l-1.375,3.388c-0.104,0.142 -0.175,0.287 -0.208,0.462c-6.217,15.005 -13.175,30.367 -25.671,41.134c-13.591,11.721 -31.175,13.029 -48.054,16.204c-7.696,1.45 -22.033,3.458 -21.821,14.229c0.213,9.567 10.1,12.079 18.117,12.638c1.058,13.104 0.737,24.895 -6.429,36.62c-4.096,6.705 -8.934,13.413 -15.359,18.071c-3.141,2.263 -5.754,3.85 -9.708,2.404c-3.321,-1.233 -6.037,-3.812 -8.508,-6.245c-4.275,-4.167 -7.771,-9.15 -10.875,-14.23c-7.171,-11.725 -7.488,-23.516 -6.429,-36.62c8.016,-0.559 17.904,-3.071 18.112,-12.638c0.213,-10.771 -14.121,-12.779 -21.817,-14.229m34.071,107.3c-20.441,-0 -40.25,-2.929 -58.966,-8.367c0.108,-0.141 0.141,-0.316 0.179,-0.533c1.979,-15.038 3.108,-30.15 3.246,-45.329c0.037,-4.771 -2.471,-18.292 1.87,-21.575c1.946,-1.45 6.605,-1.554 9.113,-2.121c3.425,-0.808 6.846,-1.625 10.275,-2.433c0.067,0.033 0.137,0.07 0.212,0.07l0.175,0c-1.341,17.442 1.059,30.717 11.65,45.405c4.767,6.604 11.267,13.77 19.596,15.391c1.838,0.392 3.85,0.321 5.509,-0.562c6.391,-3.284 11.791,-9.075 15.958,-14.829c10.592,-14.688 12.996,-27.963 11.65,-45.405l0.179,0c0.071,0 0.142,-0.037 0.213,-0.07c3.425,0.808 6.85,1.625 10.275,2.433c2.504,0.567 7.166,0.671 9.108,2.121c4.342,3.283 1.837,16.804 1.875,21.575c0.137,15.179 1.267,30.291 3.246,45.329c0.066,0.642 0.387,1.062 0.808,1.346c-17.9,4.904 -36.754,7.554 -56.171,7.554m-59.212,-67.683c0.566,19.525 -0.563,39.012 -3.038,58.362c-11.754,-3.633 -23.091,-8.262 -33.891,-13.804c2.82,-10.171 5.433,-20.479 8.612,-30.542c2.296,-7.166 4.979,-14.966 12.217,-18.5c4.908,-2.437 10.629,-2.366 16.029,-2.121c-0.317,1.942 -0,4.167 0.071,6.605m59.212,-359.538c-118.741,0 -215.379,96.6 -215.379,215.375c0,82.621 46.783,154.542 115.279,190.663c0.779,0.387 1.554,0.812 2.334,1.233c29.337,15.008 62.566,23.483 97.766,23.483c118.775,0 215.375,-96.641 215.375,-215.379c0,-118.775 -96.6,-215.375 -215.375,-215.375" style="fill-rule:nonzero;"/></svg>