<?xml version="1.0" encoding="UTF-8" standalone="no"?><!DOCTYPE svg PUBLIC "-//W3C//DTD SVG 1.1//EN" "http://www.w3.org/Graphics/SVG/1.1/DTD/svg11.dtd"><svg width="100%" height="100%" viewBox="0 0 431 431" version="1.1" xmlns="http://www.w3.org/2000/svg" xmlns:xlink="http://www.w3.org/1999/xlink" xml:space="preserve" xmlns:serif="http://www.serif.com/" style="fill-rule:evenodd;clip-rule:evenodd;stroke-linejoin:round;stroke-miterlimit:2;"><path d="M215.375,427.222c-30.121,-0 -58.787,-6.321 -84.775,-17.725c1.45,-11.121 3.987,-22.134 7.979,-32.625c1.2,-3.18 2.579,-5.93 4.167,-8.33c15.325,18.392 46.5,21.08 68.742,21.146c28.25,0.109 56,-7.2 80.683,-20.829c1.479,2.329 2.821,4.975 3.954,8.013c0.067,0.179 0.104,0.354 0.175,0.533c0.037,0.387 0.142,0.742 0.354,1.021c3.421,9.533 5.788,19.383 7.167,29.412c-26.938,12.463 -56.883,19.384 -88.446,19.384" style="fill:#1c2733;fill-rule:nonzero;"/><path d="M125.446,344.389c-6.529,-8.721 -15.363,-15.538 -21.221,-24.784c-8.792,-13.808 -6.708,-26.904 3.425,-39.016c0.033,-0.034 0.033,-0.071 0.071,-0.071c5.366,0.071 10.379,-2.296 12.533,-7.45c0.317,0.529 0.638,1.096 0.988,1.658c-5.013,11.229 0.779,22.671 8.37,31.534c6.284,7.375 13.455,13.837 16.771,23.233c3.496,9.921 2.084,20.654 -1.762,30.258c-4.592,4.342 -7.95,10.167 -10.417,16.629c-0.287,-0.037 -0.567,0.038 -0.817,0.142c-4.941,2.258 -10.2,0.246 -12.675,-4.062c4.38,-0.6 7.875,-3.425 9.709,-7.805c3.004,-7.095 -0.738,-14.583 -4.975,-20.266" style="fill:#c4834d;fill-rule:nonzero;"/><path d="M73.72,147.302c7.205,6.85 18.784,6.5 27.009,1.804c2.404,-1.346 4.45,-3.041 6.321,-4.946c-1.942,5.367 -3.671,10.767 -5.084,16.313c-0.321,-0.708 -0.987,-1.238 -1.946,-0.921c-10.762,3.463 -20.687,-0.279 -27.854,-8.612c-5.966,-6.921 -8.258,-18.821 -2.121,-25.034c-3.6,6.992 -2.22,15.779 3.675,21.396" style="fill:#c4834d;fill-rule:nonzero;"/><path d="M94.094,104.614c-0.496,-7.875 1.413,-15.567 5.684,-22.242c10.487,-16.312 31.387,-20.341 47.983,-11.37c0.633,3.529 1.412,7.062 2.046,10.558c-13.771,-10.379 -28.704,6.317 -32.092,19.983c-3.425,13.804 -2.367,29.092 -13.067,40.038c-6.25,6.392 -16.487,9.925 -24.925,5.616c-7.45,-3.779 -10.062,-12.783 -6.358,-19.879c0.108,0.071 0.213,0.138 0.321,0.213c2.083,9.708 24.042,15.429 24.962,1.587c0.492,-8.016 -4.025,-16.487 -4.554,-24.504" style="fill:#c4834d;fill-rule:nonzero;"/><path d="M265.582,51.546c-0.92,3.321 -2.895,6.604 -5.645,9.638c-0.675,-0.421 -1.384,-0.775 -2.084,-1.234c-6.991,-4.516 -13.241,-10.029 -19.779,-15.145c-10.062,-7.838 -21.325,-15.221 -34.492,-15.571c-11.829,-0.284 -24.575,5.121 -30.291,15.925c-5.192,9.775 -4.063,21.712 3.033,30.046c-7.946,1.445 -15.679,3.704 -22.879,7.379c0.037,-0.179 0.071,-0.354 0.037,-0.567c-2.508,-15.783 -6.25,-29.621 6.213,-42.262c10.521,-10.663 26.092,-13.663 40.5,-13.838c12.779,-0.108 25.879,1.021 38.587,2.258c7.734,0.775 15.996,2.259 21.855,7.805c4.133,3.95 5.754,8.116 5.512,12.283c-0.287,0.425 -0.567,0.812 -0.817,1.237c-0.458,0.813 -0.208,1.555 0.25,2.046" style="fill:#c4834d;fill-rule:nonzero;"/><path d="M184.902,73.86c-1.517,0.18 -3.037,0.392 -4.554,0.634c-0.038,-0.029 -0.038,-0.067 -0.067,-0.104c-17.233,-16.913 0.384,-40.742 20.829,-41.588c17.513,-0.742 31.142,11.933 43.955,22.1c9.362,7.45 20.445,15.854 32.912,16.525c6.108,0.35 12.463,-3.321 13.558,-8.371c0.671,0.567 1.73,0.496 2.363,-0.066c4.45,15.708 -19.633,10.733 -26.763,7.766c-6.108,-2.541 -11.72,-6.075 -17.3,-9.571c-9.075,-5.754 -18.358,-12.004 -29.025,-14.262c-15.5,-3.283 -45.016,6.85 -35.908,26.937" style="fill:#c4834d;fill-rule:nonzero;"/><path d="M197.756,76.123c2.259,-0.213 2.296,-3.742 0,-3.533c-3.037,0.25 -6.075,0.529 -9.112,0.845c-6.425,-12.212 6.533,-20.795 16.812,-23.091c7.163,-1.621 14.509,-0.563 21.325,2.054c1.763,0.667 3.496,1.442 5.225,2.292c-0.316,-0 -0.671,-0 -0.991,0.07c-3.992,0.492 -8.159,2.825 -10.909,5.684c-3,3.108 -3.529,8.125 -0.987,10.908c-4.134,-0.137 -8.3,-0.067 -12.5,0.288c-2.225,0.175 -2.259,3.704 -0,3.529c8.016,-0.638 15.921,-0.425 23.866,0.741c2.225,0.317 3.18,-3.07 0.917,-3.425c-2.083,-0.283 -4.2,-0.529 -6.283,-0.741c-0.034,-0.884 -0.6,-1.8 -1.696,-1.871c-4.342,-0.392 -2.258,-5.617 -0.388,-7.379c1.13,-1.096 2.58,-1.979 3.959,-2.721c5.012,-2.613 9.496,-1.129 14.333,1.271c0.633,0.321 1.233,0.216 1.692,-0.071c5.262,3.321 10.416,6.817 15.854,9.708c8.121,4.379 18.608,8.9 28.071,6.675c7.591,-1.766 12.746,-8.404 10.171,-16.133c-0.496,-1.45 -2.192,-1.488 -3.005,-0.671c-1.095,-3.004 -2.47,-4.237 -5.645,-5.579c-1.805,-0.742 -2.688,1.8 -1.7,2.967c-2.505,3.35 -4.975,6.708 -7.484,10.062c-1.975,-0.037 -3.954,-0.354 -5.862,-0.883c-1.834,-0.459 -3.6,-1.096 -5.367,-1.804c-1.729,-0.667 -3.387,-1.442 -5.012,-2.325c3.637,-4.242 5.933,-8.863 6.5,-13.525c5.541,-7.98 15.745,-11.938 25.1,-8.225c9.675,3.845 15.291,13.733 18.608,23.054c4.733,13.454 5.683,27.962 11.442,41.096c3.916,8.9 11.12,18.716 22.133,15.641c4.696,-1.304 8.3,-4.446 10.417,-8.4c-1.267,3.213 -3.638,6.071 -6.605,7.804c-5.291,3.142 -11.933,3.705 -17.791,2.15c-12.359,-3.283 -16.879,-15.075 -19.313,-26.375c-0.496,-2.187 -3.921,-1.266 -3.425,0.955c2.65,12.037 8.825,23.62 19.279,28c0.034,0.07 0.034,0.141 0.067,0.208c4.025,7.275 9.958,13.846 18.396,15.75c3.779,0.85 8.087,0.775 11.687,-0.742c-5.933,9.571 -19.7,10.1 -30.291,6.884c-0.146,-0.034 -0.321,-0.034 -0.463,-0.034c-3.104,-9.179 -6.987,-18.075 -11.721,-26.621c-7.662,-13.841 -17.687,-26.975 -31.245,-35.45c-14.655,-9.141 -32.063,-11.225 -48.905,-12.57c-2.291,-0.209 -2.258,3.32 0,3.533c17.692,1.412 35.838,3.775 50.634,14.442c12.991,9.354 22.208,23.158 29.304,37.245c15.042,29.834 20.304,63.63 16.137,96.642c-1.979,0.067 -3.916,0.458 -5.616,1.375c5.121,-25.562 -0.246,-62 -22.984,-77.467c-13.808,-9.354 -27.012,-4.908 -41.45,0.421c-12.57,4.629 -26.129,8.584 -39.195,6.779c-2.15,-0.279 -4.271,-0.704 -6.388,-1.375c-2.121,0.671 -4.271,1.096 -6.429,1.375c-13.063,1.805 -26.583,-2.15 -39.154,-6.779c-14.475,-5.329 -27.684,-9.775 -41.484,-0.421c-22.737,15.467 -28.075,51.905 -22.987,77.467c-1.696,-0.917 -3.6,-1.308 -5.617,-1.375c-4.166,-33.012 1.096,-66.808 16.138,-96.642c7.1,-14.087 16.346,-27.891 29.308,-37.245c14.788,-10.667 32.942,-13.03 50.629,-14.442" style="fill:#c4834d;fill-rule:nonzero;"/><path d="M350.039,210.962c-2.688,3.954 -7.379,5.858 -12.642,4.87c1.658,-21.816 -0.779,-43.85 -7.308,-64.679c1.341,0.35 2.716,0.596 4.096,0.809c0.07,0.245 0.212,0.458 0.462,0.637c7.554,6.779 12.179,16.488 11.579,26.763c-0.529,8.612 -6.854,16.237 -6.533,24.75c0.283,7.1 5.65,8.895 10.346,6.85" style="fill:#c4834d;fill-rule:nonzero;"/><path d="M118.276,119.446c1.521,-8.438 1.838,-17.267 5.617,-25.104c4.446,-9.146 15.821,-16.7 24.787,-9.075c-13.066,8.262 -22.85,20.833 -30.404,34.179" style="fill:#c4834d;fill-rule:nonzero;"/><path d="M100.942,162.98c0.213,-0.075 0.354,-0.179 0.492,-0.283c-4.8,20.229 -5.896,41.341 -3.246,62.07c-0.213,0.038 -0.425,0.105 -0.671,0.175c-2.192,-5.116 -6.004,-9.216 -9.817,-13.308c-3.85,-4.062 -7.766,-8.158 -10.237,-13.312c-5.9,-12.217 -4.096,-28.284 9.108,-34.6c4.625,0.95 9.534,0.808 14.371,-0.742" style="fill:#c4834d;fill-rule:nonzero;"/><path d="M108.991,232.605c0.987,2.046 4.062,0.25 3.071,-1.8c-0.242,-0.496 -0.529,-0.954 -0.809,-1.379c0.175,-0.354 0.28,-0.738 0.175,-1.234c-6.5,-26.408 1.38,-85.304 39.684,-81.879c14.904,1.342 28.604,10.342 43.537,12.604c7.767,1.205 15.429,0.992 22.704,-1.025c7.271,2.017 14.934,2.23 22.667,1.025c14.933,-2.262 28.633,-11.262 43.538,-12.604c38.304,-3.425 46.179,55.471 39.683,81.879c-0.104,0.496 -0,0.88 0.175,1.234c-0.279,0.425 -0.567,0.883 -0.808,1.379c-0.992,2.05 2.083,3.846 3.07,1.8c5.684,-11.754 18.496,-0.954 21.43,5.896c2.258,5.333 2.541,11.262 1.308,16.879c-1.275,5.721 -4.242,11.087 -8.371,15.217c-6,6.004 -21.008,10.345 -23.158,-1.413c-0.071,-0.421 -0.288,-0.671 -0.5,-0.883c-0.596,-1.025 -2.292,-1.484 -3.104,-0.142c-6.18,9.817 -12.038,20.021 -18.642,29.592c-3.708,5.366 -7.908,9.533 -12.675,12.887c-0.671,0.034 -1.308,0.384 -1.554,0.988c-4.413,2.891 -9.321,5.187 -14.792,7.096c-2.933,1.058 -6.358,2.012 -9.887,3.07c-0.425,0 -0.817,0.109 -1.167,0.355c-11.863,3.566 -24.788,8.404 -26.375,20.866c-0.85,6.709 -0.246,10.871 6.425,12.675c9.604,2.575 19.633,0.317 29.342,0.038c11.512,-0.392 20.054,2.787 26.091,10.237c-22.312,12.288 -47.1,19.242 -72.591,20.125c-12.746,0.425 -25.596,-0.671 -38.063,-3.316c-12.675,-2.684 -26.229,-6.5 -34.533,-17.125c6.041,-7.205 14.479,-10.313 25.85,-9.921c9.708,0.279 19.737,2.537 29.337,-0.038c6.675,-1.804 7.309,-5.966 6.425,-12.675c-2.112,-16.629 -24.396,-19.666 -37.425,-24.291c-12.179,-4.271 -21.571,-10.205 -28.987,-20.971c-5.225,-7.592 -9.988,-15.575 -14.863,-23.446c0.179,-0.883 -0.425,-1.625 -1.2,-1.908c-0.85,-1.413 -1.729,-2.825 -2.612,-4.238c-0.817,-1.342 -2.509,-0.883 -3.075,0.142c-0.246,0.212 -0.459,0.462 -0.529,0.883c-2.15,11.758 -17.159,7.417 -23.159,1.413c-4.133,-4.13 -7.096,-9.496 -8.333,-15.217c-1.275,-5.617 -0.992,-11.546 1.267,-16.879c2.933,-6.85 15.75,-17.65 21.433,-5.896" style="fill:#ffca9e;fill-rule:nonzero;"/><path d="M326.312,316.357c-2.862,1.517 -6.745,-0.037 -8.758,-2.437c-1.658,-2.013 -2.437,-4.658 -2.612,-7.275c-0.105,-1.233 -0.105,-2.575 -0.955,-3.496c-2.47,-2.679 -3.916,2.929 -4.129,4.271c-0.491,3.287 1.413,5.017 1.621,7.771c0.321,3.916 1.346,7.871 2.546,11.933c3.175,10.983 3.637,21.892 -4.979,30.646c-3.142,3.217 -10.521,5.579 -11.584,10.558c-0.104,0.388 -0.104,0.775 -0.137,1.167c-2.05,-3.779 -4.483,-7.171 -7.45,-9.921c-1.767,-1.658 -3.779,-2.933 -5.863,-3.954c-0.07,-0.458 -0.32,-0.883 -0.812,-1.2c-10.521,-6.25 -3.108,-18.254 -0.246,-26.308c1.767,-4.975 2.579,-9.496 1.375,-14.405c13.525,-9.57 21.646,-26.554 30.088,-40.641c2.783,6.604 10.2,8.687 17.191,6.746c-4.625,8.3 -12.533,16.983 -12.325,26.233c0.109,4.696 2.65,8.654 7.029,10.312" style="fill:#c4834d;fill-rule:nonzero;"/><path d="M276.528,353.076c-2.296,-0.458 -4.625,-0.779 -6.958,-0.883c-2.825,-0.142 -5.93,0.142 -9.18,0.492c-0.033,-0.492 -0.279,-0.95 -0.779,-1.267c-9.316,-5.896 -6.071,-17.408 -2.891,-25.988c8.229,-2.754 16.737,-5.229 24.291,-9.604c1.096,11.825 -11.512,27.084 -4.483,37.25" style="fill:#c4834d;fill-rule:nonzero;"/><path d="M256.118,353.218c-7.271,0.884 -14.758,1.654 -20.55,-0.954c-10.658,-4.767 0.108,-18.075 6.462,-21.221c3.392,-1.658 6.921,-2.966 10.488,-4.2c-3.038,9.179 -4.483,19.842 3.6,26.375" style="fill:#c4834d;fill-rule:nonzero;"/><path d="M146.84,321.793c-7.45,-13.279 -28.845,-26.271 -23.37,-43.254c8.012,13.875 16.345,29.167 29.937,37.146c0.921,0.529 1.908,0.987 2.863,1.446c-0,0.391 0.104,0.775 0.42,1.096c8.23,9.108 11.725,20.975 9.68,33.083c-0.071,0.317 -0.038,0.604 0.033,0.846c-0.425,-0 -0.883,-0 -1.308,0.037c-5.4,0.279 -10.805,1.375 -15.463,3.917c3.425,-11.329 3.142,-23.725 -2.792,-34.317" style="fill:#c4834d;fill-rule:nonzero;"/><path d="M162.624,320.064c5.088,2.046 10.379,3.708 15.571,5.438c4.871,1.62 9.817,3.283 14.442,5.541c6.358,3.146 17.125,16.454 6.462,21.221c-8.229,3.671 -19.775,0.638 -29.342,0c0.421,-2.579 0.671,-5.121 0.671,-7.629c0,-8.858 -2.683,-17.3 -7.804,-24.571" style="fill:#c4834d;fill-rule:nonzero;"/><path d="M307.208,406.25c-1.096,-8.933 -2.825,-19.104 -6.071,-28.179c1.413,-0.771 2.4,-1.796 3.459,-3.6c0.671,-1.125 -0.175,-2.717 -1.517,-2.683c-0.637,-3.742 0.458,-6.18 3.35,-7.342c0.817,-0.529 1.629,-1.096 2.371,-1.692c1.975,-1.525 3.671,-3.291 5.187,-5.262c2.934,-3.888 4.875,-8.409 5.65,-13.209c1.446,-8.787 -2.612,-17.158 -4.133,-25.562c5.863,3.458 12.642,1.692 17.338,-3.108c1.166,-1.234 -0,-3.53 -1.73,-2.963c-7.2,-1.767 -9.745,-5.333 -7.591,-10.7c0.566,-1.271 1.133,-2.575 1.658,-3.85c1.379,-2.683 3.113,-5.225 4.696,-7.8c2.508,-4.062 4.771,-8.158 6.604,-12.537c8.546,-4.834 14.338,-14.367 15.783,-23.863c1.38,-8.937 -0.741,-19.458 -7.983,-25.462c-2.221,-1.834 -4.975,-3.105 -7.8,-3.671c0.246,-1.834 0.388,-3.638 0.567,-5.471c9.816,1.587 17.508,-4.308 18.679,-14.338c0.208,-1.762 -2.471,-2.329 -3.288,-0.879c-8.333,3.071 -11.116,1.409 -8.366,-4.983c0.425,-1.338 0.916,-2.679 1.483,-3.988c0.988,-2.575 2.154,-5.116 2.929,-7.804c1.309,-4.621 1.625,-9.458 0.992,-14.229c-1.058,-7.904 -4.554,-14.896 -9.921,-20.579c11.683,0.317 23.158,-4.346 25.808,-17.408c0.388,-1.909 -2.187,-3.146 -3.212,-1.342c-3.746,6.392 -13.492,4.904 -18.925,1.8c-3.746,-2.154 -6.571,-5.371 -8.9,-8.896c3.071,0.525 6.429,0.492 10.062,-0.212c7.767,-1.521 14.796,-6.321 16.809,-14.23c1.308,-5.087 2.612,-14.02 -4.025,-15.395c-0.917,-0.213 -1.592,0.283 -1.946,0.916c-0.35,0.392 -0.558,0.921 -0.317,1.592c4.663,12.746 -10.591,25.312 -21.008,14.475c-5.608,-5.863 -8.117,-14.617 -10.129,-22.242c-3.179,-11.937 -4.663,-24.542 -10.238,-35.737c-4.558,-9.142 -12.325,-17.967 -22.954,-19.384c-8.087,-1.095 -15.817,2.084 -21.221,7.738c-0.846,-4.417 -3.458,-8.688 -8.258,-12.433c-5.971,-4.588 -13.529,-6.138 -20.833,-6.917c-11.055,-1.2 -22.35,-1.942 -33.475,-2.333c-16.946,-0.601 -35.834,1.587 -48.688,13.841c-5.4,5.154 -9.496,11.829 -10.908,19.246c-0.704,3.708 -0.6,7.413 -0.146,11.121c-15.429,-7.171 -34.138,-4.663 -46.004,8.333c-5.684,6.213 -9.388,14.121 -10.346,22.488c-0.563,5.158 0.075,10.208 1.062,15.287c0.6,3.004 1.8,6.146 2.046,9.179c1.342,4.275 -0.279,8.159 -4.908,11.692c-6.708,0.742 -9.742,-3.321 -9.179,-12.25c1.587,-1.412 -0.496,-3.637 -2.15,-2.687c-0.213,-0.071 -0.463,-0.071 -0.746,-0.038c-13.308,2.158 -17.267,17.129 -11.717,28.104c3.667,7.275 9.738,12.788 16.804,15.538c-8.37,5.583 -12.433,15.887 -11.158,25.987c0.808,6.5 3.638,12.638 7.308,18.009c4.767,6.954 12.534,12.145 16.1,19.737c-1.379,0.633 -2.65,1.413 -3.779,2.363c-7.233,6.004 -9.354,16.525 -7.979,25.462c1.658,10.592 8.579,21.288 18.817,25.35c0.816,0.317 1.591,0.525 2.404,0.738c-8.438,10.879 -11.721,22.775 -5.4,36.083c3.525,7.454 9.142,13.558 14.687,19.529c3.775,4.063 8.05,8.083 11.05,12.746c4.2,6.496 6.709,21.504 -5.9,20.725c-1.125,-0.071 -2.008,1.162 -1.691,2.221c2.333,7.383 9.354,10.983 16.383,9.112c-2.967,9.075 -4.483,18.992 -5.542,27.575c-72.912,-33.508 -123.687,-107.229 -123.687,-192.604c-0,-116.833 95.054,-211.846 211.85,-211.846c116.833,0 211.846,95.013 211.846,211.846c-0,83.925 -49.042,156.625 -120.013,190.875" style="fill:#8ba8aa;fill-rule:nonzero;"/><path d="M241.457,271.797c-0.458,-4.475 -7.529,-4.52 -7.062,0c1.708,16.671 -26.738,18.605 -33.346,6.267c-2.15,-4.008 -8.246,-0.45 -6.1,3.558c9.854,18.392 48.946,13.992 46.508,-9.825" style="fill-rule:nonzero;"/><path d="M141.73,228.556c-0.721,3.659 -0.221,8.125 1.771,11.213c2.187,3.396 5.441,6.383 9.496,7.304c4.304,0.983 8.283,0.417 12.245,-1.6l1.171,-0.6c3.429,-1.746 6.304,-5.863 7.3,-9.492c1.05,-3.804 0.571,-8.871 -1.6,-12.246c-2.187,-3.391 -5.446,-6.379 -9.496,-7.304c-4.308,-0.979 -8.287,-0.412 -12.245,1.604l-1.171,0.6c-1.709,0.871 -3.279,2.33 -4.55,4.021c-1.488,-0.762 -2.784,-1.85 -3.734,-3.387c-2.391,-3.859 -8.5,-0.317 -6.1,3.562c1.68,2.717 4.088,4.925 6.913,6.325" style="fill-rule:nonzero;"/><path d="M263.853,238.314c3.688,1.946 8.154,2.921 12.242,1.6c3.812,-1.234 7.625,-3.617 9.5,-7.3c0.2,-0.392 0.392,-0.784 0.592,-1.171c1.941,-3.808 2.762,-8.033 1.604,-12.246c-0.038,-0.137 -0.096,-0.279 -0.138,-0.421c2.492,-1.658 4.609,-3.871 6.129,-6.512c2.271,-3.946 -3.829,-7.509 -6.1,-3.563c-0.929,1.617 -2.129,2.934 -3.55,3.942c-1.079,-1.208 -2.312,-2.238 -3.645,-2.942c-3.688,-1.946 -8.155,-2.925 -12.238,-1.6c-3.812,1.234 -7.621,3.617 -9.5,7.3l-0.596,1.171c-1.937,3.808 -2.758,8.033 -1.6,12.246c1.013,3.683 3.863,7.675 7.3,9.496" style="fill-rule:nonzero;"/><path d="M307.208,406.25c-1.096,-8.933 -2.825,-19.104 -6.071,-28.179c1.413,-0.771 2.4,-1.796 3.459,-3.6c0.671,-1.125 -0.175,-2.717 -1.517,-2.683c-0.637,-3.742 0.458,-6.18 3.35,-7.342c0.817,-0.529 1.629,-1.096 2.371,-1.692c1.975,-1.525 3.671,-3.291 5.187,-5.262c2.934,-3.888 4.875,-8.409 5.65,-13.209c1.446,-8.787 -2.612,-17.158 -4.133,-25.562c5.863,3.458 12.642,1.692 17.338,-3.108c1.166,-1.234 -0,-3.53 -1.73,-2.963c-7.2,-1.767 -9.745,-5.333 -7.591,-10.7c0.566,-1.271 1.133,-2.575 1.658,-3.85c1.379,-2.683 3.113,-5.225 4.696,-7.8c2.508,-4.062 4.771,-8.158 6.604,-12.537c8.546,-4.834 14.338,-14.367 15.783,-23.863c1.38,-8.937 -0.741,-19.458 -7.983,-25.462c-2.221,-1.834 -4.975,-3.105 -7.8,-3.671c0.246,-1.834 0.388,-3.638 0.567,-5.471c9.816,1.587 17.508,-4.308 18.679,-14.338c0.208,-1.762 -2.471,-2.329 -3.288,-0.879c-8.333,3.071 -11.116,1.409 -8.366,-4.983c0.425,-1.338 0.916,-2.679 1.483,-3.988c0.988,-2.575 2.154,-5.116 2.929,-7.804c1.309,-4.621 1.625,-9.458 0.992,-14.229c-1.058,-7.904 -4.554,-14.896 -9.921,-20.579c11.683,0.317 23.158,-4.346 25.808,-17.408c0.388,-1.909 -2.187,-3.146 -3.212,-1.342c-3.746,6.392 -13.492,4.904 -18.925,1.8c-3.746,-2.154 -6.571,-5.371 -8.9,-8.896c3.071,0.525 6.429,0.492 10.062,-0.212c7.767,-1.521 14.796,-6.321 16.809,-14.23c1.308,-5.087 2.612,-14.02 -4.025,-15.395c-0.917,-0.213 -1.592,0.283 -1.946,0.916c-0.35,0.392 -0.558,0.921 -0.317,1.592c4.663,12.746 -10.591,25.312 -21.008,14.475c-5.608,-5.863 -8.117,-14.617 -10.129,-22.242c-3.179,-11.937 -4.663,-24.541 -10.238,-35.737c-4.558,-9.142 -12.325,-17.967 -22.954,-19.384c-8.087,-1.095 -15.817,2.084 -21.221,7.738c-0.846,-4.417 -3.458,-8.688 -8.258,-12.433c-5.971,-4.588 -13.529,-6.138 -20.833,-6.917c-11.055,-1.2 -22.35,-1.942 -33.475,-2.333c-16.946,-0.6 -35.834,1.587 -48.688,13.841c-5.4,5.154 -9.496,11.829 -10.908,19.246c-0.704,3.708 -0.6,7.413 -0.146,11.121c-15.429,-7.171 -34.138,-4.663 -46.004,8.333c-5.684,6.213 -9.388,14.121 -10.346,22.488c-0.563,5.158 0.075,10.208 1.062,15.287c0.6,3.004 1.8,6.146 2.046,9.179c1.342,4.275 -0.279,8.159 -4.908,11.692c-6.708,0.742 -9.742,-3.321 -9.179,-12.25c1.587,-1.412 -0.496,-3.637 -2.15,-2.687c-0.213,-0.071 -0.463,-0.071 -0.746,-0.038c-13.308,2.158 -17.267,17.129 -11.717,28.104c3.667,7.275 9.738,12.788 16.804,15.538c-8.37,5.583 -12.433,15.887 -11.158,25.987c0.808,6.5 3.638,12.638 7.308,18.009c4.767,6.954 12.534,12.145 16.1,19.737c-1.379,0.633 -2.65,1.413 -3.779,2.363c-7.233,6.004 -9.354,16.525 -7.979,25.462c1.658,10.592 8.579,21.288 18.817,25.35c0.816,0.317 1.591,0.525 2.404,0.738c-8.438,10.879 -11.721,22.775 -5.4,36.083c3.525,7.454 9.142,13.558 14.687,19.529c3.775,4.063 8.05,8.083 11.05,12.746c4.2,6.496 6.709,21.504 -5.9,20.725c-1.125,-0.071 -2.008,1.162 -1.691,2.221c2.333,7.383 9.354,10.983 16.383,9.112c-2.967,9.075 -4.483,18.992 -5.542,27.575c-72.912,-33.508 -123.687,-107.229 -123.687,-192.604c-0,-116.833 95.054,-211.846 211.85,-211.846c116.833,0 211.846,95.013 211.846,211.846c-0,83.925 -49.042,156.625 -120.013,190.875m-144.583,-86.187c5.087,2.05 10.379,3.708 15.571,5.437c4.871,1.625 9.816,3.283 14.441,5.542c6.355,3.146 17.121,16.454 6.463,21.221c-8.229,3.675 -19.775,0.637 -29.342,-0c0.421,-2.575 0.671,-5.121 0.671,-7.625c0,-8.863 -2.687,-17.3 -7.804,-24.575m-15.783,1.729c-7.45,-13.275 -28.846,-26.267 -23.375,-43.25c8.016,13.875 16.35,29.166 29.941,37.146c0.921,0.529 1.909,0.987 2.859,1.441c-0,0.392 0.108,0.779 0.425,1.096c8.229,9.113 11.72,20.975 9.675,33.083c-0.067,0.321 -0.038,0.605 0.037,0.85c-0.429,0 -0.883,0 -1.308,0.034c-5.4,0.283 -10.804,1.375 -15.463,3.921c3.425,-11.334 3.142,-23.73 -2.791,-34.321m109.275,31.425c-7.271,0.883 -14.759,1.658 -20.546,-0.954c-10.663,-4.767 0.104,-18.075 6.458,-21.221c3.392,-1.654 6.925,-2.967 10.488,-4.2c-3.034,9.183 -4.484,19.841 3.6,26.375m20.412,-0.142c-2.296,-0.458 -4.629,-0.775 -6.958,-0.883c-2.825,-0.142 -5.929,0.146 -9.179,0.496c-0.034,-0.496 -0.284,-0.955 -0.78,-1.271c-9.316,-5.896 -6.07,-17.409 -2.891,-25.984c8.225,-2.758 16.733,-5.229 24.291,-9.608c1.096,11.829 -11.512,27.083 -4.483,37.25m49.783,-36.717c-2.862,1.517 -6.745,-0.037 -8.758,-2.437c-1.658,-2.017 -2.437,-4.658 -2.612,-7.275c-0.105,-1.233 -0.105,-2.575 -0.955,-3.496c-2.47,-2.683 -3.916,2.929 -4.129,4.271c-0.491,3.283 1.413,5.012 1.621,7.771c0.321,3.916 1.346,7.871 2.546,11.933c3.175,10.983 3.637,21.892 -4.979,30.646c-3.142,3.217 -10.521,5.579 -11.584,10.554c-0.104,0.392 -0.104,0.779 -0.137,1.171c-2.05,-3.783 -4.483,-7.171 -7.45,-9.921c-1.767,-1.662 -3.779,-2.933 -5.863,-3.954c-0.07,-0.463 -0.32,-0.883 -0.812,-1.2c-10.521,-6.25 -3.108,-18.254 -0.246,-26.308c1.767,-4.975 2.579,-9.496 1.375,-14.405c13.525,-9.57 21.646,-26.554 30.083,-40.641c2.788,6.604 10.205,8.687 17.192,6.746c-4.621,8.295 -12.529,16.979 -12.321,26.233c0.109,4.696 2.65,8.65 7.029,10.312m-217.32,-83.754c0.987,2.046 4.058,0.25 3.07,-1.796c-0.245,-0.5 -0.529,-0.958 -0.808,-1.383c0.175,-0.35 0.279,-0.737 0.175,-1.229c-6.5,-26.413 1.379,-85.308 39.683,-81.883c14.9,1.341 28.6,10.345 43.534,12.608c7.771,1.2 15.429,0.987 22.708,-1.025c7.271,2.012 14.933,2.225 22.667,1.025c14.933,-2.263 28.633,-11.267 43.533,-12.608c38.308,-3.425 46.179,55.47 39.688,81.883c-0.109,0.492 -0,0.879 0.175,1.229c-0.284,0.425 -0.567,0.883 -0.813,1.383c-0.987,2.046 2.083,3.842 3.075,1.796c5.683,-11.754 18.496,-0.95 21.429,5.896c2.259,5.338 2.542,11.263 1.309,16.879c-1.275,5.721 -4.242,11.088 -8.371,15.217c-6.004,6.004 -21.009,10.346 -23.163,-1.413c-0.066,-0.42 -0.283,-0.67 -0.496,-0.879c-0.595,-1.029 -2.295,-1.487 -3.104,-0.146c-6.179,9.817 -12.041,20.021 -18.646,29.592c-3.704,5.367 -7.904,9.533 -12.675,12.888c-0.67,0.037 -1.304,0.387 -1.554,0.987c-4.408,2.892 -9.316,5.188 -14.787,7.096c-2.938,1.058 -6.359,2.017 -9.888,3.071c-0.425,-0 -0.816,0.108 -1.166,0.354c-11.863,3.567 -24.788,8.404 -26.375,20.867c-0.85,6.712 -0.246,10.875 6.425,12.675c9.604,2.575 19.633,0.316 29.341,0.037c11.513,-0.392 20.054,2.788 26.092,10.238c-22.317,12.287 -47.1,19.241 -72.592,20.125c-12.75,0.425 -25.6,-0.671 -38.062,-3.317c-12.675,-2.683 -26.234,-6.496 -34.534,-17.125c6.038,-7.204 14.48,-10.313 25.846,-9.921c9.709,0.279 19.742,2.538 29.342,-0.037c6.675,-1.8 7.308,-5.963 6.425,-12.675c-2.117,-16.63 -24.396,-19.663 -37.425,-24.292c-12.179,-4.271 -21.571,-10.204 -28.988,-20.971c-5.225,-7.592 -9.991,-15.571 -14.866,-23.446c0.179,-0.883 -0.421,-1.625 -1.2,-1.908c-0.846,-1.413 -1.729,-2.825 -2.613,-4.238c-0.812,-1.341 -2.504,-0.883 -3.071,0.146c-0.25,0.209 -0.458,0.459 -0.529,0.879c-2.154,11.759 -17.158,7.417 -23.162,1.413c-4.134,-4.129 -7.096,-9.496 -8.334,-15.217c-1.27,-5.616 -0.987,-11.541 1.271,-16.879c2.929,-6.846 15.746,-17.65 21.434,-5.896m-8.05,-69.625c0.212,-0.071 0.354,-0.179 0.491,-0.283c-4.8,20.229 -5.896,41.346 -3.246,62.071c-0.212,0.037 -0.425,0.108 -0.67,0.175c-2.192,-5.117 -6.005,-9.217 -9.817,-13.309c-3.846,-4.062 -7.767,-8.158 -10.238,-13.308c-5.9,-12.221 -4.095,-28.283 9.109,-34.604c4.625,0.95 9.533,0.808 14.371,-0.742m17.333,-43.533c1.521,-8.438 1.842,-17.267 5.617,-25.104c4.445,-9.146 15.82,-16.7 24.787,-9.075c-13.067,8.262 -22.846,20.833 -30.404,34.179m231.762,91.517c-2.683,3.954 -7.379,5.858 -12.641,4.87c1.662,-21.82 -0.775,-43.854 -7.309,-64.683c1.342,0.354 2.721,0.6 4.1,0.813c0.067,0.245 0.209,0.458 0.459,0.637c7.554,6.779 12.179,16.488 11.579,26.763c-0.529,8.612 -6.85,16.237 -6.533,24.75c0.283,7.095 5.65,8.895 10.345,6.85m-152.283,-134.838c2.258,-0.212 2.296,-3.746 0,-3.533c-3.033,0.246 -6.075,0.529 -9.108,0.846c-6.425,-12.217 6.529,-20.796 16.808,-23.092c7.167,-1.625 14.513,-0.567 21.325,2.05c1.763,0.667 3.496,1.446 5.225,2.296c-0.317,-0 -0.671,-0 -0.987,0.071c-3.992,0.491 -8.159,2.82 -10.909,5.683c-3.004,3.108 -3.533,8.121 -0.991,10.908c-4.134,-0.137 -8.3,-0.071 -12.5,0.284c-2.225,0.175 -2.259,3.708 -0,3.529c8.016,-0.634 15.925,-0.425 23.87,0.746c2.221,0.316 3.18,-3.075 0.917,-3.43c-2.083,-0.283 -4.2,-0.525 -6.283,-0.737c-0.038,-0.883 -0.604,-1.804 -1.696,-1.871c-4.342,-0.392 -2.258,-5.617 -0.388,-7.383c1.125,-1.096 2.575,-1.979 3.955,-2.717c5.012,-2.612 9.495,-1.133 14.333,1.267c0.637,0.325 1.233,0.216 1.696,-0.067c5.258,3.321 10.416,6.817 15.85,9.708c8.125,4.38 18.608,8.9 28.075,6.671c7.587,-1.762 12.741,-8.4 10.166,-16.133c-0.495,-1.446 -2.187,-1.483 -3.004,-0.671c-1.091,-3 -2.466,-4.233 -5.646,-5.579c-1.804,-0.738 -2.687,1.804 -1.695,2.967c-2.509,3.354 -4.98,6.712 -7.484,10.062c-1.979,-0.033 -3.954,-0.354 -5.862,-0.883c-1.838,-0.459 -3.604,-1.092 -5.367,-1.8c-1.733,-0.667 -3.392,-1.446 -5.017,-2.329c3.638,-4.238 5.934,-8.863 6.5,-13.525c5.542,-7.98 15.746,-11.934 25.1,-8.225c9.68,3.845 15.292,13.733 18.609,23.058c4.733,13.45 5.683,27.962 11.441,41.096c3.921,8.9 11.121,18.712 22.138,15.641c4.696,-1.308 8.296,-4.45 10.417,-8.404c-1.271,3.217 -3.638,6.071 -6.605,7.804c-5.295,3.142 -11.933,3.709 -17.795,2.155c-12.355,-3.284 -16.875,-15.075 -19.309,-26.375c-0.5,-2.192 -3.925,-1.271 -3.429,0.95c2.65,12.041 8.825,23.62 19.279,27.999c0.034,0.076 0.034,0.142 0.071,0.213c4.025,7.275 9.958,13.842 18.396,15.746c3.775,0.85 8.083,0.779 11.687,-0.742c-5.933,9.571 -19.704,10.1 -30.295,6.888c-0.142,-0.034 -0.317,-0.034 -0.459,-0.034c-3.104,-9.179 -6.991,-18.079 -11.725,-26.625c-7.662,-13.837 -17.687,-26.97 -31.246,-35.45c-14.65,-9.141 -32.058,-11.225 -48.9,-12.566c-2.295,-0.213 -2.258,3.32 0,3.533c17.688,1.408 35.834,3.775 50.63,14.438c12.991,9.354 22.208,23.162 29.304,37.25c15.046,29.833 20.308,63.625 16.141,96.637c-1.979,0.071 -3.92,0.463 -5.616,1.375c5.116,-25.562 -0.25,-62 -22.988,-77.467c-13.804,-9.354 -27.008,-4.904 -41.45,0.425c-12.571,4.625 -26.125,8.584 -39.191,6.779c-2.155,-0.279 -4.275,-0.704 -6.388,-1.375c-2.121,0.671 -4.275,1.096 -6.429,1.375c-13.063,1.805 -26.583,-2.154 -39.158,-6.779c-14.471,-5.329 -27.68,-9.779 -41.484,-0.425c-22.737,15.467 -28.071,51.905 -22.987,77.467c-1.696,-0.912 -3.6,-1.304 -5.613,-1.375c-4.166,-33.012 1.096,-66.804 16.138,-96.637c7.096,-14.088 16.346,-27.896 29.304,-37.25c14.792,-10.663 32.942,-13.03 50.629,-14.438m-12.854,-2.262c-1.517,0.179 -3.033,0.387 -4.55,0.633c-0.038,-0.033 -0.038,-0.071 -0.071,-0.104c-17.233,-16.913 0.388,-40.746 20.829,-41.592c17.513,-0.742 31.146,11.933 43.959,22.104c9.358,7.45 20.441,15.85 32.908,16.525c6.108,0.35 12.467,-3.321 13.558,-8.371c0.671,0.567 1.729,0.496 2.367,-0.07c4.446,15.712 -19.633,10.733 -26.763,7.766c-6.112,-2.541 -11.725,-6.075 -17.304,-9.566c-9.071,-5.755 -18.358,-12.005 -29.021,-14.263c-15.5,-3.283 -45.016,6.846 -35.912,26.938m80.683,-22.317c-0.921,3.321 -2.9,6.604 -5.65,9.642c-0.671,-0.426 -1.379,-0.78 -2.083,-1.238c-6.988,-4.517 -13.238,-10.029 -19.775,-15.146c-10.063,-7.837 -21.325,-15.216 -34.492,-15.571c-11.829,-0.283 -24.579,5.121 -30.296,15.925c-5.191,9.78 -4.058,21.713 3.038,30.046c-7.946,1.446 -15.679,3.704 -22.879,7.379c0.033,-0.179 0.066,-0.354 0.033,-0.562c-2.504,-15.788 -6.25,-29.625 6.217,-42.267c10.521,-10.662 26.087,-13.662 40.496,-13.837c12.783,-0.109 25.879,1.021 38.591,2.258c7.734,0.775 15.996,2.258 21.854,7.804c4.13,3.95 5.755,8.117 5.513,12.283c-0.288,0.43 -0.567,0.813 -0.817,1.238c-0.458,0.813 -0.212,1.554 0.25,2.046m-171.487,53.067c-0.5,-7.871 1.408,-15.567 5.683,-22.238c10.483,-16.317 31.388,-20.342 47.979,-11.375c0.638,3.533 1.413,7.063 2.05,10.558c-13.771,-10.379 -28.704,6.321 -32.096,19.984c-3.425,13.808 -2.366,29.095 -13.062,40.037c-6.25,6.396 -16.488,9.925 -24.929,5.617c-7.45,-3.779 -10.063,-12.779 -6.354,-19.875c0.104,0.066 0.212,0.137 0.316,0.208c2.084,9.709 24.046,15.434 24.963,1.588c0.491,-8.017 -4.025,-16.488 -4.55,-24.504m-20.375,42.691c7.2,6.846 18.783,6.496 27.008,1.8c2.4,-1.341 4.45,-3.037 6.321,-4.941c-1.942,5.366 -3.671,10.766 -5.083,16.312c-0.321,-0.708 -0.988,-1.237 -1.946,-0.921c-10.767,3.459 -20.688,-0.279 -27.854,-8.612c-5.967,-6.925 -8.263,-18.821 -2.121,-25.034c-3.6,6.992 -2.221,15.779 3.675,21.396m51.725,197.084c-6.529,-8.717 -15.363,-15.534 -21.221,-24.784c-8.792,-13.804 -6.708,-26.904 3.425,-39.012c0.033,-0.038 0.033,-0.075 0.071,-0.075c5.366,0.075 10.379,-2.296 12.533,-7.45c0.317,0.529 0.638,1.095 0.988,1.662c-5.013,11.225 0.779,22.667 8.37,31.529c6.284,7.375 13.45,13.838 16.771,23.234c3.496,9.921 2.084,20.654 -1.762,30.258c-4.592,4.342 -7.95,10.167 -10.417,16.629c-0.287,-0.037 -0.567,0.038 -0.817,0.142c-4.941,2.258 -10.2,0.246 -12.675,-4.058c4.38,-0.605 7.875,-3.43 9.709,-7.805c3.004,-7.1 -0.738,-14.583 -4.975,-20.27m89.929,82.833c-30.121,-0 -58.788,-6.317 -84.775,-17.725c1.45,-11.121 3.987,-22.134 7.979,-32.625c1.2,-3.175 2.575,-5.929 4.167,-8.329c15.325,18.391 46.5,21.079 68.741,21.146c28.25,0.108 56,-7.201 80.684,-20.83c1.479,2.329 2.821,4.979 3.954,8.013c0.067,0.179 0.104,0.354 0.175,0.533c0.037,0.388 0.142,0.742 0.354,1.021c3.421,9.533 5.788,19.387 7.167,29.412c-26.938,12.463 -56.884,19.384 -88.446,19.384m-0,-427.221c-118.742,-0 -215.375,96.6 -215.375,215.375c-0,87.175 52.108,162.454 126.787,196.313c1.096,0.495 2.192,0.987 3.284,1.445c26.162,11.334 55.008,17.621 85.304,17.621c31.704,0 61.825,-6.883 88.942,-19.241c1.129,-0.496 2.225,-1.026 3.35,-1.555c72.704,-34.637 123.083,-108.854 123.083,-194.583c-0,-118.775 -96.6,-215.375 -215.375,-215.375" style="fill-rule:nonzero;"/></svg>