<?xml version="1.0" encoding="UTF-8" standalone="no"?><!DOCTYPE svg PUBLIC "-//W3C//DTD SVG 1.1//EN" "http://www.w3.org/Graphics/SVG/1.1/DTD/svg11.dtd"><svg width="100%" height="100%" viewBox="0 0 431 431" version="1.1" xmlns="http://www.w3.org/2000/svg" xmlns:xlink="http://www.w3.org/1999/xlink" xml:space="preserve" xmlns:serif="http://www.serif.com/" style="fill-rule:evenodd;clip-rule:evenodd;stroke-linejoin:round;stroke-miterlimit:2;"><path d="M190.926,425.769c-1.758,-0.2 -3.521,-0.384 -5.263,-0.625c-0.204,-0.029 -0.404,-0.059 -0.608,-0.084c-1.875,-0.27 -3.729,-0.604 -5.583,-0.92c-1.334,-0.234 -2.684,-0.438 -4.004,-0.692c-0.871,-0.167 -1.725,-0.367 -2.588,-0.542c-7.362,-1.516 -14.587,-3.404 -21.65,-5.662c-1.417,-0.454 -2.837,-0.896 -4.246,-1.375c-0.225,-0.084 -0.446,-0.146 -0.671,-0.225c-3.6,-1.238 -7.166,-2.579 -10.695,-4.025c-0.721,-0.275 -1.438,-0.588 -2.159,-0.888c-2.521,-1.066 -5.025,-2.179 -7.504,-3.337c0,-0.013 0.008,-0.025 0.008,-0.038c-0.608,-9.316 -0.341,-18.579 1.242,-27.796c1.525,-8.879 3.213,-20.354 11.842,-25.112c6.016,-3.317 13.441,-3.638 20.083,-4.775c0.917,-0.158 1.821,-0.367 2.729,-0.538c-1.4,5.888 -4.296,15.084 -0.237,18.884c2.333,2.187 6.354,3.112 9.029,4.996c5.137,3.625 3.512,3.991 1.758,8.937c-0.829,2.321 -1.646,4.638 -2.441,6.967c-2.055,5.954 -3.146,9.458 1.975,13.675c3.275,2.691 7.566,3.837 11.037,6.246c6.013,4.166 9.738,10.341 11.529,17.283c-1.191,-0.125 -2.396,-0.217 -3.583,-0.354" style="fill:#3b3b3b;fill-rule:nonzero;"/><path d="M200.488,426.674c-0.429,-0.033 -0.854,-0.05 -1.283,-0.087c-0.321,-0.021 -0.63,-0.067 -0.95,-0.092c-1.621,-7.35 -5.134,-13.967 -11.005,-18.829c-2.916,-2.413 -6.12,-3.588 -9.27,-5.538c-7.825,-4.846 -5.513,-9.766 -3.155,-16.454c1.746,-4.967 4.95,-8.85 1.134,-12.933c-2.604,-2.788 -6.588,-3.767 -9.363,-6.125c-4.583,-3.896 -1.958,-12.596 -0.962,-18.225c3.383,-0.713 6.754,-1.492 10.096,-2.396c0.362,8.487 3.375,17.229 5.245,25.458c2.334,10.238 4.663,20.475 6.992,30.713c0.313,1.366 2.017,1.621 2.95,0.779c1.896,-1.704 3.825,-3.358 5.783,-4.979c0.575,3.687 1.867,7.237 2.746,10.879c1.434,5.912 2.388,11.896 3.009,17.942c-0.659,-0.034 -1.317,-0.067 -1.967,-0.113" style="fill:#b0b0b0;fill-rule:nonzero;"/><path d="M202.026,329.767c-2.083,-10.242 -16.716,-9.434 -24.396,-11.296c-28.2,-6.838 -53.808,-26.463 -64.291,-53.992c-5.384,-14.141 -7.184,-29.433 -7.425,-44.958c0.241,-0.463 0.321,-1.021 0.046,-1.608c-0.021,-0.046 -0.034,-0.096 -0.059,-0.138c-0.146,-18.2 1.725,-36.662 2.475,-53.967c13.271,7.942 34.375,8.921 48.379,6.788c8.9,-1.358 17.384,-4.558 25.563,-8.238c8.983,-4.037 18.754,-8.195 26.537,-14.341c11.605,-9.154 16.175,-25.65 19.105,-40.454c0.154,-0.184 0.279,-0.409 0.358,-0.684c0.087,-0.312 0.146,-0.621 0.229,-0.929c4.238,12.083 12.721,22.433 24.167,28.658c7.291,3.967 15.046,5.425 23.225,6.225c12.171,1.192 35.95,4.68 29.637,22.98c-0.212,0.608 -0.075,1.1 0.221,1.47c0.413,0.834 1.392,1.421 2.45,0.863c6.258,-3.304 7.883,-7.571 7.058,-11.963c3.35,3.125 5.788,6.992 7.159,11.305c0.796,16.82 2.529,34.666 2.387,52.287c-0.021,0.042 -0.037,0.092 -0.058,0.138c-0.279,0.587 -0.196,1.145 0.046,1.608c-0.242,15.525 -2.042,30.817 -7.429,44.958c-10.48,27.529 -36.092,47.154 -64.288,53.992c-7.679,1.862 -22.317,1.054 -24.396,11.296c-1.791,8.825 9.671,11.354 16.429,13.316c-9.658,12.321 -21.116,23.142 -29.32,36.538c-3.513,-6.35 -6.975,-12.742 -10.73,-18.95c-4.029,-6.663 -9.387,-12.588 -12.645,-19.671c5.579,-1.971 10.82,-5.058 9.566,-11.233" style="fill:#e38764;fill-rule:nonzero;"/><path d="M142.521,314.876c1.271,2.904 1.458,5.6 0.583,8.091c-2.604,-10.775 -13.004,-18.383 -19.283,-27.25c-7.558,-10.67 -12.742,-22.675 -15.588,-35.312c7.467,23.808 25.192,42.892 47.459,53.842c5.537,2.72 11.325,4.966 17.258,6.654c5.517,1.566 11.971,1.558 17.292,3.45c3.271,0.366 5.258,2.196 6.012,5.416c-3.1,0.955 -6.329,1.8 -6.6,-2.212c-0.071,-1.017 -1.096,-2.171 -2.237,-1.704c-4.159,1.696 -7.567,3.775 -10.871,6.604c-8.546,-9.333 -25.625,-7.204 -30.975,-19.363c-0.917,-2.083 -3.929,-0.279 -3.05,1.784" style="fill:#6c4234;fill-rule:nonzero;"/><path d="M92.057,181.085c1.296,5.65 2.483,11.446 3.867,17.187c-1.709,-0.741 -3.621,-0.65 -5.55,0.23c-1.909,-9.638 -3.071,-19.371 -3.171,-29.209c-0.092,-9.308 -0.146,-19.941 2.846,-29.041c1.179,2.833 2.487,5.591 3.996,8.191c-0.355,0.117 -0.684,0.35 -0.905,0.792c-5.183,10.292 -3.57,20.996 -1.083,31.85" style="fill:#6c4234;fill-rule:nonzero;"/><path d="M95.886,202.531c0.354,0.475 0.825,0.696 1.304,0.737c1.417,5.263 3.08,10.438 5.267,15.359c0.113,9.512 0.808,18.945 2.475,28.15c-10.342,-1.55 -14.45,-10.88 -17.162,-19.984c-1,-3.354 -1.8,-6.783 -1.9,-10.3c-0.146,-2.058 0.004,-4.108 0.441,-6.15c0.546,-5.133 3.742,-7.737 9.575,-7.812" style="fill:#e38764;fill-rule:nonzero;"/><path d="M104.903,162.772c-0.608,14.955 -2.029,30.555 -2.379,46.109c-2.384,-7.513 -3.884,-15.354 -5.696,-22.967c-2.692,-11.317 -6.146,-23.346 -0.867,-34.392c2.467,3.696 5.334,7.021 8.688,9.738c0.208,0.171 0.446,0.317 0.662,0.479c-0.221,0.271 -0.391,0.6 -0.408,1.033" style="fill:#6c4234;fill-rule:nonzero;"/><path d="M105.054,156.927c-5.988,-5.633 -10.146,-13.304 -13.142,-21.529c0.192,-0.779 -0.142,-1.475 -0.7,-1.892c-1.917,-5.65 -3.317,-11.504 -4.35,-17.133c11.508,24.825 39.679,43.908 67.367,37.608c30.487,-6.933 55.954,-30.333 59.575,-62.175c0.25,-2.254 -3.284,-2.237 -3.534,0c-3.329,29.317 -26.575,50.75 -54.237,58.092c-24.733,6.567 -50.208,-7.867 -62.904,-29.133c4.387,3.47 9.846,5.841 15.275,7.737c12.75,4.458 26.796,6.942 40.237,4.55c23.888,-4.254 40.904,-25.108 41.309,-49.2c0.037,-2.271 -3.492,-2.271 -3.534,0c-0.354,21.25 -14.762,40.354 -35.754,45.192c-11.192,2.583 -22.946,1.312 -33.921,-1.663c-10.754,-2.912 -24.916,-7.225 -28.321,-19.237c-0.237,-0.834 -0.875,-1.209 -1.545,-1.238c-0.155,-0.216 -0.355,-0.362 -0.567,-0.475c-0.275,-1.425 -0.4,-2.904 -0.171,-4.487c0.033,-0.229 0.079,-0.484 0.129,-0.746c0.038,0.158 0.054,0.312 0.096,0.471c3.246,11.933 21.221,14.333 31.142,15.704c25.046,3.471 48.496,-10.004 51.129,-36.542c0.225,-2.262 -3.308,-2.246 -3.529,0c-1.521,15.313 -12.084,28.538 -27.134,32.479c-8.966,2.346 -18.541,1.196 -27.441,-0.795c-2.9,-0.65 -5.859,-1.33 -8.675,-2.288c-1.204,-0.346 -2.371,-0.771 -3.517,-1.267c0.054,-0.104 0.129,-0.187 0.171,-0.312c3.75,-12.613 11.317,-22.988 20.421,-32.317c9.262,-9.483 19.421,-18.954 31.433,-24.771c22.738,-11.008 48.458,-9.933 73.1,-7.587c-3.133,1.025 -6.217,2.354 -9.221,4.142c-1.95,1.166 -0.175,4.216 1.784,3.05c27.779,-16.559 63.262,3.679 84.425,22.716c10.866,9.779 19.92,21.567 25.991,34.9c3.188,7.009 5.546,14.429 6.896,22.013c1.05,5.9 1.125,11.891 2.054,17.783c-0.8,0.429 -1.35,1.4 -0.829,2.442c0.496,0.975 0.896,1.966 1.254,2.958c0.038,0.313 0.067,0.625 0.104,0.938c0.05,0.466 0.267,0.816 0.542,1.087c2.696,9.771 -0.208,20.108 -2.537,29.913c-1.813,7.612 -3.313,15.454 -5.692,22.966c-0.238,-10.512 -0.958,-21.033 -1.592,-31.375c0.313,-0.2 0.563,-0.516 0.659,-1.008c4.9,-25.392 3.229,-48.292 -12.788,-69.446c-13.625,-17.996 -35.879,-36.721 -58.412,-41.4c-2.217,-0.462 -3.167,2.942 -0.942,3.404c21.35,4.434 42.262,21.942 55.492,38.779c13.204,16.809 16.887,34.871 15.12,54.609c-0.15,-0.675 -0.645,-1.088 -1.204,-1.263c-2.333,-5.141 -6.058,-9.6 -10.991,-12.871c-0.284,-0.187 -0.563,-0.254 -0.825,-0.27c-2.859,-4.575 -7.388,-8.855 -11.13,-11.821c-7.691,-6.1 -16.154,-11.1 -24.554,-16.134c-10.541,-6.316 -27,-13.42 -26.179,-27.895c0.125,-2.267 -3.404,-2.263 -3.533,-0c-0.863,15.22 14.196,22.695 25.433,29.45c8.104,4.875 47.933,26.933 37.15,38.85c1.863,-15.021 -16.437,-21.488 -29.254,-22.771c-13.171,-1.317 -24.833,-3.292 -35.075,-12.346c-8.288,-7.333 -13.596,-16.946 -15.688,-27.708c1.034,-15.184 -6.166,-29.346 -19.858,-37.671c-1.946,-1.184 -3.721,1.866 -1.783,3.046c12.012,7.304 18.433,19.383 18.141,32.579c-0.212,0.346 -0.333,0.754 -0.258,1.241c0.033,0.205 0.096,0.4 0.133,0.6c-0.02,0.055 -0.05,0.092 -0.062,0.155c-2.992,16.558 -6.754,38.591 -21.313,48.95c-12.587,8.954 -29.362,16.383 -44.354,19.712c-16.258,3.613 -42.7,2.704 -55.512,-9.35" style="fill:#6c4234;fill-rule:nonzero;"/><path d="M334.863,202.531c5.837,0.075 9.029,2.679 9.575,7.812c0.442,2.042 0.587,4.092 0.442,6.15c-0.096,3.517 -0.9,6.946 -1.9,10.3c-2.713,9.104 -6.817,18.434 -17.159,19.984c1.667,-9.205 2.359,-18.638 2.475,-28.15c2.188,-4.921 3.846,-10.096 5.263,-15.359c0.483,-0.041 0.954,-0.262 1.304,-0.737" style="fill:#e38764;fill-rule:nonzero;"/><path d="M285.18,313.094c-5.345,12.158 -22.429,10.029 -30.979,19.362c-3.3,-2.833 -6.708,-4.912 -10.866,-6.604c-1.138,-0.467 -2.167,0.688 -2.234,1.704c-0.275,4.013 -3.504,3.167 -6.608,2.213c0.762,-3.221 2.746,-5.05 6.017,-5.417c5.32,-1.892 11.775,-1.883 17.291,-3.45c5.938,-1.692 11.721,-3.933 17.259,-6.658c22.266,-10.946 39.987,-30.034 47.458,-53.842c-2.846,12.642 -8.033,24.646 -15.588,35.317c-6.275,8.866 -16.675,16.475 -19.283,27.25c-0.871,-2.492 -0.687,-5.188 0.579,-8.092c0.884,-2.062 -2.129,-3.867 -3.046,-1.783" style="fill:#6c4234;fill-rule:nonzero;"/><path d="M248.755,344.175c2.9,0.904 5.841,1.667 8.783,2.421c-6.113,16.7 -15.142,32.175 -20.071,49.308c-6.875,-3.775 -13.4,-8 -19.617,-12.821c8.384,-14.425 20.746,-25.787 30.905,-38.908" style="fill:#fff;fill-rule:nonzero;"/><path d="M202.059,362.453c3.804,6.296 7.308,12.783 10.879,19.217c-7.821,5.083 -15.179,10.666 -22.196,16.779c-1.862,-8.175 -3.721,-16.35 -5.583,-24.521c-2.109,-9.246 -5.779,-19.379 -5.954,-28.904c1.62,-0.475 3.241,-0.954 4.854,-1.475c1.404,-0.454 3.158,-0.921 5.021,-1.467c3.216,7.4 8.816,13.488 12.979,20.371" style="fill:#fff;fill-rule:nonzero;"/><path d="M207.601,427.055c-0.533,-0.021 -1.063,-0.046 -1.592,-0.075c-0.487,-4.846 -1.137,-9.663 -2.121,-14.438c-1.158,-5.65 -3.708,-11.396 -3.962,-17.15c1.946,-1.542 3.937,-3.029 5.937,-4.5c0.192,1.521 0.38,3.033 0.596,4.55c0.263,1.842 0.229,4.363 1.1,6.038c0.034,0.066 0.088,0.112 0.125,0.175c-0.004,0.091 -0.037,0.162 -0.029,0.266c0.779,8.392 0.758,16.746 -0.054,25.134" style="fill:#fff;fill-rule:nonzero;"/><path d="M209.139,388.95c-0.017,-0.12 -0.075,-0.212 -0.104,-0.325c1.829,-1.287 3.658,-2.583 5.541,-3.808c0.1,0.175 0.225,0.346 0.425,0.5c2.834,2.213 5.738,4.283 8.688,6.279c-0.013,2.15 0.104,4.538 -0.367,6.629c-0.392,1.796 -0.746,2 -2.246,2.488c-1.279,0.417 -3.475,0.333 -4.871,0.279c-3.091,-0.117 -5.079,-0.037 -5.841,-3.154c-0.704,-2.863 -0.871,-5.971 -1.225,-8.888" style="fill:#3b3b3b;fill-rule:nonzero;"/><path d="M226.188,426.912c-1.242,0.075 -2.483,0.146 -3.721,0.175c-2.354,0.079 -4.712,0.138 -7.092,0.138c-1.429,-0 -2.833,-0.05 -4.25,-0.084c0.75,-7.708 0.8,-15.396 0.209,-23.104c1.621,0.392 3.425,0.429 4.871,0.488c1.879,0.075 4.975,0.17 7.304,-0.621c0.896,7.679 1.933,15.341 3.133,22.983c-0.15,0.008 -0.304,0.021 -0.454,0.025" style="fill:#3b3b3b;fill-rule:nonzero;"/><path d="M228.792,417.393c-0.725,-5.1 -1.4,-10.209 -1.979,-15.33c-0.038,-0.345 -0.175,-0.62 -0.342,-0.858c0.825,-2.021 0.854,-4.862 0.796,-7.317c1.196,0.763 2.363,1.567 3.579,2.3c-0.35,7.113 -1.05,14.175 -2.054,21.205" style="fill:#fff;fill-rule:nonzero;"/><path d="M238.074,425.374c-0.088,0.2 -0.104,0.392 -0.125,0.579c-2.125,0.242 -4.246,0.488 -6.4,0.638c-0.234,0.017 -0.463,0.029 -0.692,0.042c1.717,-9.434 2.838,-18.917 3.396,-28.488c1.125,0.638 2.237,1.288 3.387,1.896c0.988,0.525 2.288,0.083 2.592,-1.054c4.754,-18.009 14.363,-34.096 20.733,-51.509c1.563,0.371 3.13,0.713 4.7,1.046c0.067,0.184 0.138,0.367 0.275,0.542c2.688,3.387 9.567,10.496 7.55,15.354c-1.808,4.358 -9.379,7.967 -12.983,10.779c-3.35,2.613 -4.942,3.509 -3.508,7.584c1.358,3.87 7.35,8.783 7.475,12.691c0.129,4.071 -6.713,7.717 -9.484,10.1c-6.916,5.946 -13.258,11.271 -16.916,19.8" style="fill:#b0b0b0;fill-rule:nonzero;"/><path d="M304.793,407.395c-2.475,1.158 -4.975,2.271 -7.5,3.333c-0.72,0.305 -1.441,0.617 -2.154,0.888c-3.533,1.45 -7.1,2.792 -10.704,4.025c-0.221,0.083 -0.446,0.146 -0.671,0.225c-1.404,0.479 -2.825,0.925 -4.241,1.375c-7.067,2.262 -14.288,4.146 -21.655,5.662c-0.862,0.18 -1.716,0.38 -2.583,0.546c-1.325,0.254 -2.667,0.459 -4.004,0.692c-1.854,0.317 -3.708,0.65 -5.583,0.917c-0.2,0.029 -0.405,0.054 -0.609,0.083c-1.029,0.146 -2.071,0.254 -3.112,0.371c5.646,-11.338 17.441,-19.104 26.833,-27.184c0.575,-0.491 0.667,-1.516 0.279,-2.137c-2.087,-3.329 -4.146,-6.675 -6.125,-10.071c-2.037,-3.5 -3.841,-4.754 -0.675,-7.875c4.575,-4.517 10.738,-7.054 14.625,-12.433c3.717,-5.15 -1.679,-11.421 -5.925,-16.259c0.209,0.034 0.417,0.084 0.634,0.117c6.641,1.138 14.062,1.463 20.083,4.779c8.629,4.759 10.317,16.234 11.842,25.109c1.583,9.22 1.85,18.483 1.241,27.795c0,0.017 0.004,0.03 0.004,0.042" style="fill:#3b3b3b;fill-rule:nonzero;"/><path d="M427.071,223.342c-0.033,0.912 -0.1,1.816 -0.146,2.725c-0.087,1.725 -0.167,3.45 -0.296,5.162c-0.079,1.083 -0.196,2.158 -0.296,3.242c-0.137,1.525 -0.262,3.054 -0.433,4.575c-0.129,1.15 -0.296,2.296 -0.442,3.441c-0.183,1.425 -0.358,2.855 -0.566,4.271c-0.179,1.209 -0.392,2.404 -0.596,3.604c-0.221,1.342 -0.438,2.684 -0.688,4.017c-0.233,1.238 -0.491,2.467 -0.745,3.696c-0.263,1.279 -0.521,2.558 -0.805,3.825c-0.283,1.258 -0.595,2.508 -0.9,3.758c-0.3,1.225 -0.595,2.446 -0.916,3.663c-0.338,1.275 -0.7,2.546 -1.059,3.812c-0.329,1.163 -0.658,2.329 -1.008,3.484c-0.392,1.295 -0.808,2.587 -1.225,3.875c-0.358,1.104 -0.721,2.208 -1.092,3.308c-0.454,1.313 -0.92,2.621 -1.395,3.925c-0.38,1.046 -0.767,2.087 -1.167,3.125c-0.509,1.333 -1.038,2.662 -1.575,3.987c-0.396,0.98 -0.8,1.959 -1.217,2.934c-0.571,1.354 -1.158,2.704 -1.758,4.041c-0.413,0.917 -0.834,1.825 -1.254,2.734c-0.646,1.379 -1.3,2.75 -1.971,4.116c-0.413,0.842 -0.838,1.68 -1.267,2.517c-0.708,1.4 -1.433,2.796 -2.179,4.179c-0.417,0.771 -0.838,1.529 -1.263,2.292c-0.791,1.433 -1.595,2.863 -2.42,4.275c-0.396,0.675 -0.796,1.342 -1.2,2.013c-0.888,1.479 -1.784,2.95 -2.7,4.404c-0.359,0.562 -0.73,1.12 -1.092,1.683c-0.992,1.538 -1.996,3.067 -3.029,4.579c-0.296,0.434 -0.6,0.863 -0.9,1.292c-1.125,1.617 -2.259,3.225 -3.429,4.808c-0.196,0.267 -0.396,0.525 -0.592,0.792c-1.292,1.733 -2.6,3.458 -3.942,5.15c-0.016,0.021 -0.033,0.042 -0.05,0.062c-19.575,24.688 -44.521,44.934 -73.054,58.942c0.796,-14.387 -0.087,-30.854 -5.929,-44.121c-4.513,-10.246 -13.996,-12.696 -24.204,-14.371c-8.263,-1.358 -16.425,-2.845 -24.496,-5.145c-4.113,-1.167 -8.2,-2.48 -12.208,-3.963c-2.488,-0.892 -4.938,-1.871 -7.355,-2.937c-0.062,-0.7 -0.079,-1.35 -0.079,-1.984c2.767,0.6 5.534,1.079 8.384,1.371c1,0.1 1.704,-0.887 1.766,-1.767c0.054,-0.841 0.109,-1.687 0.171,-2.533c3.225,1.558 6.013,3.475 8.7,5.992c0.888,0.833 2.108,0.587 2.775,-0.354c6.529,-9.205 19.904,-8.242 27.875,-15.013c0.254,2.996 1.471,5.85 3.746,8.571c1.008,1.208 3.017,0.183 3.008,-1.25c-0.05,-10.084 7.867,-16.383 13.854,-23.467c4.438,-5.246 8.359,-10.912 11.65,-16.946c6.417,-11.766 10.213,-24.55 11.788,-37.816c13.429,-3.284 19.567,-19.013 20.508,-32.075c0.446,-6.188 -0.729,-14.484 -6.262,-18.367c-2.496,-1.754 -5.05,-2.167 -7.267,-1.2c1.383,-5.746 2.571,-11.542 3.867,-17.192c2.137,-9.329 3.529,-18.545 0.608,-27.487c-0.067,-0.583 -0.133,-1.171 -0.192,-1.754c0.184,-0.329 0.296,-0.704 0.196,-1.171c-1.846,-8.279 -1.554,-16.833 -3.466,-25.142c-1.8,-7.817 -4.646,-15.375 -8.296,-22.512c-7.479,-14.634 -18.475,-27.221 -31.392,-37.309c-16.862,-13.179 -40.125,-25.816 -62.171,-23.875c-0.258,-0.221 -0.575,-0.395 -0.979,-0.437c-29.037,-2.983 -60.333,-5.854 -87.067,8.462c-11.858,6.35 -22.337,16.288 -31.487,26.046c-8.6,9.163 -15.575,19.388 -19.242,31.488c-7.671,-5.021 -7.204,-9.596 1.363,-13.734c0.171,-0.041 0.325,-0.121 0.466,-0.225c0.121,-0.054 0.234,-0.112 0.359,-0.171c2.133,0.792 3.05,-2.62 0.937,-3.404c-1.133,-0.421 -2.233,-0.596 -3.287,-0.608c-4.892,-1.696 -9.325,2.929 -11.171,7.537c-1.492,3.725 -1.775,7.713 -0.817,11.355c-0.537,0.375 -0.921,1.012 -0.804,1.825c1.133,7.933 2.946,16.9 5.925,25.42c-4.083,9.417 -4.392,20.584 -4.504,30.684c-0.133,11.679 1.192,23.246 3.542,34.671c-4.267,4.225 -5.225,11.508 -4.825,17.1c0.941,13.062 7.083,28.791 20.508,32.075c1.579,13.266 5.371,26.05 11.787,37.816c3.288,6.034 7.217,11.7 11.651,16.946c5.991,7.083 13.908,13.383 13.849,23.467c-0.004,1.433 2.009,2.458 3.017,1.25c2.275,-2.721 3.492,-5.575 3.746,-8.571c7.967,6.771 21.342,5.808 27.875,15.012c0.667,0.942 1.887,1.188 2.771,0.355c2.687,-2.517 5.471,-4.434 8.704,-5.992l0.171,2.533c0.062,0.879 0.762,1.867 1.766,1.767c2.846,-0.292 5.613,-0.771 8.38,-1.371c-0,0.633 -0.017,1.283 -0.075,1.983c-2.417,1.067 -4.867,2.046 -7.355,2.938c-4.016,1.483 -8.095,2.796 -12.212,3.962c-8.071,2.3 -16.229,3.788 -24.492,5.146c-10.212,1.675 -19.696,4.125 -24.204,14.371c-5.846,13.267 -6.729,29.733 -5.929,44.121c-28.533,-14.008 -53.483,-34.254 -73.054,-58.942c-0.017,-0.02 -0.038,-0.041 -0.054,-0.062c-1.342,-1.692 -2.646,-3.417 -3.938,-5.15c-0.2,-0.267 -0.404,-0.525 -0.6,-0.792c-1.162,-1.583 -2.296,-3.192 -3.421,-4.808c-0.3,-0.429 -0.604,-0.859 -0.904,-1.292c-1.033,-1.512 -2.033,-3.042 -3.029,-4.579c-0.362,-0.563 -0.729,-1.121 -1.088,-1.683c-0.925,-1.455 -1.812,-2.925 -2.7,-4.405c-0.404,-0.67 -0.812,-1.337 -1.204,-2.012c-0.829,-1.413 -1.629,-2.842 -2.425,-4.275c-0.421,-0.763 -0.846,-1.521 -1.254,-2.292c-0.746,-1.383 -1.471,-2.779 -2.187,-4.179c-0.421,-0.837 -0.85,-1.675 -1.263,-2.517c-0.675,-1.366 -1.325,-2.737 -1.967,-4.116c-0.425,-0.909 -0.841,-1.817 -1.254,-2.734c-0.6,-1.337 -1.187,-2.687 -1.766,-4.041c-0.409,-0.975 -0.817,-1.954 -1.217,-2.934c-0.538,-1.325 -1.063,-2.654 -1.575,-3.987c-0.392,-1.038 -0.779,-2.079 -1.163,-3.125c-0.475,-1.304 -0.941,-2.613 -1.391,-3.925c-0.379,-1.1 -0.738,-2.204 -1.096,-3.308c-0.417,-1.288 -0.829,-2.58 -1.225,-3.875c-0.35,-1.155 -0.679,-2.321 -1.008,-3.484c-0.363,-1.266 -0.721,-2.537 -1.059,-3.812c-0.321,-1.217 -0.616,-2.438 -0.912,-3.663c-0.309,-1.25 -0.617,-2.5 -0.9,-3.758c-0.288,-1.267 -0.546,-2.546 -0.809,-3.825c-0.25,-1.229 -0.512,-2.458 -0.741,-3.696c-0.25,-1.333 -0.471,-2.675 -0.692,-4.017c-0.2,-1.2 -0.412,-2.395 -0.596,-3.604c-0.208,-1.416 -0.383,-2.846 -0.566,-4.271c-0.15,-1.145 -0.313,-2.291 -0.438,-3.441c-0.171,-1.521 -0.3,-3.05 -0.437,-4.575c-0.096,-1.084 -0.213,-2.159 -0.296,-3.242c-0.125,-1.712 -0.209,-3.437 -0.292,-5.162c-0.046,-0.909 -0.112,-1.813 -0.146,-2.725c-0.104,-2.642 -0.154,-5.296 -0.154,-7.967c0,-116.796 95.05,-211.842 211.846,-211.842c116.8,0 211.846,95.046 211.846,211.842c-0,2.671 -0.054,5.325 -0.15,7.967" style="fill:#8ba8aa;fill-rule:nonzero;"/><path d="M159.839,195.957l-0.442,0c-4.075,0 -8.354,1.771 -11.237,4.654c-2.755,2.754 -4.83,7.279 -4.655,11.234c0.184,4.112 1.534,8.37 4.655,11.237c3.108,2.854 6.929,4.65 11.237,4.65l0.442,0c4.075,0 8.354,-1.771 11.233,-4.65c2.754,-2.754 4.829,-7.279 4.654,-11.237c-0.183,-4.109 -1.537,-8.371 -4.654,-11.234c-3.108,-2.854 -6.929,-4.654 -11.233,-4.654" style="fill-rule:nonzero;"/><path d="M274.145,230.825l0.442,-0c4.075,-0 8.35,-1.771 11.238,-4.655c2.754,-2.754 4.829,-7.275 4.65,-11.233c-0.184,-4.108 -1.534,-8.371 -4.65,-11.237c-3.109,-2.85 -6.93,-4.65 -11.238,-4.65l-0.442,-0c-4.075,-0 -8.354,1.77 -11.233,4.65c-2.754,2.758 -4.829,7.279 -4.654,11.237c0.183,4.108 1.533,8.371 4.654,11.233c3.108,2.855 6.929,4.655 11.233,4.655" style="fill-rule:nonzero;"/><path d="M219.637,280.19c7.217,-0.438 15.504,-1.209 19.146,-8.367c3.083,-6.063 -6.05,-11.429 -9.15,-5.346c-2.238,4.4 -11.583,3.325 -15.671,3.279c-5.479,-0.062 -9.929,-1.221 -14.608,-4.112c-5.817,-3.592 -11.142,5.566 -5.346,9.15c7.946,4.904 16.425,5.958 25.629,5.396" style="fill-rule:nonzero;"/><path d="M427.071,223.342c-0.033,0.912 -0.1,1.816 -0.146,2.725c-0.087,1.725 -0.167,3.45 -0.296,5.162c-0.079,1.083 -0.196,2.158 -0.296,3.242c-0.137,1.525 -0.262,3.054 -0.433,4.575c-0.129,1.15 -0.296,2.296 -0.442,3.441c-0.183,1.425 -0.358,2.855 -0.566,4.271c-0.179,1.209 -0.392,2.405 -0.596,3.605c-0.221,1.341 -0.438,2.683 -0.688,4.016c-0.233,1.238 -0.491,2.467 -0.745,3.696c-0.263,1.279 -0.521,2.558 -0.805,3.825c-0.283,1.258 -0.595,2.508 -0.9,3.758c-0.3,1.225 -0.595,2.446 -0.916,3.663c-0.338,1.275 -0.7,2.546 -1.059,3.812c-0.329,1.163 -0.658,2.329 -1.008,3.484c-0.392,1.296 -0.808,2.587 -1.225,3.875c-0.358,1.104 -0.721,2.208 -1.092,3.308c-0.454,1.313 -0.92,2.621 -1.395,3.925c-0.38,1.046 -0.767,2.088 -1.167,3.125c-0.509,1.333 -1.038,2.663 -1.575,3.988c-0.396,0.979 -0.8,1.958 -1.217,2.933c-0.571,1.354 -1.158,2.704 -1.758,4.042c-0.413,0.916 -0.834,1.825 -1.254,2.733c-0.646,1.379 -1.3,2.75 -1.971,4.117c-0.413,0.841 -0.838,1.679 -1.267,2.516c-0.708,1.4 -1.433,2.796 -2.179,4.179c-0.417,0.771 -0.838,1.53 -1.263,2.292c-0.791,1.433 -1.595,2.863 -2.42,4.275c-0.396,0.675 -0.796,1.342 -1.2,2.013c-0.888,1.479 -1.784,2.95 -2.7,4.404c-0.359,0.562 -0.73,1.121 -1.092,1.683c-0.992,1.538 -1.996,3.067 -3.029,4.579c-0.296,0.434 -0.6,0.863 -0.9,1.292c-1.125,1.617 -2.259,3.225 -3.429,4.808c-0.196,0.267 -0.396,0.525 -0.592,0.792c-1.292,1.733 -2.6,3.458 -3.942,5.15c-0.016,0.021 -0.033,0.042 -0.05,0.062c-19.575,24.688 -44.521,44.934 -73.054,58.942c0.796,-14.387 -0.087,-30.854 -5.929,-44.121c-4.513,-10.246 -13.996,-12.696 -24.204,-14.371c-8.263,-1.358 -16.425,-2.845 -24.496,-5.145c-4.113,-1.167 -8.2,-2.48 -12.208,-3.963c-2.488,-0.892 -4.938,-1.871 -7.355,-2.937c-0.062,-0.7 -0.079,-1.35 -0.079,-1.984c2.767,0.6 5.534,1.079 8.384,1.371c1,0.1 1.704,-0.887 1.766,-1.767c0.054,-0.841 0.109,-1.687 0.171,-2.533c3.225,1.558 6.013,3.475 8.7,5.992c0.888,0.833 2.108,0.587 2.775,-0.354c6.529,-9.205 19.904,-8.242 27.875,-15.013c0.254,2.996 1.471,5.85 3.746,8.571c1.008,1.208 3.017,0.183 3.008,-1.25c-0.05,-10.083 7.867,-16.383 13.854,-23.467c4.438,-5.246 8.359,-10.912 11.65,-16.946c6.417,-11.766 10.213,-24.55 11.788,-37.816c13.429,-3.284 19.567,-19.013 20.508,-32.075c0.446,-6.188 -0.729,-14.484 -6.262,-18.367c-2.496,-1.754 -5.05,-2.167 -7.267,-1.2c1.383,-5.746 2.571,-11.542 3.867,-17.192c2.137,-9.329 3.529,-18.545 0.608,-27.487c-0.067,-0.583 -0.133,-1.171 -0.192,-1.754c0.184,-0.329 0.296,-0.704 0.196,-1.171c-1.846,-8.279 -1.554,-16.833 -3.466,-25.142c-1.8,-7.816 -4.646,-15.375 -8.296,-22.512c-7.479,-14.634 -18.475,-27.221 -31.392,-37.309c-16.862,-13.179 -40.125,-25.816 -62.171,-23.875c-0.258,-0.22 -0.575,-0.395 -0.979,-0.437c-29.037,-2.983 -60.333,-5.854 -87.067,8.462c-11.858,6.35 -22.337,16.288 -31.487,26.046c-8.6,9.163 -15.575,19.388 -19.242,31.488c-7.671,-5.021 -7.204,-9.596 1.363,-13.734c0.171,-0.041 0.325,-0.12 0.466,-0.225c0.121,-0.054 0.234,-0.112 0.359,-0.17c2.133,0.791 3.05,-2.621 0.937,-3.405c-1.133,-0.42 -2.233,-0.595 -3.287,-0.608c-4.892,-1.696 -9.325,2.929 -11.171,7.538c-1.492,3.725 -1.775,7.712 -0.817,11.354c-0.537,0.375 -0.921,1.012 -0.804,1.825c1.133,7.933 2.946,16.9 5.925,25.421c-4.083,9.416 -4.392,20.583 -4.504,30.683c-0.133,11.679 1.192,23.246 3.542,34.671c-4.267,4.225 -5.225,11.508 -4.825,17.1c0.941,13.062 7.083,28.791 20.508,32.075c1.579,13.266 5.371,26.05 11.787,37.816c3.288,6.034 7.217,11.7 11.651,16.946c5.991,7.084 13.908,13.384 13.849,23.467c-0.004,1.433 2.009,2.458 3.017,1.25c2.275,-2.721 3.492,-5.575 3.746,-8.571c7.967,6.771 21.342,5.808 27.875,15.013c0.667,0.941 1.887,1.187 2.771,0.354c2.687,-2.517 5.471,-4.434 8.704,-5.992l0.171,2.533c0.062,0.88 0.762,1.867 1.766,1.767c2.846,-0.292 5.613,-0.771 8.38,-1.371c-0,0.634 -0.017,1.284 -0.075,1.984c-2.417,1.066 -4.867,2.045 -7.355,2.937c-4.016,1.483 -8.095,2.796 -12.212,3.963c-8.071,2.3 -16.229,3.787 -24.492,5.145c-10.212,1.675 -19.696,4.125 -24.204,14.371c-5.846,13.267 -6.729,29.734 -5.929,44.121c-28.533,-14.008 -53.483,-34.254 -73.054,-58.942c-0.017,-0.02 -0.038,-0.041 -0.054,-0.062c-1.342,-1.692 -2.646,-3.417 -3.938,-5.15c-0.2,-0.267 -0.404,-0.525 -0.6,-0.792c-1.162,-1.583 -2.296,-3.191 -3.421,-4.808c-0.3,-0.429 -0.604,-0.858 -0.904,-1.292c-1.033,-1.512 -2.033,-3.041 -3.029,-4.579c-0.362,-0.562 -0.729,-1.121 -1.088,-1.683c-0.925,-1.454 -1.812,-2.925 -2.7,-4.404c-0.404,-0.671 -0.812,-1.338 -1.204,-2.013c-0.829,-1.412 -1.629,-2.842 -2.425,-4.275c-0.421,-0.762 -0.846,-1.521 -1.254,-2.292c-0.746,-1.383 -1.471,-2.779 -2.187,-4.179c-0.421,-0.837 -0.85,-1.675 -1.263,-2.517c-0.675,-1.366 -1.325,-2.737 -1.967,-4.116c-0.425,-0.909 -0.841,-1.817 -1.254,-2.734c-0.6,-1.337 -1.187,-2.687 -1.766,-4.041c-0.409,-0.975 -0.817,-1.954 -1.217,-2.934c-0.538,-1.325 -1.063,-2.654 -1.575,-3.987c-0.392,-1.038 -0.779,-2.079 -1.163,-3.125c-0.475,-1.304 -0.941,-2.613 -1.391,-3.925c-0.379,-1.1 -0.738,-2.204 -1.096,-3.308c-0.417,-1.288 -0.829,-2.579 -1.225,-3.875c-0.35,-1.155 -0.679,-2.321 -1.008,-3.484c-0.363,-1.266 -0.721,-2.537 -1.059,-3.812c-0.321,-1.217 -0.616,-2.438 -0.912,-3.663c-0.309,-1.25 -0.617,-2.5 -0.9,-3.758c-0.288,-1.267 -0.546,-2.546 -0.809,-3.825c-0.25,-1.229 -0.512,-2.458 -0.741,-3.696c-0.25,-1.333 -0.471,-2.675 -0.692,-4.017c-0.2,-1.2 -0.412,-2.395 -0.596,-3.604c-0.208,-1.416 -0.383,-2.846 -0.566,-4.271c-0.15,-1.145 -0.313,-2.291 -0.438,-3.441c-0.171,-1.521 -0.3,-3.05 -0.437,-4.575c-0.096,-1.084 -0.213,-2.159 -0.296,-3.242c-0.125,-1.712 -0.209,-3.437 -0.292,-5.162c-0.046,-0.909 -0.112,-1.813 -0.146,-2.725c-0.104,-2.642 -0.154,-5.296 -0.154,-7.967c0,-116.796 95.05,-211.842 211.846,-211.842c116.8,0 211.846,95.046 211.846,211.842c-0,2.671 -0.054,5.325 -0.15,7.967m-122.279,184.054c-2.471,1.158 -4.975,2.271 -7.496,3.333c-0.721,0.304 -1.442,0.617 -2.159,0.888c-3.533,1.45 -7.095,2.791 -10.7,4.025c-0.225,0.083 -0.45,0.145 -0.675,0.225c-1.4,0.479 -2.82,0.925 -4.241,1.375c-7.063,2.262 -14.288,4.145 -21.65,5.662c-0.863,0.179 -1.721,0.379 -2.588,0.542c-1.325,0.258 -2.666,0.462 -4,0.692c-1.858,0.32 -3.712,0.654 -5.583,0.92c-0.204,0.025 -0.408,0.055 -0.613,0.084c-1.029,0.145 -2.07,0.254 -3.112,0.37c5.65,-11.337 17.446,-19.104 26.837,-27.183c0.571,-0.492 0.667,-1.517 0.275,-2.142c-2.087,-3.325 -4.145,-6.67 -6.125,-10.066c-2.037,-3.5 -3.841,-4.754 -0.675,-7.875c4.58,-4.517 10.738,-7.059 14.625,-12.438c3.717,-5.146 -1.675,-11.416 -5.925,-16.254c0.213,0.033 0.421,0.083 0.634,0.117c6.641,1.137 14.062,1.458 20.087,4.779c8.625,4.754 10.313,16.233 11.838,25.108c1.583,9.221 1.85,18.484 1.241,27.796c0,0.017 0.005,0.025 0.005,0.042m-66.717,17.979c-0.088,0.2 -0.108,0.392 -0.129,0.579c-2.121,0.242 -4.242,0.488 -6.4,0.633c-0.229,0.021 -0.459,0.034 -0.692,0.046c1.717,-9.433 2.842,-18.916 3.4,-28.487c1.121,0.633 2.238,1.287 3.383,1.896c0.988,0.525 2.292,0.083 2.592,-1.055c4.758,-18.008 14.363,-34.095 20.738,-51.508c1.562,0.367 3.129,0.713 4.7,1.042c0.062,0.187 0.137,0.371 0.275,0.546c2.687,3.387 9.566,10.495 7.55,15.35c-1.809,4.358 -9.38,7.971 -12.988,10.779c-3.346,2.616 -4.937,3.512 -3.504,7.587c1.358,3.871 7.346,8.784 7.475,12.692c0.129,4.071 -6.717,7.717 -9.488,10.096c-6.912,5.95 -13.254,11.275 -16.912,19.804m-9.283,-7.983c-0.725,-5.1 -1.4,-10.209 -1.98,-15.329c-0.037,-0.346 -0.175,-0.617 -0.341,-0.855c0.825,-2.02 0.858,-4.862 0.796,-7.32c1.195,0.762 2.362,1.57 3.579,2.3c-0.35,7.112 -1.05,14.175 -2.054,21.204m-2.605,9.52c-1.241,0.076 -2.483,0.146 -3.716,0.175c-2.359,0.08 -4.717,0.138 -7.096,0.138c-1.425,0 -2.833,-0.05 -4.25,-0.083c0.754,-7.709 0.8,-15.396 0.208,-23.104c1.621,0.391 3.425,0.429 4.875,0.487c1.875,0.075 4.971,0.171 7.304,-0.621c0.892,7.679 1.93,15.342 3.13,22.983c-0.15,0.009 -0.305,0.017 -0.455,0.025m-17.05,-37.962c-0.016,-0.121 -0.07,-0.212 -0.104,-0.325c1.829,-1.288 3.659,-2.583 5.542,-3.808c0.1,0.175 0.229,0.346 0.429,0.504c2.829,2.208 5.733,4.279 8.683,6.275c-0.008,2.15 0.105,4.537 -0.362,6.629c-0.396,1.796 -0.75,2 -2.246,2.487c-1.283,0.417 -3.475,0.334 -4.871,0.28c-3.096,-0.117 -5.083,-0.038 -5.846,-3.155c-0.704,-2.862 -0.87,-5.97 -1.225,-8.887m-1.537,38.104c-0.533,-0.021 -1.063,-0.046 -1.592,-0.075c-0.487,-4.846 -1.137,-9.662 -2.116,-14.437c-1.163,-5.65 -3.713,-11.396 -3.967,-17.15c1.946,-1.542 3.938,-3.029 5.937,-4.5c0.192,1.52 0.38,3.033 0.596,4.55c0.263,1.841 0.229,4.362 1.1,6.037c0.034,0.067 0.088,0.113 0.125,0.175c-0.004,0.092 -0.037,0.163 -0.029,0.267c0.779,8.391 0.758,16.746 -0.054,25.133m-5.542,-64.6c3.804,6.296 7.309,12.783 10.879,19.217c-7.82,5.079 -15.179,10.666 -22.195,16.779c-1.863,-8.175 -3.721,-16.35 -5.584,-24.521c-2.104,-9.246 -5.779,-19.383 -5.954,-28.904c1.621,-0.475 3.242,-0.954 4.854,-1.475c1.404,-0.454 3.163,-0.921 5.021,-1.467c3.217,7.396 8.817,13.484 12.979,20.371m46.696,-18.279c2.9,0.904 5.842,1.667 8.783,2.421c-6.112,16.7 -15.141,32.175 -20.07,49.308c-6.875,-3.775 -13.4,-8 -19.617,-12.821c8.383,-14.425 20.75,-25.787 30.904,-38.908m36.425,-31.079c-5.346,12.154 -22.429,10.025 -30.975,19.358c-3.3,-2.829 -6.712,-4.908 -10.871,-6.6c-1.137,-0.466 -2.162,0.688 -2.233,1.7c-0.271,4.013 -3.504,3.167 -6.608,2.213c0.762,-3.217 2.746,-5.046 6.021,-5.413c5.316,-1.896 11.775,-1.887 17.287,-3.454c5.938,-1.687 11.721,-3.929 17.263,-6.654c22.262,-10.95 39.983,-30.033 47.454,-53.842c-2.842,12.638 -8.034,24.642 -15.588,35.317c-6.275,8.862 -16.675,16.475 -19.283,27.246c-0.871,-2.492 -0.688,-5.184 0.583,-8.092c0.884,-2.058 -2.133,-3.862 -3.05,-1.779m49.684,-110.567c5.837,0.075 9.029,2.679 9.575,7.813c0.441,2.041 0.591,4.091 0.441,6.15c-0.096,3.521 -0.896,6.946 -1.9,10.3c-2.712,9.104 -6.816,18.433 -17.158,19.987c1.671,-9.208 2.362,-18.641 2.475,-28.154c2.187,-4.921 3.846,-10.092 5.262,-15.358c0.484,-0.042 0.955,-0.259 1.305,-0.738m-229.809,-45.6c-5.991,-5.637 -10.146,-13.304 -13.141,-21.533c0.187,-0.779 -0.146,-1.471 -0.7,-1.892c-1.917,-5.646 -3.317,-11.504 -4.35,-17.133c11.504,24.829 39.679,43.912 67.366,37.612c30.488,-6.937 55.954,-30.333 59.571,-62.179c0.254,-2.254 -3.279,-2.233 -3.529,0c-3.329,29.317 -26.575,50.754 -54.238,58.096c-24.733,6.563 -50.212,-7.867 -62.904,-29.138c4.388,3.476 9.846,5.842 15.275,7.742c12.75,4.459 26.796,6.938 40.238,4.546c23.887,-4.254 40.904,-25.104 41.308,-49.2c0.038,-2.271 -3.492,-2.271 -3.533,0c-0.354,21.254 -14.763,40.358 -35.754,45.196c-11.192,2.579 -22.946,1.312 -33.921,-1.663c-10.759,-2.912 -24.917,-7.229 -28.321,-19.237c-0.238,-0.833 -0.875,-1.208 -1.546,-1.238c-0.158,-0.22 -0.354,-0.362 -0.567,-0.479c-0.279,-1.421 -0.4,-2.9 -0.17,-4.483c0.033,-0.233 0.075,-0.483 0.129,-0.75c0.037,0.158 0.054,0.317 0.091,0.475c3.25,11.929 21.225,14.329 31.146,15.704c25.046,3.471 48.496,-10.004 51.129,-36.546c0.221,-2.258 -3.308,-2.241 -3.529,0c-1.521,15.313 -12.083,28.542 -27.133,32.479c-8.967,2.35 -18.542,1.2 -27.442,-0.795c-2.9,-0.646 -5.858,-1.325 -8.675,-2.284c-1.204,-0.346 -2.371,-0.775 -3.516,-1.266c0.054,-0.109 0.129,-0.188 0.17,-0.317c3.75,-12.613 11.313,-22.983 20.421,-32.313c9.263,-9.487 19.421,-18.958 31.434,-24.775c22.737,-11.004 48.458,-9.929 73.1,-7.583c-3.134,1.025 -6.217,2.354 -9.221,4.142c-1.95,1.162 -0.175,4.216 1.783,3.05c27.779,-16.559 63.263,3.679 84.421,22.716c10.871,9.78 19.925,21.563 25.996,34.896c3.187,7.013 5.546,14.429 6.896,22.017c1.05,5.9 1.12,11.887 2.054,17.783c-0.8,0.429 -1.35,1.396 -0.829,2.438c0.495,0.979 0.895,1.966 1.254,2.962c0.033,0.313 0.066,0.621 0.104,0.938c0.05,0.466 0.267,0.812 0.542,1.087c2.691,9.771 -0.209,20.109 -2.538,29.909c-1.812,7.616 -3.312,15.458 -5.696,22.966c-0.233,-10.512 -0.954,-21.029 -1.591,-31.371c0.316,-0.204 0.566,-0.516 0.662,-1.008c4.896,-25.396 3.229,-48.296 -12.792,-69.45c-13.62,-17.992 -35.875,-36.717 -58.408,-41.396c-2.217,-0.462 -3.167,2.942 -0.942,3.404c21.35,4.434 42.263,21.942 55.492,38.78c13.204,16.808 16.888,34.866 15.121,54.604c-0.154,-0.671 -0.646,-1.084 -1.208,-1.259c-2.33,-5.145 -6.055,-9.6 -10.988,-12.87c-0.287,-0.188 -0.562,-0.255 -0.825,-0.271c-2.858,-4.579 -7.387,-8.854 -11.129,-11.825c-7.692,-6.096 -16.154,-11.096 -24.554,-16.134c-10.542,-6.312 -27,-13.42 -26.179,-27.891c0.125,-2.271 -3.409,-2.263 -3.534,-0c-0.862,15.216 14.192,22.696 25.434,29.45c8.104,4.871 47.933,26.933 37.15,38.85c1.862,-15.025 -16.442,-21.492 -29.255,-22.771c-13.17,-1.317 -24.833,-3.292 -35.075,-12.35c-8.287,-7.329 -13.595,-16.942 -15.687,-27.704c1.033,-15.188 -6.167,-29.346 -19.858,-37.675c-1.946,-1.184 -3.725,1.871 -1.784,3.05c12.013,7.304 18.434,19.383 18.142,32.575c-0.213,0.346 -0.333,0.758 -0.258,1.246c0.033,0.204 0.095,0.395 0.129,0.6c-0.017,0.05 -0.046,0.091 -0.059,0.15c-2.991,16.558 -6.754,38.591 -21.312,48.954c-12.588,8.954 -29.363,16.379 -44.354,19.712c-16.259,3.613 -42.7,2.704 -55.513,-9.35m-0.15,5.842c-0.612,14.954 -2.033,30.554 -2.383,46.108c-2.379,-7.508 -3.879,-15.35 -5.696,-22.966c-2.687,-11.317 -6.142,-23.346 -0.867,-34.392c2.471,3.696 5.334,7.021 8.692,9.742c0.208,0.17 0.446,0.316 0.658,0.479c-0.216,0.266 -0.387,0.596 -0.404,1.029m-9.016,39.758c0.354,0.479 0.825,0.696 1.304,0.738c1.416,5.266 3.075,10.437 5.266,15.358c0.113,9.513 0.805,18.946 2.475,28.154c-10.341,-1.554 -14.45,-10.883 -17.166,-19.987c-0.996,-3.354 -1.796,-6.779 -1.9,-10.3c-0.146,-2.059 0.004,-4.109 0.446,-6.15c0.545,-5.134 3.737,-7.738 9.575,-7.813m-3.83,-21.446c1.292,5.65 2.48,11.446 3.863,17.192c-1.708,-0.746 -3.621,-0.65 -5.55,0.229c-1.908,-9.637 -3.067,-19.371 -3.167,-29.208c-0.096,-9.313 -0.15,-19.946 2.842,-29.042c1.179,2.829 2.492,5.592 3.996,8.188c-0.354,0.116 -0.679,0.35 -0.904,0.791c-5.184,10.292 -3.567,20.996 -1.08,31.85m50.463,133.792c1.271,2.908 1.458,5.6 0.583,8.092c-2.604,-10.771 -13.004,-18.384 -19.283,-27.246c-7.558,-10.675 -12.742,-22.679 -15.588,-35.317c7.467,23.809 25.192,42.892 47.459,53.842c5.537,2.725 11.325,4.967 17.258,6.654c5.517,1.567 11.971,1.558 17.292,3.454c3.271,0.367 5.258,2.196 6.012,5.413c-3.1,0.954 -6.329,1.8 -6.6,-2.213c-0.071,-1.012 -1.096,-2.166 -2.237,-1.7c-4.159,1.692 -7.567,3.771 -10.871,6.6c-8.546,-9.333 -25.625,-7.204 -30.975,-19.358c-0.917,-2.083 -3.929,-0.279 -3.05,1.779m59.504,14.892c-2.083,-10.246 -16.712,-9.434 -24.396,-11.296c-28.2,-6.838 -53.804,-26.463 -64.291,-53.992c-5.384,-14.141 -7.184,-29.433 -7.425,-44.958c0.241,-0.463 0.32,-1.021 0.05,-1.608c-0.021,-0.046 -0.038,-0.096 -0.063,-0.138c-0.146,-18.2 1.725,-36.662 2.479,-53.967c13.267,7.942 34.375,8.921 48.375,6.788c8.904,-1.358 17.384,-4.558 25.563,-8.238c8.983,-4.037 18.754,-8.195 26.537,-14.341c11.604,-9.154 16.175,-25.65 19.104,-40.454c0.155,-0.184 0.28,-0.409 0.359,-0.684c0.087,-0.312 0.146,-0.621 0.229,-0.929c4.237,12.083 12.721,22.433 24.167,28.658c7.291,3.967 15.05,5.425 23.229,6.225c12.166,1.192 35.946,4.68 29.633,22.98c-0.212,0.608 -0.075,1.1 0.225,1.47c0.408,0.834 1.392,1.421 2.446,0.863c6.258,-3.304 7.883,-7.571 7.058,-11.963c3.35,3.125 5.788,6.992 7.163,11.305c0.791,16.82 2.525,34.666 2.383,52.287c-0.021,0.042 -0.037,0.092 -0.058,0.138c-0.275,0.587 -0.196,1.145 0.046,1.608c-0.242,15.525 -2.038,30.817 -7.425,44.958c-10.484,27.529 -36.092,47.154 -64.292,53.992c-7.679,1.862 -22.317,1.05 -24.396,11.296c-1.792,8.825 9.671,11.354 16.429,13.316c-9.658,12.321 -21.116,23.142 -29.316,36.538c-3.517,-6.35 -6.98,-12.742 -10.73,-18.95c-4.029,-6.663 -9.387,-12.592 -12.65,-19.671c5.58,-1.971 10.821,-5.058 9.567,-11.233m-1.537,96.908c-0.425,-0.033 -0.855,-0.05 -1.284,-0.087c-0.321,-0.021 -0.629,-0.067 -0.95,-0.096c-1.621,-7.346 -5.129,-13.963 -11.004,-18.825c-2.917,-2.413 -6.121,-3.588 -9.271,-5.538c-7.825,-4.846 -5.508,-9.766 -3.154,-16.458c1.746,-4.963 4.95,-8.846 1.133,-12.929c-2.604,-2.788 -6.587,-3.767 -9.362,-6.125c-4.583,-3.896 -1.958,-12.596 -0.963,-18.225c3.384,-0.717 6.755,-1.492 10.096,-2.396c0.363,8.487 3.375,17.229 5.246,25.458c2.333,10.238 4.663,20.475 6.992,30.713c0.312,1.366 2.016,1.621 2.95,0.779c1.896,-1.704 3.825,-3.363 5.783,-4.979c0.579,3.683 1.867,7.237 2.746,10.879c1.433,5.908 2.387,11.892 3.008,17.942c-0.654,-0.038 -1.316,-0.067 -1.966,-0.113m-9.563,-0.904c-1.758,-0.204 -3.521,-0.383 -5.262,-0.629c-0.2,-0.029 -0.405,-0.059 -0.609,-0.084c-1.875,-0.266 -3.729,-0.6 -5.583,-0.92c-1.333,-0.23 -2.679,-0.434 -4.004,-0.692c-0.871,-0.163 -1.725,-0.363 -2.588,-0.542c-7.358,-1.516 -14.587,-3.4 -21.65,-5.662c-1.416,-0.45 -2.837,-0.896 -4.246,-1.375c-0.22,-0.079 -0.445,-0.142 -0.67,-0.225c-3.6,-1.234 -7.167,-2.575 -10.696,-4.025c-0.721,-0.271 -1.438,-0.584 -2.159,-0.888c-2.52,-1.062 -5.025,-2.175 -7.504,-3.333c0,-0.017 0.009,-0.025 0.009,-0.042c-0.609,-9.312 -0.342,-18.575 1.241,-27.796c1.525,-8.875 3.213,-20.354 11.842,-25.108c6.017,-3.321 13.446,-3.642 20.083,-4.779c0.917,-0.154 1.821,-0.367 2.734,-0.538c-1.4,5.892 -4.3,15.088 -0.242,18.888c2.337,2.183 6.354,3.108 9.029,4.996c5.138,3.625 3.513,3.991 1.758,8.933c-0.825,2.321 -1.645,4.642 -2.441,6.967c-2.054,5.958 -3.146,9.458 1.979,13.679c3.275,2.692 7.562,3.837 11.033,6.242c6.013,4.17 9.738,10.341 11.534,17.283c-1.196,-0.125 -2.4,-0.217 -3.588,-0.35m239.546,-221.463c-5.775,-113.65 -100.029,-204.308 -215.096,-204.308c-115.062,0 -209.317,90.658 -215.096,204.308c-0.187,3.667 -0.279,7.359 -0.279,11.067c0,2.8 0.054,5.588 0.158,8.363c0.034,0.791 0.096,1.575 0.138,2.362c0.096,1.979 0.187,3.954 0.337,5.921c0.075,0.912 0.18,1.817 0.267,2.729c0.163,1.825 0.317,3.65 0.525,5.463c0.104,0.933 0.25,1.858 0.375,2.791c0.225,1.779 0.446,3.559 0.717,5.325c0.137,0.871 0.304,1.734 0.45,2.6c0.3,1.813 0.596,3.625 0.941,5.421c0.159,0.804 0.342,1.596 0.509,2.4c0.379,1.842 0.754,3.692 1.183,5.521c0.171,0.729 0.371,1.45 0.55,2.179c0.458,1.883 0.917,3.767 1.425,5.633c0.183,0.663 0.388,1.317 0.575,1.975c0.546,1.917 1.096,3.834 1.688,5.73c0.187,0.591 0.395,1.179 0.587,1.77c0.629,1.946 1.271,3.892 1.954,5.813c0.188,0.525 0.392,1.042 0.584,1.567c0.72,1.975 1.45,3.941 2.225,5.891c0.183,0.463 0.383,0.913 0.57,1.371c0.813,2 1.642,3.992 2.513,5.963c0.171,0.391 0.358,0.775 0.533,1.166c0.909,2.021 1.834,4.034 2.8,6.025c0.167,0.334 0.342,0.659 0.509,0.996c1.004,2.033 2.025,4.054 3.091,6.05c0.146,0.275 0.3,0.542 0.446,0.817c1.104,2.046 2.229,4.075 3.4,6.083c0.125,0.221 0.263,0.433 0.388,0.654c1.204,2.05 2.429,4.084 3.7,6.092c0.104,0.162 0.216,0.325 0.32,0.496c1.305,2.05 2.634,4.079 4.005,6.083c0.083,0.121 0.166,0.238 0.254,0.358c1.4,2.042 2.833,4.063 4.304,6.055c0.062,0.079 0.121,0.158 0.179,0.237c1.5,2.025 3.029,4.025 4.6,5.996l0.125,0.15c1.588,1.996 3.217,3.962 4.879,5.9c0.013,0.025 0.034,0.046 0.054,0.067c1.688,1.966 3.405,3.895 5.159,5.8c20.712,22.479 46.125,40.566 74.679,52.654c0.929,0.383 1.858,0.754 2.783,1.116c0.921,0.392 1.854,0.771 2.796,1.146c0.404,0.154 0.821,0.292 1.225,0.446c2.492,0.971 4.996,1.896 7.538,2.75c0.079,0.029 0.162,0.058 0.245,0.088c1.13,0.375 2.255,0.75 3.388,1.091c1.096,0.358 2.221,0.659 3.333,0.996c0.75,0.225 1.488,0.483 2.246,0.7c0.771,0.258 1.55,0.454 2.321,0.667c0.454,0.129 0.9,0.262 1.354,0.387c0.042,0.013 0.092,0.029 0.138,0.042c0.55,0.15 1.108,0.267 1.658,0.412c2.458,0.646 4.925,1.275 7.412,1.834c0.809,0.183 1.634,0.329 2.442,0.5c2.246,0.475 4.496,0.954 6.763,1.358c1.387,0.246 2.791,0.438 4.187,0.658c1.575,0.25 3.138,0.53 4.721,0.746c0.208,0.029 0.421,0.05 0.625,0.075c0.267,0.038 0.529,0.067 0.796,0.104c1.016,0.13 2.025,0.263 3.062,0.384c1.25,0.154 2.534,0.229 3.792,0.35c0.775,0.075 1.542,0.183 2.317,0.25c0.633,0.062 1.266,0.091 1.904,0.141c0.508,0.038 1.008,0.109 1.521,0.142c1.27,0.104 2.579,0.175 3.887,0.246c0.704,0.037 1.446,0.071 2.221,0.071c0.021,0.004 0.042,0.004 0.058,0.004c1.142,0.05 2.288,0.092 3.438,0.121c0.166,0.004 0.329,0.012 0.496,0.016c1.658,0.038 3.316,0.071 5.012,0.071c1.696,0 3.354,-0.033 5.013,-0.071c0.17,-0.004 0.333,-0.012 0.5,-0.016c1.15,-0.029 2.291,-0.071 3.433,-0.121c0.021,-0 0.042,-0 0.058,-0.004c0.775,-0 1.521,-0.034 2.225,-0.071c1.304,-0.071 2.613,-0.142 3.884,-0.246c0.512,-0.033 1.008,-0.104 1.525,-0.142c0.633,-0.05 1.27,-0.079 1.9,-0.141c0.779,-0.067 1.545,-0.175 2.316,-0.25c1.263,-0.121 2.546,-0.196 3.792,-0.35c1.033,-0.121 2.05,-0.254 3.062,-0.384c0.267,-0.037 0.534,-0.066 0.796,-0.104c0.209,-0.025 0.421,-0.046 0.629,-0.075c1.58,-0.216 3.142,-0.496 4.713,-0.746c1.396,-0.22 2.804,-0.412 4.187,-0.658c2.271,-0.404 4.521,-0.883 6.767,-1.358c0.813,-0.171 1.633,-0.317 2.442,-0.5c2.491,-0.559 4.954,-1.188 7.412,-1.834c0.55,-0.145 1.113,-0.262 1.663,-0.412c0.046,-0.013 0.087,-0.029 0.137,-0.042c0.454,-0.125 0.896,-0.258 1.346,-0.387c0.779,-0.213 1.55,-0.409 2.329,-0.667c0.758,-0.217 1.492,-0.475 2.246,-0.7c1.108,-0.337 2.229,-0.637 3.333,-0.996c1.125,-0.341 2.259,-0.716 3.384,-1.091c0.083,-0.03 0.166,-0.059 0.25,-0.088c2.533,-0.854 5.046,-1.783 7.537,-2.75c0.404,-0.154 0.821,-0.292 1.221,-0.446c0.942,-0.375 1.875,-0.754 2.796,-1.146c0.929,-0.362 1.858,-0.733 2.783,-1.116c28.558,-12.088 53.971,-30.175 74.679,-52.654l0.005,-0c1.754,-1.905 3.47,-3.834 5.154,-5.8c0.021,-0.021 0.037,-0.042 0.058,-0.067c1.663,-1.938 3.283,-3.904 4.875,-5.9c0.042,-0.05 0.088,-0.1 0.125,-0.15c1.567,-1.971 3.104,-3.971 4.6,-5.996c0.063,-0.079 0.121,-0.158 0.183,-0.237c1.467,-1.992 2.9,-4.013 4.305,-6.055c0.083,-0.12 0.17,-0.237 0.254,-0.358c1.366,-2.004 2.7,-4.033 4.004,-6.083c0.104,-0.171 0.212,-0.334 0.321,-0.496c1.262,-2.008 2.491,-4.042 3.695,-6.092c0.13,-0.221 0.267,-0.433 0.392,-0.654c1.167,-2.008 2.292,-4.037 3.396,-6.083c0.15,-0.275 0.304,-0.542 0.45,-0.817c1.063,-1.996 2.087,-4.017 3.092,-6.05c0.162,-0.337 0.337,-0.662 0.504,-0.996c0.966,-1.991 1.891,-4.004 2.8,-6.025c0.175,-0.391 0.366,-0.775 0.537,-1.166c0.871,-1.971 1.696,-3.963 2.513,-5.963c0.183,-0.458 0.383,-0.908 0.567,-1.371c0.779,-1.95 1.508,-3.916 2.224,-5.891c0.192,-0.525 0.401,-1.042 0.588,-1.567c0.683,-1.921 1.317,-3.867 1.95,-5.813c0.192,-0.591 0.404,-1.179 0.587,-1.77c0.596,-1.896 1.146,-3.813 1.688,-5.73c0.188,-0.658 0.392,-1.312 0.575,-1.975c0.513,-1.866 0.971,-3.75 1.429,-5.633c0.179,-0.729 0.379,-1.45 0.55,-2.179c0.425,-1.829 0.8,-3.679 1.179,-5.521c0.163,-0.804 0.35,-1.596 0.509,-2.4c0.346,-1.796 0.646,-3.608 0.946,-5.421c0.141,-0.866 0.312,-1.729 0.445,-2.6c0.275,-1.766 0.492,-3.546 0.721,-5.325c0.121,-0.933 0.267,-1.858 0.375,-2.791c0.209,-1.813 0.363,-3.638 0.525,-5.463c0.079,-0.912 0.192,-1.817 0.259,-2.729c0.154,-1.967 0.245,-3.942 0.341,-5.921c0.042,-0.787 0.109,-1.571 0.138,-2.362c0.108,-2.775 0.162,-5.563 0.162,-8.363c0,-3.708 -0.096,-7.4 -0.283,-11.067" style="fill-rule:nonzero;"/></svg>