<?xml version="1.0" encoding="UTF-8" standalone="no"?><!DOCTYPE svg PUBLIC "-//W3C//DTD SVG 1.1//EN" "http://www.w3.org/Graphics/SVG/1.1/DTD/svg11.dtd"><svg width="100%" height="100%" viewBox="0 0 431 431" version="1.1" xmlns="http://www.w3.org/2000/svg" xmlns:xlink="http://www.w3.org/1999/xlink" xml:space="preserve" xmlns:serif="http://www.serif.com/" style="fill-rule:evenodd;clip-rule:evenodd;stroke-linejoin:round;stroke-miterlimit:2;"><path d="M119.819,404.463c3.584,-18.429 6.959,-36.942 10.888,-55.25c3.567,-16.45 10.212,-34.709 26.787,-40.929c-0.2,2.079 0.021,4.279 -0.02,6.008c-0.15,9.642 -1.738,19.046 -3.68,28.462c-5.395,26.517 -10.029,51.825 2.109,75.98c-12.559,-3.675 -24.609,-8.492 -36.084,-14.271" style="fill:#ffca9e;fill-rule:nonzero;"/><path d="M117.454,297.972c0.704,-2.3 1.295,-4.466 1.662,-6.358c3.588,-18.5 1.004,-37.346 -6.637,-54.513c-0.934,-2.058 -4.046,-0.429 -3.117,1.663c5.654,12.692 8.471,26.287 7.775,40.25c-0.683,13.717 -5.842,25.467 -9.888,38.4c-2.925,9.342 -3.762,20.858 0.517,29.5c-3.083,-3.746 -5.542,-8.058 -7.133,-11.138c-5.404,-10.279 -3.121,-19.541 1.712,-29.504c0.192,-0.346 0.209,-0.733 0.15,-1.054c4.954,-9.567 5.559,-21.483 2.979,-31.779c-4.562,-18.017 -19.216,-38.046 -8.962,-56.283c6.396,7.145 14.217,11.595 21.704,7.833c1.417,4.583 3.346,8.95 5.596,13.112c-0.117,0.28 -0.204,0.667 -0.083,1.059c2.016,7.829 6.3,14.846 8.208,22.704c2.479,10.112 1.133,20.446 -0.729,30.504c-2.15,11.638 -4.117,23.213 3.604,33.138c-1.858,3.52 -3.333,7.275 -4.525,11.07c-0.208,0.63 -0.342,1.259 -0.546,1.884c-10.333,-10.713 -14.987,-25.163 -12.275,-40.029c0.008,-0.175 -0.017,-0.317 -0.012,-0.459" style="fill:#c4834d;fill-rule:nonzero;"/><path d="M95.489,298.331c-4.912,-8.7 -14.871,-12.825 -19.575,-22.188c-12.267,-24.371 2.313,-46.092 6.779,-70.067c0.617,-3.47 1.092,-6.95 1.425,-10.433c1.759,5.7 5.367,12.717 9.946,18.613c-7.246,11.8 -4.687,25.733 0.017,38.208c6.408,17.075 15.387,39.104 3.054,54.917c0.554,-2.942 -0.008,-6.15 -1.646,-9.05" style="fill:#c4834d;fill-rule:nonzero;"/><path d="M320.353,125.473c3.716,7.729 3,18.196 0.508,28.05c0.896,-8.159 1.317,-19.167 -0.508,-28.05" style="fill:#c4834d;fill-rule:nonzero;"/><path d="M316.349,115.364c-2.425,-3.434 -5.83,-5.459 -10.584,-5.142c0.729,-3.642 1.388,-7.325 1.9,-10.833c0.142,-0.809 -0.225,-1.317 -0.746,-1.555c-0.025,-0.179 -0.087,-0.32 -0.154,-0.466c0.038,-0 0.109,0.004 0.142,-0.029c2.221,-0.571 1.417,-4.038 -0.763,-3.425c-14.595,3.904 -27.716,4.8 -40.937,-3.713c-9.863,-6.342 -18.771,-14.162 -26.504,-22.958c-13.317,-15.121 -29.679,-14.371 -47.571,-7.929c-0.217,0.062 -0.396,0.195 -0.546,0.329c-14.042,-2.854 -27.496,3.966 -36.479,15.083c-7.408,9.175 -7.575,20.758 -5.463,32.025c-20.187,-10.871 -44.383,-4.887 -49.554,19.725c-2.462,11.658 -0.85,22.9 5.625,32.983c1.029,1.563 2.192,3.209 3.425,4.888c-10.033,-3.279 -19.104,3.562 -23.096,12.996c0.13,-14.696 -0.762,-29.513 0.355,-44.196c1.758,-23.463 10.179,-53.588 35.262,-61.296c0.713,0.667 1.979,0.829 2.696,-0.2c28.467,-40.533 93.804,-45.029 135.362,-23.583c18.338,9.479 32.121,25.329 48.317,37.825c5.292,4.091 23.954,18.25 32.379,13.254c-0.091,2.825 -0.221,5.646 -0.554,8.392c-0.712,5.62 -5.95,19.983 -14.171,18.908c-1.533,-4.454 -4.225,-8.283 -8.341,-11.083" style="fill:#c4834d;fill-rule:nonzero;"/><path d="M307.389,296.343c0.837,1.062 1.72,1.841 2.575,2.483c-4.421,-0.692 -9.205,-3.558 -11.367,-5.812c-4.388,-4.58 -5.796,-11 -4.533,-17.096c0.487,-2.204 -2.896,-3.313 -3.346,-1.071c-1.125,5.287 -0.479,10.654 1.754,15.242c-0.042,0.104 -0.079,0.208 -0.088,0.316c-0.208,4.759 0.755,9.254 2.796,13.379c-3.641,-2.32 -7.575,-4.404 -11.804,-6.325c-0.25,-0.65 -0.762,-1.062 -1.575,-1.166c-1.296,-0.167 -2.6,-0.296 -3.862,-0.459c-0.025,-0.25 -0.084,-0.533 -0.25,-0.787c-0.946,-1.704 -1.542,-3.463 -1.771,-5.417c-0.05,-0.391 -0.217,-0.679 -0.417,-0.904c-0.346,-3.337 -1.283,-6.95 -1.342,-9.567c-0.1,-4.845 0.359,-9.558 1.205,-14.295c0.004,-0.034 -0.03,-0.071 -0.025,-0.109c0.65,-0.358 1.337,-0.679 1.954,-1.075c5.158,-3.091 9.362,-7.037 12.783,-11.587c5.825,5.633 14.171,6.325 20.388,2.433c1.262,6.596 -3.109,9.475 -5.521,15.167c-1.146,2.775 -1.459,5.833 -1.634,8.796c-0.3,5.995 0.196,12.979 4.08,17.854" style="fill:#c4834d;fill-rule:nonzero;"/><path d="M272.285,292.577c0.117,0.533 0.425,1.608 0.871,2.692c-6.154,-0.7 -12.346,-1.334 -18.508,-1.855c-0.1,-0.183 -0.196,-0.329 -0.363,-0.512c-4.616,-4.342 -2.025,-14.088 -1.233,-19.883c0.821,-0.175 1.637,-0.28 2.425,-0.459c5.504,-1.341 10.962,-3.287 16.092,-5.779c-1.3,8.6 -1.196,17.263 0.716,25.796" style="fill:#c4834d;fill-rule:nonzero;"/><path d="M242.464,271.095c-8.284,1.112 -20.375,5.946 -17.071,15.812c1.012,9.729 13.525,11.209 21.979,11.129c0.733,11.271 1.658,23.717 -1.233,34.613c-1.83,6.85 -6.255,14.142 -13.65,15.933c-4.571,1.1 -8.334,-1.012 -12.605,-1.062c-5.67,-3.609 -10.791,-8.438 -14.17,-11.909c-9.4,-9.504 -10.875,-23.108 -13.384,-35.695c5.271,-0.967 9.984,-2.734 14.35,-5.575c0.584,0.412 1.321,0.445 1.954,-0.234c0.821,-0.954 1.496,-1.841 2.03,-2.7c0.112,-0.066 0.216,-0.133 0.329,-0.233c0.512,-0.4 0.641,-0.925 0.562,-1.425c5.85,-13.875 -28.921,-17.942 -36.108,-19.254c-7.746,-1.442 -15.017,-4.029 -21.608,-7.575c-0.071,-0.042 -0.138,-0.079 -0.242,-0.121c-15.217,-8.279 -26.871,-21.842 -32.204,-39.363c3.45,5.809 9.175,9.846 14.425,14.109c1.4,1.158 2.85,-0.509 2.525,-1.938c0.496,-0.754 0.508,-1.812 -0.454,-2.458c-6.25,-4.025 -12.38,-10.025 -12.517,-18.054c-0.063,-6.434 2.492,-13.779 6.083,-18.954c0.225,-0.309 0.275,-0.625 0.288,-0.942c1.316,-1.742 2.429,-3.708 3.171,-6.046c2.07,-6.725 0.529,-13.404 -2.555,-19.55c-5.087,-10.196 -13.045,-18.821 -12.141,-31.046c1.112,-15.362 19.162,-27.771 31.35,-14.25c0.808,0.884 1.916,0.613 2.546,-0.066c0.279,0.083 0.562,0.1 0.812,0.037c0.913,1.704 3.879,0.954 3.267,-1.092c-3.35,-11.208 -10.384,-30.895 0.162,-39.891c11.317,-9.675 24.65,-1.159 32.913,7.658c15.046,16.013 28.616,34.929 46.446,47.992c13.245,9.679 32.22,15.333 47.42,6.508c5.592,-3.246 9.68,-7.729 12.775,-12.925c0.175,17.396 0.313,34.825 0.346,52.217c0.042,19.546 2.259,41.875 -7.271,59.721c-9.495,17.845 -29.783,24.145 -48.52,26.629" style="fill:#ffca9e;fill-rule:nonzero;"/><path d="M219.982,247.574c-6.362,-2.338 -11.15,-7.534 -15.516,-12.642c11.146,3.646 24.483,4.917 34.191,0.475c-1.15,9.842 -7.933,16.15 -18.675,12.167" style="fill:#ff5959;fill-rule:nonzero;"/><path d="M217.535,234.317c-3.946,-0.25 -7.763,-1.021 -11.425,-2.171c3.612,-2.492 7.033,-7.817 10.262,-9.754c3.813,-2.271 8.942,-3.879 13.363,-2.442c5.017,1.604 7.392,6.234 9.312,10.734c-6.412,3.462 -15.095,4.062 -21.512,3.633" style="fill:#ff5959;fill-rule:nonzero;"/><path d="M229.398,287.403l1.784,-9.004c2.058,-1 4.154,-2.004 6.25,-2.971c1.858,-0.55 3.879,-0.637 5.8,-0.904c2.095,-0.263 4.125,-0.525 6.187,-0.821c-0.871,6.004 -2.675,13.913 0.442,19.283c-0.775,-0.033 -1.513,-0.137 -2.292,-0.175c-1.162,-0.087 -1.762,0.805 -1.771,1.725c-5.937,-0.016 -13.925,-0.766 -16.246,-5.854c0.125,-0.383 0.109,-0.808 -0.154,-1.279" style="fill:#c4834d;fill-rule:nonzero;"/><path d="M130.098,247.679c4.608,5.971 10.137,11.234 16.554,15.517c1.404,0.946 2.925,1.758 4.404,2.6c0.3,4.363 4.004,8.488 5.663,12.446c3.191,7.708 4.7,15.8 4.966,24.117c-0.971,0.308 -1.837,0.766 -2.546,1.545c-0.037,0.034 -0.075,0.105 -0.112,0.138c-9.883,2.842 -17.183,9.654 -22.3,18.087c-8.992,-13.02 -0.617,-30.354 0.029,-44.816c0.467,-11.217 -3.275,-19.975 -6.658,-29.634" style="fill:#c4834d;fill-rule:nonzero;"/><path d="M162.221,283.261c-0.796,-2.687 -1.775,-5.308 -2.9,-7.871c-0.896,-2.054 -2.963,-4.833 -4.046,-7.462c5.125,2.387 10.517,4.221 16.121,5.391c1.121,0.225 3.683,0.588 6.95,1.121c1.216,5.179 2.433,10.325 3.65,15.504c0.412,1.821 0.562,4.834 1.529,6.892c-3.092,1.2 -5.85,3.554 -9.538,4.658c-2.437,0.742 -5.737,0.242 -8.779,0.317c-0.25,-6.304 -1.104,-12.492 -2.987,-18.55" style="fill:#c4834d;fill-rule:nonzero;"/><path d="M182.132,275.106c12.134,2.171 29.121,6.325 25.7,14.017c-5.166,4.15 -10.858,6.579 -17.445,7.596c-0.138,-0.079 -0.205,-0.154 -0.346,-0.192c-0.871,-0.287 -1.675,-0.396 -2.454,-0.429c-0.063,-0.146 -0.125,-0.325 -0.263,-0.437c-0.067,-0.071 -0.137,-0.113 -0.167,-0.184c-0.204,-0.187 -0.412,-0.337 -0.654,-0.416c-0.304,-1.113 -0.479,-3.488 -0.662,-4.167c-0.475,-2.038 -0.946,-4.071 -1.425,-6.071c-0.771,-3.254 -1.509,-6.504 -2.284,-9.717" style="fill:#c4834d;fill-rule:nonzero;"/><path d="M117.439,203.677c-0.15,0.171 -0.333,0.3 -0.479,0.471c-1.371,1.354 0.129,3.4 1.596,3.042c-0.721,4.175 -0.45,8.425 1.058,12.629c0.063,0.146 0.163,0.325 0.225,0.471c-0.283,-0.013 -0.533,0.046 -0.821,0.141c-0.671,0.038 -1.254,0.4 -1.525,0.955c-6.291,3.958 -13.358,-0.846 -19.158,-7.788c-0.004,-0.708 -0.542,-1.329 -1.242,-1.537c-5.308,-6.917 -9.316,-15.3 -10.191,-19.438c-3.046,-14.062 9.487,-33.471 24.933,-22.454c0.275,0.187 0.521,0.267 0.804,0.279c6.979,9.788 13.104,20.629 4.908,31.538c-0.45,0.616 -0.404,1.216 -0.108,1.691" style="fill:#ffca9e;fill-rule:nonzero;"/><path d="M107.832,157.795c-7.466,-11.646 -8.654,-26.966 -2.191,-39.437c8.666,-16.75 28.441,-16.292 42.9,-7.692c0.308,0.192 0.658,0.246 0.941,0.221c0.713,3 1.538,5.937 2.363,8.8c-13.013,-10.904 -31.771,-0.821 -34.763,15.446c-2.104,11.496 3.3,21 8.959,30.441c4.075,6.863 8.054,14.25 5.491,22.475c-1.441,4.638 -4.583,7.642 -7.991,10.459c5.775,-14.621 -8.009,-28.742 -15.709,-40.713" style="fill:#c4834d;fill-rule:nonzero;"/><path d="M123.329,203.162c0.258,-0.2 0.517,-0.433 0.771,-0.671c-2.008,5.459 -2.396,10.917 -1.213,16.025c-1.754,-4.991 -1.512,-10.42 0.442,-15.354" style="fill:#c4834d;fill-rule:nonzero;"/><path d="M283.65,103.754c-15.108,6.6 -27.571,-3.075 -36.929,-14.345c-10.867,-13.034 -24.175,-30.734 -43.371,-25.092c-2.354,-1.096 -4.712,-2.154 -7.183,-3.008c10.937,-3.542 23.008,-5.509 33.054,1.479c4.658,3.25 7.963,8.416 11.917,12.446c3.446,3.512 7.225,6.72 11.083,9.758c7.508,5.954 15.5,12.217 24.929,14.654c4.334,1.113 8.709,1.271 13.109,0.942c-2.171,1.033 -4.338,2.137 -6.609,3.166" style="fill:#c4834d;fill-rule:nonzero;"/><path d="M298.262,101.016c-7.283,8.721 -21.954,12.729 -31.858,9.808c-11.096,-3.25 -21.13,-10.487 -28.625,-19.095c-8.305,-9.488 -18.255,-18.488 -29.492,-24.859c21.679,-2.666 32.912,26.675 48.733,37.209c6.075,4.091 13.346,6.641 20.717,5.35c7.417,-1.33 13.5,-6.325 20.525,-8.413" style="fill:#c4834d;fill-rule:nonzero;"/><path d="M200.264,67.676c0.517,0.309 1.071,0.613 1.654,0.925c3.146,1.621 6.509,2.234 9.579,3.963c7.792,4.308 14.934,11.375 20.68,18.067c9.983,11.508 23.858,23.583 39.866,25.291c8.863,0.925 20,-3.912 27.063,-10.875c-3.146,7.142 -9.984,13.759 -16.792,15.788c-9.208,2.804 -25.05,-3.988 -32.75,-8.925c-14.012,-9.042 -23.637,-23.784 -37.154,-33.65c-15.233,-11.075 -38.754,-16.196 -53.113,-4.221c4.046,-4.233 9.075,-7.617 14.221,-9.646c5.754,-2.254 12.009,-2.221 17.959,-0.892c3.395,0.755 5.929,2.525 8.787,4.175" style="fill:#c4834d;fill-rule:nonzero;"/><path d="M312.007,116.865c0.758,0.425 1.517,0.846 2.2,1.333c7.571,11.758 2.121,43.392 0.317,50.592c-0.438,1.816 -1.013,3.596 -1.517,5.375c-0.038,0.071 -0.075,0.171 -0.117,0.241c-0.154,0.313 -0.204,0.592 -0.216,0.875c-3.338,11.375 -7.617,22.525 -10.78,33.905c0.25,-8.684 -0.1,-17.425 -0.104,-25.98c-0.012,-1.379 -0.021,-2.758 -0.029,-4.175c0.079,-0.1 0.221,-0.166 0.296,-0.304c8.312,-12.808 11.171,-27.596 11.771,-42.662c0.229,-5.009 1.058,-14.054 -1.821,-19.2" style="fill:#c4834d;fill-rule:nonzero;"/><path d="M310.306,135.91c-0.158,4.304 -0.492,8.6 -1.108,12.85c-1.188,8.325 -3.554,16.237 -7.488,23.591c-0.079,-15.625 -0.158,-31.216 -0.341,-46.845c1.154,-2.846 2.066,-5.846 2.837,-8.884c2.204,-0.362 6.063,9.846 6.279,12.121c0.217,2.304 -0.079,4.838 -0.179,7.167" style="fill:#c4834d;fill-rule:nonzero;"/><path d="M302.058,110.94c-0.946,0.521 -1.071,1.754 -0.541,2.592c-0.867,3.567 -1.905,7.054 -3.296,10.421c-0.188,0.237 -0.304,0.516 -0.359,0.9c-1.775,4.091 -4.062,7.95 -7.116,11.379c-9.079,10.092 -22.663,11.992 -35.246,8.037c-23.175,-7.262 -39.654,-31.504 -55.317,-48.745c-10.004,-11.017 -21.758,-24.763 -38.304,-18.33c-0.612,0.255 -1.121,0.55 -1.662,0.809c11.675,-11.279 31.795,-8.363 45.487,0.025c14.896,9.079 24.696,23.833 38.363,34.341c9.604,7.325 28.112,15.471 40.308,11.455c8.358,-2.734 16.337,-11.213 19.067,-20.1c-0.392,2.42 -0.855,4.837 -1.384,7.216" style="fill:#c4834d;fill-rule:nonzero;"/><path d="M292.118,249.146c2.808,-4.362 4.971,-9.212 6.408,-14.45c0.579,5.255 2.333,10.246 6.167,13.813c0.912,0.887 2.05,1.612 3.225,2.158c0.125,0.359 0.362,0.617 0.633,0.809c-4.983,3.166 -11.675,2.725 -16.433,-2.33" style="fill:#c4834d;fill-rule:nonzero;"/><path d="M304.777,242.681c-2.721,-3.163 -2.992,-9.784 -2.921,-13.634c0.041,-2.541 0.366,-5.037 0.829,-7.525c1.571,3.638 3.496,7.154 4.454,10.979c1.117,4.325 1.129,8.78 0.929,13.225c-0.958,-0.645 -2.046,-1.612 -3.291,-3.045" style="fill:#c4834d;fill-rule:nonzero;"/><path d="M305.964,208.31c2.946,-9.763 6.38,-19.363 9.325,-29.092c0.117,-0.137 0.259,-0.237 0.371,-0.412c6.713,-0.688 9.946,1.333 9.734,6.025c0.35,1.708 0.379,3.441 0.158,5.162c-0.258,3.421 -1.3,6.979 -2.613,10.171c-3.52,8.358 -9.916,15.387 -19.25,16.312c0.688,-2.725 1.45,-5.483 2.275,-8.166" style="fill:#ffca9e;fill-rule:nonzero;"/><path d="M205.893,427.017c-15.625,-0.7 -30.75,-3.075 -45.279,-6.979c-12.633,-22.513 -9.762,-46.313 -4.471,-71.379c2.379,-11.313 4.692,-22.659 4.859,-34.209c0.05,-4.346 -1.292,-6.666 4.345,-8.712c1.58,-0.529 4.838,0.112 6.475,-0.134c4.984,-0.766 12.188,-6.945 16.905,-5.745c1.766,8.67 2.904,17.979 6.245,26.187c3.025,7.417 8.684,12.938 14.859,17.842c9.383,7.491 23.437,18.05 34.85,7.887c1.691,-1.512 -0.7,-4.129 -2.392,-2.616c-3.575,3.2 -7.737,3.825 -12.008,2.962c1.654,0.075 3.396,-0.129 5.341,-0.925c4.896,-1.971 8.709,-5.833 11.18,-10.421c6.791,-12.737 4.887,-30.25 3.991,-44.179c6.309,0.496 12.604,1.063 18.9,1.771c3.413,0.362 8.284,-0.267 10.479,2.833c1.196,1.684 0.505,7.692 0.625,9.642c1,12.417 2.675,24.754 6.559,36.629c4.196,12.842 10.554,25.529 11.104,39.267c0.417,10.446 -3.608,18.254 -7.729,26.621c-26.292,10.062 -54.996,14.995 -84.838,13.658" style="fill:#f87070;fill-rule:nonzero;"/><path d="M295.91,411.294c2.442,-4.733 4.637,-9.583 5.525,-15.233c1.479,-9.333 -0.229,-18.6 -2.971,-27.525c-3.329,-10.892 -8.092,-21.321 -10.629,-32.496c-2.571,-11.354 -3.425,-22.987 -4.146,-34.575c7.417,3.338 14.521,7.329 20.229,13.209c7.092,7.312 10.363,17.179 12.829,26.833c4.596,18.125 7.046,36.683 7.805,55.342c-9.117,5.529 -18.7,10.366 -28.642,14.445" style="fill:#ffca9e;fill-rule:nonzero;"/><path d="M328.002,394.744c-0.937,-20.93 -3.65,-42.363 -10.145,-62.238c-3.517,-10.583 -9.25,-18.329 -16.788,-24.429c0.238,-0.558 0.229,-1.229 -0.237,-1.813c-2.509,-3.225 -4.005,-6.862 -4.609,-10.775c1.179,1.255 2.513,2.409 4.021,3.359c6.638,4.187 17.696,5.779 21.4,-2.679c0.154,-0.346 0.167,-0.63 0.108,-0.913c1.83,-3.808 2.105,-11.429 -2.17,-6.746c-2.38,2.617 -2.917,8.246 -8.425,4.221c-3.934,-2.9 -4.35,-7.017 -4.359,-11.542c-0.033,-5.62 1.417,-10.291 4.625,-14.92c2.988,-4.355 3.709,-8.634 2.246,-13.755c-0.067,-0.179 -0.133,-0.287 -0.196,-0.395c0.854,-0.88 1.638,-1.871 2.288,-2.971c1.612,-2.05 2.304,-4.884 4.058,-6.959c1.496,-1.737 -1.496,-3.637 -2.954,-1.937c-1.567,1.875 -2.863,5.633 -5.333,6.333c0.225,-4.229 0.27,-8.504 -0.492,-12.671c-0.908,-5.058 -3.433,-9.45 -5.342,-14.166c13.509,-2.504 22.321,-16.142 23.384,-29.596c0.445,-5.242 -0.125,-12.975 -5.292,-16.067c-2.133,-1.262 -4.35,-1.471 -6.354,-0.887c5.496,-11.488 11.137,-29.329 8.291,-43.1c7.025,0.241 10.946,-6.896 13.859,-12.738c3.654,-7.366 3.287,-15.796 3.512,-23.912c0.084,-0.279 0.063,-0.563 0.034,-0.779c-0.025,-0.175 -0.017,-0.355 -0.009,-0.53c0.1,-2.291 -3.425,-2.45 -3.529,-0.158c-0.012,0.246 0.013,0.533 0,0.779c-3.492,11.613 -30.117,-9.375 -33.9,-12.408c-7.912,-6.467 -15.3,-13.55 -23.133,-20.083c-15.575,-13 -32.638,-21.75 -52.692,-25.409c-38.212,-6.975 -83.458,0.292 -107.962,32.909c-19.48,4.816 -31.08,23.1 -36.18,41.5c-6.504,23.6 -3.645,48.22 -4.27,72.366c-0.371,14.65 -2.655,28.471 -7.484,42.359c-3.604,10.229 -6.908,20.154 -6.625,31.158c0.217,8.6 2.296,17.35 6.625,24.825c4.296,7.437 27.259,22.746 16.984,31.121c-1.209,0.971 -0.496,2.454 0.65,2.891c0.195,1.175 1.704,2.163 2.916,1.155c0.367,-0.3 0.663,-0.605 0.996,-0.871c-2.396,8.479 -1.946,16.525 3.213,25.308c4.758,8.096 13.254,20.454 24.212,18.05c2.213,-0.5 1.45,-3.962 -0.8,-3.462c-0.358,0.087 -0.746,0.104 -1.137,0.125c-18.85,-6.821 -13.492,-26.938 -7.63,-44.205c0.796,12.159 6.013,23.559 15.234,32.313c-5.442,19.621 -8.275,40.346 -12.038,60.325c-70.154,-37.113 -116.612,-112.388 -112.825,-196.829c5.229,-116.684 104.438,-207.379 221.117,-202.15c116.717,5.233 207.383,104.441 202.15,221.121c-3.229,71.991 -42.2,134.075 -99.013,169.875" style="fill:#8ba8aa;fill-rule:nonzero;"/><path d="M242.956,390.508c1.717,-1.492 -0.667,-4.096 -2.383,-2.604c-15.163,13.162 -37.759,-5.021 -46.725,-17.742c-1.309,-1.858 -3.9,0.546 -2.604,2.379c10.312,14.638 34.762,32.688 51.712,17.967" style="fill-rule:nonzero;"/><path d="M260.782,380.797c-8.75,19.104 -36.05,40.579 -57.487,31.067c-2.079,-0.925 -3.15,2.442 -1.092,3.358c23.604,10.479 52.413,-12.521 61.942,-33.333c0.942,-2.067 -2.425,-3.133 -3.363,-1.092" style="fill-rule:nonzero;"/><path d="M217.535,234.317c-3.946,-0.25 -7.763,-1.021 -11.425,-2.171c3.612,-2.492 7.033,-7.817 10.262,-9.754c3.813,-2.271 8.942,-3.879 13.363,-2.442c5.017,1.604 7.392,6.234 9.312,10.734c-6.412,3.462 -15.095,4.062 -21.512,3.633m2.446,13.258c-6.363,-2.337 -11.15,-7.533 -15.513,-12.641c11.146,3.641 24.484,4.912 34.192,0.47c-1.154,9.846 -7.933,16.15 -18.679,12.171m26.371,-24.479c-0.992,2.288 -2.521,4.129 -4.355,5.638c-3.308,-7.359 -7.966,-13.188 -16.925,-12.775c-4.141,0.204 -7.883,1.695 -11.345,3.979c-1.821,1.225 -3.475,2.637 -5.1,4.154c-1.584,1.483 -4.034,5.65 -6.305,5.867c-0.425,0.054 -0.679,0.216 -0.904,0.454c-3.296,-1.421 -6.466,-3.188 -9.483,-5.267c-1.888,-1.287 -3.788,1.704 -1.904,2.992c2.471,1.7 5.546,3.287 8.941,4.746c-0.125,0.454 -0.041,0.987 0.359,1.5c7.121,8.308 16.046,18.887 28.254,17.808c10.821,-0.929 14.546,-9.138 14.737,-18.921c3.142,-2.192 5.671,-5.117 7.367,-9.071c0.908,-2.079 -2.471,-3.15 -3.337,-1.104" style="fill-rule:nonzero;"/><path d="M170.725,157.126c-4.113,-0 -8.429,1.158 -11.433,4.145c-1.284,1.284 -2.334,2.73 -3.18,4.275c-1.962,-1.275 -3.52,-3.212 -4.22,-5.383c-1.388,-4.287 -8.288,-2.767 -6.888,1.567c1.571,4.858 4.829,8.533 9.138,10.629l-0.025,0.517c-0.184,4.07 1.395,8.425 4.145,11.429c2.63,2.879 7.055,5.154 11.013,5.154c4.117,-0 8.433,-1.158 11.433,-4.146c2.992,-2.979 4.959,-6.717 5.154,-11.012l0.025,-0.592c0.184,-4.071 -1.395,-8.425 -4.145,-11.429c-2.63,-2.879 -7.055,-5.154 -11.017,-5.154" style="fill-rule:nonzero;"/><path d="M288.793,159.793c0.775,-1.746 -0.587,-3.904 -2.271,-4.45c-1.97,-0.637 -3.675,0.517 -4.445,2.271c-0.675,1.521 -1.696,2.846 -2.9,3.975c-2.425,-3.05 -6.142,-5.179 -11.217,-5.404c-20.421,-0.917 -21.879,30.825 -1.421,31.741c12.163,0.546 17.542,-10.475 15.629,-19.683c2.896,-2.2 5.117,-5.033 6.625,-8.45" style="fill-rule:nonzero;"/><path d="M328.002,394.744c-0.937,-20.93 -3.65,-42.363 -10.145,-62.238c-3.517,-10.583 -9.25,-18.329 -16.788,-24.429c0.238,-0.558 0.229,-1.229 -0.237,-1.813c-2.509,-3.225 -4.005,-6.862 -4.609,-10.775c1.179,1.255 2.513,2.409 4.021,3.359c6.638,4.187 17.696,5.779 21.4,-2.679c0.154,-0.346 0.167,-0.63 0.108,-0.913c1.83,-3.808 2.105,-11.429 -2.17,-6.746c-2.38,2.617 -2.917,8.246 -8.425,4.221c-3.934,-2.9 -4.35,-7.017 -4.359,-11.542c-0.033,-5.62 1.417,-10.291 4.625,-14.92c2.988,-4.355 3.709,-8.634 2.246,-13.755c-0.067,-0.179 -0.133,-0.287 -0.196,-0.395c0.854,-0.88 1.638,-1.871 2.288,-2.971c1.612,-2.05 2.304,-4.884 4.058,-6.959c1.496,-1.737 -1.496,-3.637 -2.954,-1.937c-1.567,1.875 -2.863,5.633 -5.333,6.333c0.225,-4.229 0.27,-8.504 -0.492,-12.671c-0.908,-5.058 -3.433,-9.45 -5.342,-14.166c13.509,-2.504 22.321,-16.142 23.384,-29.596c0.445,-5.242 -0.125,-12.975 -5.292,-16.067c-2.133,-1.262 -4.35,-1.471 -6.354,-0.887c5.496,-11.488 11.137,-29.329 8.291,-43.1c7.025,0.241 10.946,-6.896 13.859,-12.738c3.654,-7.366 3.287,-15.796 3.512,-23.912c0.084,-0.279 0.063,-0.563 0.034,-0.779c-0.025,-0.175 -0.017,-0.355 -0.009,-0.53c0.1,-2.291 -3.425,-2.45 -3.529,-0.158c-0.012,0.246 0.013,0.533 0,0.779c-3.492,11.613 -30.117,-9.375 -33.9,-12.408c-7.912,-6.467 -15.3,-13.55 -23.133,-20.083c-15.575,-13 -32.638,-21.75 -52.692,-25.409c-38.212,-6.975 -83.458,0.292 -107.962,32.909c-19.48,4.816 -31.08,23.1 -36.18,41.5c-6.504,23.6 -3.645,48.22 -4.27,72.366c-0.371,14.65 -2.655,28.471 -7.484,42.359c-3.604,10.229 -6.908,20.154 -6.625,31.158c0.217,8.6 2.296,17.35 6.625,24.825c4.296,7.437 27.259,22.746 16.984,31.121c-1.209,0.971 -0.496,2.454 0.65,2.891c0.195,1.175 1.704,2.163 2.916,1.155c0.367,-0.3 0.663,-0.605 0.996,-0.871c-2.396,8.479 -1.946,16.525 3.213,25.308c4.758,8.096 13.254,20.454 24.212,18.05c2.213,-0.5 1.45,-3.962 -0.8,-3.462c-0.358,0.087 -0.746,0.104 -1.137,0.125c-18.85,-6.821 -13.492,-26.938 -7.63,-44.205c0.796,12.159 6.013,23.559 15.234,32.313c-5.442,19.621 -8.275,40.346 -12.038,60.325c-70.154,-37.113 -116.612,-112.388 -112.825,-196.829c5.229,-116.684 104.438,-207.379 221.117,-202.15c116.717,5.233 207.383,104.441 202.15,221.121c-3.229,71.991 -42.2,134.075 -99.013,169.875m-32.091,16.55c2.441,-4.734 4.637,-9.584 5.525,-15.234c1.479,-9.333 -0.229,-18.6 -2.971,-27.525c-3.329,-10.891 -8.092,-21.321 -10.633,-32.496c-2.567,-11.354 -3.421,-22.983 -4.142,-34.575c7.417,3.338 14.521,7.334 20.229,13.209c7.092,7.316 10.363,17.179 12.829,26.833c4.592,18.125 7.046,36.683 7.804,55.342c-9.12,5.533 -18.7,10.366 -28.641,14.446m-90.017,15.725c-15.625,-0.7 -30.754,-3.08 -45.279,-6.98c-12.633,-22.516 -9.767,-46.312 -4.471,-71.383c2.379,-11.308 4.692,-22.658 4.854,-34.208c0.054,-4.342 -1.291,-6.667 4.35,-8.709c1.579,-0.529 4.838,0.113 6.475,-0.133c4.984,-0.767 12.188,-6.95 16.904,-5.746c1.767,8.667 2.905,17.975 6.246,26.188c3.025,7.412 8.684,12.933 14.859,17.841c9.383,7.488 23.437,18.05 34.85,7.888c1.691,-1.513 -0.7,-4.129 -2.392,-2.617c-3.575,3.2 -7.738,3.825 -12.008,2.963c1.654,0.075 3.395,-0.134 5.341,-0.929c4.896,-1.971 8.709,-5.83 11.179,-10.421c6.792,-12.734 4.888,-30.246 3.992,-44.175c6.304,0.491 12.604,1.058 18.9,1.766c3.413,0.367 8.283,-0.266 10.479,2.838c1.196,1.679 0.504,7.692 0.625,9.642c1,12.412 2.671,24.754 6.559,36.625c4.195,12.841 10.554,25.533 11.104,39.27c0.416,10.446 -3.609,18.25 -7.729,26.621c-26.292,10.059 -55,14.992 -84.838,13.659m100.071,-218.709c2.946,-9.762 6.379,-19.366 9.325,-29.096c0.117,-0.133 0.258,-0.233 0.371,-0.408c6.712,-0.687 9.946,1.333 9.733,6.025c0.35,1.708 0.379,3.442 0.158,5.163c-0.258,3.42 -1.3,6.979 -2.612,10.17c-3.521,8.359 -9.917,15.388 -19.25,16.313c0.687,-2.725 1.45,-5.483 2.275,-8.167m-1.188,34.371c-2.725,-3.162 -2.991,-9.783 -2.92,-13.633c0.037,-2.542 0.366,-5.038 0.829,-7.525c1.571,3.637 3.496,7.154 4.454,10.979c1.117,4.325 1.129,8.779 0.929,13.225c-0.962,-0.646 -2.046,-1.613 -3.292,-3.046m-12.658,6.467c2.808,-4.363 4.971,-9.217 6.408,-14.454c0.575,5.258 2.33,10.25 6.163,13.812c0.917,0.892 2.05,1.617 3.229,2.163c0.125,0.358 0.363,0.616 0.633,0.804c-4.983,3.171 -11.679,2.729 -16.433,-2.325m9.938,-138.209c-0.942,0.525 -1.067,1.755 -0.538,2.592c-0.867,3.567 -1.904,7.054 -3.296,10.421c-0.187,0.237 -0.308,0.517 -0.358,0.904c-1.775,4.088 -4.067,7.946 -7.117,11.379c-9.079,10.088 -22.666,11.988 -35.246,8.034c-23.179,-7.259 -39.658,-31.505 -55.32,-48.746c-10.005,-11.017 -21.755,-24.759 -38.305,-18.325c-0.612,0.254 -1.116,0.546 -1.662,0.804c11.675,-11.279 31.796,-8.363 45.487,0.025c14.9,9.079 24.696,23.833 38.363,34.342c9.604,7.325 28.117,15.47 40.308,11.454c8.359,-2.734 16.338,-11.213 19.067,-20.1c-0.388,2.421 -0.854,4.837 -1.383,7.216m8.25,24.971c-0.159,4.304 -0.492,8.6 -1.109,12.85c-1.187,8.321 -3.554,16.238 -7.491,23.592c-0.075,-15.625 -0.155,-31.217 -0.338,-46.846c1.154,-2.846 2.067,-5.846 2.838,-8.887c2.204,-0.359 6.062,9.85 6.279,12.125c0.216,2.304 -0.079,4.837 -0.179,7.166m1.7,-19.046c0.758,0.425 1.516,0.846 2.2,1.334c7.57,11.758 2.12,43.391 0.316,50.591c-0.437,1.821 -1.012,3.596 -1.516,5.375c-0.034,0.071 -0.075,0.175 -0.117,0.242c-0.154,0.313 -0.204,0.592 -0.217,0.875c-3.333,11.375 -7.616,22.525 -10.779,33.904c0.25,-8.683 -0.1,-17.425 -0.104,-25.979c-0.013,-1.379 -0.021,-2.758 -0.029,-4.175c0.079,-0.1 0.221,-0.167 0.296,-0.304c8.316,-12.808 11.17,-27.596 11.775,-42.663c0.225,-5.008 1.058,-14.054 -1.825,-19.2m-111.742,-49.187c0.517,0.308 1.071,0.612 1.654,0.925c3.146,1.621 6.508,2.233 9.579,3.962c7.792,4.305 14.934,11.375 20.679,18.067c9.98,11.508 23.859,23.583 39.863,25.292c8.862,0.925 20.004,-3.913 27.062,-10.875c-3.141,7.141 -9.979,13.758 -16.787,15.787c-9.208,2.804 -25.054,-3.987 -32.75,-8.925c-14.013,-9.041 -23.638,-23.783 -37.158,-33.654c-15.23,-11.071 -38.75,-16.192 -53.109,-4.217c4.042,-4.233 9.071,-7.616 14.217,-9.645c5.758,-2.255 12.012,-2.221 17.958,-0.892c3.396,0.754 5.934,2.525 8.792,4.175m97.996,33.337c-7.284,8.721 -21.95,12.73 -31.859,9.813c-11.091,-3.254 -21.125,-10.492 -28.62,-19.096c-8.305,-9.492 -18.259,-18.492 -29.492,-24.858c21.679,-2.671 32.908,26.671 48.729,37.208c6.075,4.088 13.346,6.638 20.721,5.346c7.412,-1.329 13.5,-6.325 20.521,-8.413m-14.613,2.742c-15.108,6.6 -27.571,-3.075 -36.929,-14.346c-10.862,-13.033 -24.175,-30.737 -43.371,-25.096c-2.354,-1.091 -4.708,-2.154 -7.179,-3.004c10.938,-3.541 23.008,-5.508 33.05,1.479c4.658,3.25 7.963,8.417 11.917,12.446c3.446,3.513 7.229,6.721 11.087,9.754c7.504,5.959 15.496,12.217 24.929,14.655c4.334,1.112 8.709,1.275 13.105,0.941c-2.167,1.034 -4.338,2.142 -6.609,3.171m-160.321,99.408c0.259,-0.2 0.517,-0.437 0.771,-0.675c-2.008,5.459 -2.396,10.921 -1.212,16.03c-1.754,-4.992 -1.509,-10.425 0.441,-15.355m-15.495,-45.37c-7.467,-11.646 -8.65,-26.967 -2.192,-39.438c8.667,-16.75 28.442,-16.287 42.9,-7.687c0.308,0.191 0.658,0.241 0.942,0.22c0.716,3 1.537,5.934 2.366,8.796c-13.012,-10.9 -31.775,-0.821 -34.766,15.446c-2.105,11.496 3.3,21 8.958,30.442c4.075,6.862 8.054,14.25 5.496,22.479c-1.446,4.633 -4.584,7.642 -7.996,10.454c5.775,-14.621 -8.008,-28.742 -15.708,-40.712m9.608,45.883c-0.15,0.171 -0.333,0.3 -0.479,0.471c-1.371,1.354 0.129,3.4 1.591,3.041c-0.716,4.175 -0.445,8.425 1.063,12.63c0.062,0.145 0.158,0.325 0.225,0.47c-0.283,-0.012 -0.533,0.046 -0.821,0.142c-0.671,0.038 -1.254,0.4 -1.525,0.954c-6.292,3.959 -13.358,-0.846 -19.162,-7.787c-0.005,-0.709 -0.538,-1.329 -1.238,-1.538c-5.308,-6.916 -9.317,-15.3 -10.192,-19.437c-3.045,-14.063 9.488,-33.471 24.934,-22.454c0.275,0.187 0.521,0.27 0.8,0.279c6.983,9.787 13.108,20.629 4.912,31.537c-0.45,0.617 -0.404,1.217 -0.108,1.692m64.692,71.429c12.133,2.171 29.12,6.325 25.704,14.017c-5.171,4.15 -10.863,6.579 -17.45,7.596c-0.138,-0.08 -0.204,-0.15 -0.342,-0.192c-0.871,-0.288 -1.679,-0.396 -2.458,-0.429c-0.063,-0.142 -0.125,-0.325 -0.263,-0.438c-0.066,-0.071 -0.133,-0.112 -0.166,-0.183c-0.205,-0.188 -0.409,-0.338 -0.655,-0.417c-0.304,-1.108 -0.479,-3.487 -0.662,-4.166c-0.471,-2.038 -0.946,-4.071 -1.421,-6.071c-0.775,-3.254 -1.512,-6.5 -2.287,-9.717m-19.913,8.154c-0.796,-2.683 -1.775,-5.308 -2.896,-7.871c-0.9,-2.054 -2.966,-4.833 -4.05,-7.462c5.125,2.387 10.521,4.221 16.125,5.392c1.121,0.225 3.684,0.587 6.946,1.12c1.217,5.184 2.438,10.325 3.65,15.505c0.417,1.82 0.563,4.833 1.533,6.891c-3.095,1.204 -5.85,3.554 -9.541,4.663c-2.438,0.737 -5.738,0.237 -8.779,0.312c-0.246,-6.304 -1.1,-12.491 -2.988,-18.55m-32.121,-35.579c4.609,5.967 10.138,11.233 16.554,15.517c1.405,0.946 2.925,1.754 4.405,2.6c0.3,4.358 4.004,8.483 5.662,12.446c3.192,7.708 4.7,15.8 4.963,24.116c-0.967,0.309 -1.834,0.763 -2.542,1.546c-0.038,0.033 -0.075,0.104 -0.113,0.133c-9.883,2.846 -17.183,9.659 -22.3,18.088c-8.991,-13.021 -0.616,-30.35 0.03,-44.813c0.466,-11.216 -3.275,-19.975 -6.659,-29.633m99.3,39.721l1.784,-9c2.058,-1.004 4.154,-2.008 6.25,-2.975c1.858,-0.55 3.879,-0.638 5.8,-0.904c2.095,-0.263 4.125,-0.525 6.187,-0.817c-0.871,6.004 -2.675,13.913 0.442,19.279c-0.775,-0.033 -1.513,-0.137 -2.292,-0.171c-1.162,-0.087 -1.767,0.8 -1.771,1.721c-5.937,-0.016 -13.925,-0.762 -16.246,-5.854c0.125,-0.379 0.109,-0.804 -0.154,-1.279m13.067,-16.308c-8.288,1.112 -20.375,5.945 -17.071,15.812c1.013,9.729 13.525,11.208 21.975,11.129c0.733,11.271 1.663,23.717 -1.229,34.617c-1.829,6.846 -6.254,14.137 -13.65,15.929c-4.575,1.104 -8.333,-1.008 -12.604,-1.058c-5.671,-3.613 -10.792,-8.438 -14.171,-11.913c-9.4,-9.504 -10.875,-23.108 -13.388,-35.696c5.275,-0.966 9.984,-2.733 14.355,-5.575c0.579,0.413 1.32,0.446 1.954,-0.233c0.821,-0.95 1.496,-1.842 2.029,-2.7c0.108,-0.067 0.217,-0.133 0.329,-0.233c0.513,-0.4 0.642,-0.925 0.558,-1.425c5.855,-13.875 -28.92,-17.942 -36.104,-19.254c-7.75,-1.442 -15.016,-4.03 -21.608,-7.575c-0.071,-0.038 -0.142,-0.08 -0.242,-0.121c-15.216,-8.279 -26.875,-21.842 -32.204,-39.363c3.45,5.809 9.175,9.846 14.425,14.109c1.396,1.158 2.85,-0.509 2.525,-1.934c0.496,-0.758 0.508,-1.816 -0.454,-2.462c-6.25,-4.025 -12.383,-10.025 -12.517,-18.054c-0.062,-6.434 2.492,-13.78 6.084,-18.955c0.225,-0.308 0.275,-0.62 0.287,-0.941c1.313,-1.742 2.429,-3.709 3.171,-6.042c2.067,-6.729 0.529,-13.408 -2.554,-19.554c-5.092,-10.192 -13.046,-18.821 -12.146,-31.046c1.112,-15.358 19.162,-27.767 31.354,-14.25c0.808,0.883 1.917,0.617 2.546,-0.062c0.279,0.083 0.562,0.095 0.812,0.033c0.913,1.704 3.88,0.954 3.267,-1.088c-3.354,-11.212 -10.387,-30.895 0.163,-39.895c11.316,-9.671 24.65,-1.159 32.912,7.658c15.046,16.017 28.617,34.933 46.446,47.992c13.246,9.679 32.217,15.337 47.421,6.508c5.591,-3.246 9.679,-7.729 12.771,-12.925c0.175,17.396 0.316,34.825 0.345,52.217c0.046,19.545 2.259,41.875 -7.27,59.72c-9.492,17.846 -29.78,24.15 -48.517,26.63m29.821,21.483c0.116,0.533 0.421,1.608 0.871,2.687c-6.155,-0.695 -12.346,-1.329 -18.509,-1.85c-0.1,-0.183 -0.196,-0.329 -0.362,-0.512c-4.617,-4.342 -2.025,-14.088 -1.234,-19.883c0.821,-0.175 1.638,-0.28 2.425,-0.459c5.505,-1.341 10.963,-3.287 16.092,-5.779c-1.3,8.6 -1.196,17.263 0.717,25.796m35.104,3.767c0.837,1.062 1.721,1.841 2.575,2.479c-4.425,-0.692 -9.204,-3.559 -11.371,-5.809c-4.383,-4.579 -5.792,-11.004 -4.533,-17.095c0.491,-2.205 -2.892,-3.313 -3.342,-1.071c-1.125,5.287 -0.479,10.654 1.754,15.241c-0.041,0.105 -0.079,0.209 -0.087,0.313c-0.213,4.762 0.754,9.258 2.796,13.379c-3.642,-2.317 -7.575,-4.404 -11.805,-6.325c-0.254,-0.646 -0.766,-1.058 -1.575,-1.162c-1.295,-0.167 -2.6,-0.296 -3.866,-0.459c-0.021,-0.25 -0.079,-0.533 -0.246,-0.787c-0.95,-1.704 -1.542,-3.463 -1.771,-5.417c-0.054,-0.392 -0.221,-0.683 -0.421,-0.904c-0.346,-3.338 -1.279,-6.95 -1.337,-9.567c-0.1,-4.846 0.358,-9.562 1.204,-14.296c0.004,-0.033 -0.033,-0.07 -0.029,-0.108c0.654,-0.358 1.341,-0.679 1.958,-1.079c5.154,-3.088 9.363,-7.038 12.779,-11.583c5.829,5.633 14.175,6.325 20.392,2.433c1.262,6.596 -3.108,9.475 -5.521,15.162c-1.15,2.775 -1.462,5.838 -1.633,8.8c-0.3,5.996 0.196,12.98 4.079,17.855m8.958,-180.98c-2.425,-3.433 -5.829,-5.458 -10.583,-5.141c0.729,-3.642 1.387,-7.325 1.9,-10.838c0.142,-0.804 -0.225,-1.316 -0.746,-1.55c-0.021,-0.179 -0.087,-0.321 -0.154,-0.466c0.037,-0 0.108,0.004 0.146,-0.03c2.216,-0.575 1.412,-4.037 -0.767,-3.429c-14.596,3.904 -27.712,4.804 -40.937,-3.708c-9.859,-6.342 -18.771,-14.163 -26.505,-22.958c-13.316,-15.121 -29.679,-14.371 -47.57,-7.93c-0.213,0.063 -0.396,0.196 -0.542,0.33c-14.046,-2.855 -27.5,3.962 -36.479,15.083c-7.413,9.175 -7.579,20.758 -5.467,32.021c-20.187,-10.871 -44.383,-4.888 -49.55,19.729c-2.467,11.658 -0.854,22.9 5.625,32.979c1.025,1.567 2.188,3.208 3.421,4.892c-10.033,-3.279 -19.104,3.562 -23.096,12.996c0.129,-14.7 -0.762,-29.513 0.354,-44.2c1.759,-23.459 10.179,-53.584 35.263,-61.296c0.712,0.671 1.979,0.833 2.696,-0.196c28.466,-40.538 93.804,-45.029 135.362,-23.588c18.338,9.484 32.121,25.334 48.317,37.83c5.291,4.087 23.954,18.25 32.379,13.254c-0.092,2.825 -0.217,5.646 -0.554,8.387c-0.709,5.621 -5.95,19.988 -14.171,18.909c-1.533,-4.45 -4.225,-8.28 -8.342,-11.08m4.004,10.109c3.717,7.729 3,18.196 0.509,28.05c0.896,-8.159 1.321,-19.167 -0.509,-28.05m-224.862,172.858c-4.913,-8.704 -14.871,-12.825 -19.575,-22.187c-12.267,-24.371 2.312,-46.092 6.779,-70.067c0.617,-3.471 1.092,-6.95 1.421,-10.433c1.762,5.695 5.371,12.716 9.946,18.612c-7.242,11.8 -4.688,25.733 0.021,38.208c6.408,17.075 15.387,39.105 3.05,54.917c0.558,-2.942 -0.005,-6.15 -1.642,-9.05m21.962,-0.358c0.705,-2.3 1.296,-4.467 1.667,-6.359c3.583,-18.5 1,-37.345 -6.642,-54.512c-0.933,-2.058 -4.045,-0.433 -3.116,1.662c5.654,12.692 8.475,26.288 7.775,40.25c-0.684,13.717 -5.842,25.467 -9.884,38.4c-2.929,9.342 -3.762,20.859 0.517,29.5c-3.087,-3.745 -5.546,-8.062 -7.137,-11.137c-5.405,-10.279 -3.117,-19.542 1.712,-29.504c0.192,-0.346 0.208,-0.734 0.15,-1.054c4.954,-9.567 5.558,-21.488 2.983,-31.78c-4.566,-18.02 -19.22,-38.045 -8.966,-56.283c6.396,7.146 14.216,11.596 21.704,7.833c1.421,4.584 3.346,8.95 5.6,13.113c-0.121,0.279 -0.208,0.662 -0.083,1.058c2.012,7.829 6.295,14.846 8.204,22.704c2.483,10.113 1.133,20.446 -0.729,30.505c-2.15,11.637 -4.117,23.212 3.604,33.137c-1.859,3.521 -3.334,7.271 -4.525,11.071c-0.204,0.625 -0.342,1.258 -0.546,1.883c-10.333,-10.712 -14.988,-25.162 -12.271,-40.029c0.008,-0.175 -0.021,-0.317 -0.017,-0.458m2.367,106.491c3.583,-18.433 6.958,-36.941 10.888,-55.25c3.566,-16.45 10.216,-34.708 26.787,-40.929c-0.2,2.075 0.021,4.275 -0.021,6.009c-0.15,9.641 -1.737,19.041 -3.679,28.462c-5.392,26.513 -10.029,51.821 2.108,75.975c-12.558,-3.675 -24.608,-8.487 -36.083,-14.267m105.204,-404.245c-118.621,-5.313 -219.487,86.862 -224.804,205.52c-3.867,86.238 43.796,163.055 115.663,200.634c1.07,0.575 2.175,1.121 3.25,1.662c12.408,6.246 25.504,11.288 39.154,15.046c1.675,0.463 3.316,0.892 4.996,1.317c13.666,3.408 27.85,5.491 42.454,6.146c29.066,1.304 57.05,-3.242 82.808,-12.584c1.654,-0.596 3.238,-1.196 4.854,-1.866c10.9,-4.213 21.342,-9.33 31.325,-15.205c1.163,-0.691 2.292,-1.383 3.45,-2.075c58.667,-36.212 99.054,-99.858 102.367,-173.787c5.321,-118.654 -86.858,-219.488 -205.517,-224.808" style="fill-rule:nonzero;"/></svg>