<?xml version="1.0" encoding="UTF-8" standalone="no"?><!DOCTYPE svg PUBLIC "-//W3C//DTD SVG 1.1//EN" "http://www.w3.org/Graphics/SVG/1.1/DTD/svg11.dtd"><svg width="100%" height="100%" viewBox="0 0 431 431" version="1.1" xmlns="http://www.w3.org/2000/svg" xmlns:xlink="http://www.w3.org/1999/xlink" xml:space="preserve" xmlns:serif="http://www.serif.com/" style="fill-rule:evenodd;clip-rule:evenodd;stroke-linejoin:round;stroke-miterlimit:2;"><path d="M123.473,406.217c1.446,-11.721 2.929,-23.442 4.375,-35.167c1.554,-12.391 2.437,-25.066 6.358,-36.966c0.6,-0.104 1.129,-0.496 1.271,-1.2c1.304,-6.709 6.921,-3.992 11.579,-0.317c6.217,27.575 3.954,55.575 -0.35,83.217c-7.979,-2.717 -15.712,-5.929 -23.233,-9.567" style="fill:#c73a3a;fill-rule:nonzero;"/><path d="M131.346,282.887c-13.416,-12.745 -39.229,-28.104 -30.508,-50.066c2.262,3.141 4.946,5.966 8.017,8.05c4.308,2.896 9.991,3.566 13.1,0.212c5.329,15.288 14.791,28.742 28.033,38.309c0.179,0.141 0.387,0.245 0.562,0.354c0.038,0.071 0,0.141 0.071,0.212c3.604,6.284 5.617,15.004 1.167,21.538c-2.683,3.987 -7.133,6.108 -11.65,6.037c-0.071,-0.071 -0.179,-0.104 -0.283,-0.175c-0.6,-0.283 -1.13,-0.25 -1.588,0c-0.812,-0.146 -1.625,-0.321 -2.404,-0.6c8.3,-5.829 1.837,-17.796 -4.517,-23.87" style="fill:#1c2733;fill-rule:nonzero;"/><path d="M81.525,202.421c-4.166,-11.05 -0.704,-25.388 2.542,-36.471c3.425,-11.721 9.254,-22.387 19.104,-29.908c1.8,-1.342 0.034,-4.413 -1.766,-3.038c-6.213,4.734 -10.946,10.596 -14.546,17.092c-0.529,-0.104 -1.096,-0.071 -1.592,0.387c-5.471,4.592 -9.283,4.063 -11.437,-1.52c-1.73,-1.055 -2.646,-2.33 -2.93,-3.775c4.2,1.375 8.934,1.412 12.605,-1.484c5.929,-4.625 3.67,-12.783 3.6,-19.279c-0.284,-23.829 12.183,-50.1 38.025,-53.137c5.295,1.412 11.125,1.025 14.758,-2.117c1.733,-1.483 -0.775,-3.992 -2.504,-2.471c-2.013,1.763 -5.684,2.117 -9.359,1.479c-0.279,-0.387 -0.741,-0.666 -1.412,-0.633c-0.283,0.037 -0.6,0.104 -0.917,0.142c-5.825,-1.625 -10.804,-5.617 -8.229,-10.313c5.121,4.946 12.079,5.05 18.892,2.158c4.908,-2.12 9.075,-5.333 12.608,-9.287c5.896,-6.638 13.167,-20.621 24.325,-13.629c0.317,0.212 0.633,0.279 0.917,0.246c2.683,1.941 5.721,3.32 9.146,3.92c4.591,0.813 8.791,-0.175 13.275,-0.954c3.179,-0.566 6.283,-1.587 9.533,-1.587c2.646,-0.25 5.262,0.246 7.804,1.412c5.083,5.65 5.4,10.45 1.058,14.367c-2.295,-0.104 -4.591,-0.175 -6.637,0.179c-2.225,0.421 -1.271,3.813 0.954,3.425c1.975,-0.387 3.954,-0.387 5.967,-0.354c0.387,0.212 0.846,0.246 1.304,0.033c5.017,0.179 9.921,0.463 14.021,-3.387c1.479,-1.413 -0.392,-3.529 -1.979,-2.825c3.212,-7.45 -0.921,-15.925 -8.967,-19.879c-6.075,-3.034 -13.138,-2.825 -19.742,-2.296c-6.283,0.496 -15.641,3.179 -22.737,1.837c6.041,-1.271 12.325,-6.037 17.654,-7.979c8.721,-3.212 19.312,-4.729 28.246,-1.587c11.371,3.954 19.562,17.829 8.829,27.362c-1.729,1.483 0.775,3.988 2.471,2.471c1.837,-1.588 3.141,-3.388 4.133,-5.263c20.513,-10.27 37,3.746 52.963,15.042c4.762,3.354 14.545,7.804 19.275,4.029c0.529,7.025 -1.13,13.946 -5.471,18.959c-0.921,-0.034 -1.484,0.741 -1.559,1.625c-1.62,1.479 -3.491,2.754 -5.75,3.708c-0.92,-3.321 -1.766,-6.675 -2.933,-9.958c-2.4,-6.675 -5.683,-13.134 -10.662,-18.292c-11.371,-11.721 -26.338,-10.308 -41.096,-7.342c-2.229,0.459 -1.309,3.884 0.916,3.425c12.921,-2.612 26.305,-4.346 36.721,5.509c8.192,7.766 11.192,18.641 14.05,29.195c2.329,8.475 8.121,19.28 17.234,18.363c-5.863,6.354 -15.042,8.546 -23.238,4.058c-9.6,-5.187 -9.987,-14.791 -12.992,-24.008c-3.354,-10.379 -11.366,-17.475 -22.066,-19.525c-2.225,-0.421 -3.175,2.967 -0.954,3.392c13.558,2.612 18.395,12.145 21.433,24.5c1.729,7.1 4.554,13.208 10.733,17.441c0.742,0.496 1.446,0.921 2.192,1.346c-0,0.704 0.35,1.446 1.233,1.729c16.454,5.188 19.596,21.009 18.009,36.438c-0.746,7.204 -5.367,16.629 -2.475,23.833c-3.105,-0.496 -5.471,-3.004 -7.096,-7.521c0.108,-0.566 -0.034,-1.058 -0.317,-1.45c-1.587,-7.096 -4.412,-12.921 -10.592,-17.725c-7.837,-6.071 -21.183,-8.296 -26.095,-17.404c-0,-0.037 -0.034,-0.037 -0.067,-0.071c-0.954,-1.941 -2.154,-3.812 -3.533,-5.579c-6,-7.733 -24.467,-19.737 -19.7,-30.717c0.916,-2.05 -2.121,-3.85 -3.038,-1.766c-4.058,9.287 2.263,15.854 8.404,22.279c4.909,5.121 10.946,10.204 14.371,16.417c0.175,0.283 0.279,0.566 0.425,0.85c0.033,0.141 0.033,0.245 0.104,0.35c0.034,0.145 0.142,0.212 0.213,0.354c1.446,3.141 2.258,6.571 2.116,10.062c-0.175,4.696 -1.833,7.275 -3.779,10.204c2.192,-9.212 -3.741,-17.97 -13.662,-20.337c-10.417,-2.504 -22.842,-3.213 -28.421,-14.05c-3.283,-6.358 -2.225,-13.313 0.95,-19.525c4.237,-5.792 9.287,-10.983 13.562,-14.758c1.092,-0.955 0.421,-2.33 -0.637,-2.792c-0.496,-0.388 -1.167,-0.492 -1.838,-0.033c-3.92,2.683 -7.908,6.566 -11.12,11.05c-6.005,6.67 -10.875,14.3 -11.971,23.337c-1.092,9.108 1.729,17.971 8.546,23.904c-6.005,-3.671 -13.205,-3.921 -19.35,-7.45c-8.05,-4.587 -13.663,-12.958 -15.5,-21.996c-4.167,-20.195 9.854,-42.65 29.129,-48.975c2.154,-0.704 1.237,-4.091 -0.917,-3.387c-19.492,6.354 -33.579,27.117 -32.379,47.667c0.529,8.683 4.062,17.158 10.029,23.512c7.554,8.054 17.758,7.983 26.446,13.138c-15.713,10.412 -36.617,1.554 -45.229,-14.938c-8.509,-16.383 -8.934,-42.121 5.05,-55.679c1.658,-1.588 -0.85,-4.063 -2.475,-2.471c-16.275,15.746 -15.25,46.783 -2.821,64.471c0.492,0.708 1.058,1.342 1.587,2.012c-11.654,-1.516 -19.35,-8.333 -23.375,-17.266c-0.458,-2.079 -1.129,-4.129 -2.012,-6.142c-0.033,-0.037 -0.071,-0.071 -0.071,-0.104c-2.575,-10.313 -1.058,-22.208 4.275,-31.813c10.517,-18.783 36.471,-33.966 58.079,-33.158c2.296,0.108 2.263,-3.421 0,-3.529c-25.808,-0.954 -55.929,18.571 -64.825,42.971c-3.954,10.804 -3.391,22.704 1.059,32.483c1.766,8.333 -1.13,16.525 -7.696,22.525c-5.192,4.767 -9.075,8.792 -11.159,15.679c-2.4,7.942 -1.025,16.804 4.942,21.325c-13.875,-1.129 -19.417,-18.854 -18.675,-31.529c0.813,-13.417 7.167,-25.562 16.946,-34.567c1.658,-1.52 -0.846,-4.025 -2.508,-2.47c-12.605,11.579 -19.7,28.491 -17.721,45.687c1.096,9.392 5.754,18.75 13.204,23.408c0.104,0.388 0.317,0.742 0.704,1.025c4.063,2.896 3.921,8.967 4.908,13.875c-0.529,-0.245 -0.987,-0.6 -1.412,-1.2c-0.388,-0.529 -0.917,-0.741 -1.479,-0.741c-4.063,-4.167 -9.996,-5.863 -15.713,-3.25c-8.475,3.812 -10.029,13.1 -8.65,21.329c0.704,4.304 2.221,8.787 4.375,12.954c-0.033,0.146 -0.141,0.283 -0.175,0.463c-1.696,10.237 -12.287,9.92 -17.758,3.883c3.704,-0.533 6.779,-3 8.117,-6.992c2.791,-8.121 -3.705,-15.571 -6.355,-22.633" style="fill:#1c2733;fill-rule:nonzero;"/><path d="M213.683,35.697c-4.767,-1.729 -9.888,-0.917 -14.688,0c-8.191,1.554 -15.887,2.05 -21.925,-1.479c5.046,0.633 10.559,-0.567 15.463,-1.063c4.946,-0.495 9.958,-1.2 14.9,-1.02c9.217,0.316 27.896,8.825 15.396,21.287c-0.142,0.142 -0.246,0.321 -0.317,0.458c-1.062,0.18 -2.154,0.246 -3.283,0.284c4.341,-6.921 3.671,-15.042 -5.546,-18.467" style="fill:#1c2733;fill-rule:nonzero;"/><path d="M330.905,140.879c0.637,5.334 3.108,11.371 8.546,13.417c1.696,0.6 3.316,0.779 4.766,0.529c-3.85,8.333 -11.512,20.342 -17.512,10.771c-1.2,-1.942 -4.275,-0.175 -3.075,1.762c1.412,2.23 2.896,3.605 4.417,4.38c0.07,0.25 0.245,0.495 0.491,0.708c9.004,7.096 5.65,23.512 1.942,32.554c-1.304,3.104 -2.929,6.179 -4.517,9.283c1.554,-4.8 2.434,-9.741 2.684,-13.945c0.35,-6.992 -0.071,-16.913 -6.78,-21.113c-4.766,-3.004 -9.216,-1.308 -12.995,1.692c0.037,-0.279 -0.071,-0.6 -0.28,-0.884c-4.662,-6.175 0.809,-17.546 1.517,-24.641c0.638,-6.25 0.846,-12.817 -0.562,-18.959c-1.63,-7.029 -5.725,-12.679 -11.3,-16.562c8.05,-0.104 15.816,-4.554 20.087,-12.288c0.85,-1.554 -0.883,-3.283 -2.433,-2.433c-4.625,2.646 -11.196,-0.671 -13.809,-4.554c-1.62,-2.367 -2.437,-5.296 -3.175,-8.054c2.859,-1.163 5.296,-2.788 7.342,-4.659c10.063,4.204 18.15,11.9 22.138,22.209c4.062,10.52 1.275,20.125 2.508,30.787" style="fill:#1c2733;fill-rule:nonzero;"/><path d="M96.709,204.893c2.541,-9.604 14.441,-12.392 19.983,-3.954c0.496,0.775 1.342,0.916 2.05,0.671c1.233,0.704 2.613,1.095 4.238,0.916c1.445,-0.104 2.083,-1.375 1.516,-2.646c-1.908,-4.45 -1.516,-9.533 -3.391,-13.662c2.895,0.633 6.075,0.704 9.537,-0.108c0.104,-0.038 0.208,-0.109 0.317,-0.142c0.212,0.033 0.387,0.071 0.6,0.104c2.258,0.179 2.258,-3.35 -0,-3.529c-18.079,-1.658 -9.5,-24.221 -2.013,-31.354c3.496,-3.317 7.025,-6.071 9.321,-10.45c1.692,-3.284 2.575,-6.746 2.825,-10.238c5.4,7.238 13.45,12.392 23.9,13.417c0.742,0.071 1.238,-0.283 1.483,-0.779c12.888,13.241 33.896,16.737 48.196,2.721c0.884,-0.85 0.567,-2.155 -0.35,-2.792c-11.091,-7.592 -11.408,-17.9 -7.275,-27.854c-0.037,3.421 0.704,6.85 2.542,10.062c3.533,6.142 10.592,10.309 17.087,12.496c4.909,1.663 10.1,1.625 15.009,3.108c8.225,2.471 12.216,10.488 9.071,18.113c-0.53,-0 -1.021,0.212 -1.342,0.846c-1.304,2.437 -0.175,5.05 2.792,5.296c5.862,0.495 9.108,-10.734 9.745,-14.792c0.388,-2.471 0.35,-4.838 0.034,-7.133c3.816,2.825 8.475,4.695 12.783,6.92c10.133,5.225 15.642,11.334 18.042,21.996c-0.671,7.696 6.212,10.979 13.454,10.559c-0.708,0.67 -1.379,1.375 -2.017,2.083c-1.516,1.696 0.988,4.2 2.509,2.504c6.075,-6.704 14.512,-7.904 17.229,2.967c1.308,5.262 0.708,11.866 -0.354,17.054c-2.15,10.379 -8.934,27.046 -22.455,24.471c-0.425,-0.109 -0.812,-0 -1.129,0.175c-0.987,-0.388 -2.437,0.141 -2.541,1.554c-2.117,27.008 -25,43.992 -48.796,52.217c-7.2,2.512 -15.534,4.52 -20.021,11.337c-4.375,6.671 -1.729,13.767 2.475,19.808c1.271,1.838 4.342,0.071 3.033,-1.804c-0.246,-0.316 -0.421,-0.633 -0.633,-0.954c2.542,0.567 5.225,1.238 6.567,3.217c0.07,0.104 0.104,0.246 0.141,0.387c-0.671,4.059 -1.308,8.154 -1.908,12.217c-2.929,9.217 -10.029,17.762 -20.654,16.208c-13.559,-1.979 -23.796,-16.737 -28.034,-29.166c5.509,0.495 10.909,-0.071 14.475,-3.709c0.6,-0.071 1.163,-0.458 1.375,-1.233c0.071,-0.25 0.142,-0.529 0.213,-0.813c0.458,-0.775 0.883,-1.591 1.237,-2.579c0.213,-0.671 0.034,-1.2 -0.354,-1.554c0.85,-5.154 0.459,-10.417 -4.271,-13.767c-2.579,-1.837 -5.895,-2.262 -8.966,-2.616c-6.5,-0.704 -12.784,-1.2 -19.067,-3.034c-24.929,-7.204 -43.642,-26.87 -50.917,-51.55c-0.137,-1.025 -1.091,-1.658 -1.941,-1.658c-0.671,0 -1.304,0.388 -1.446,1.267c-1.8,10.558 -12.854,-0.175 -15.254,-3.034c-3.354,-3.954 -5.863,-8.612 -7.379,-13.558c-1.342,-4.308 -2.471,-9.712 -1.271,-14.229" style="fill:#ffca9e;fill-rule:nonzero;"/><path d="M302.729,244.897c5.154,7.129 6.638,16.454 2.613,24.538c-2.329,4.733 -7.238,7.695 -9.392,12.5c-2.683,6.037 0.458,11.475 6.146,12.783c-2.613,3.812 -7.029,3.633 -11.054,1.729c-0.459,-0.425 -0.884,-0.812 -1.342,-1.237c-0.425,-1.13 -1.554,-1.375 -2.433,-1.059c-1.73,-1.341 -3.25,-2.896 -4.238,-4.412c-3.071,-4.696 -3.954,-10.063 -3.179,-15.538c0.037,-0.316 -0,-0.6 -0.071,-0.846c11.792,-9.675 19.913,-22.845 21.608,-38.133c9.534,1.554 16.384,-4.237 20.834,-12.183c-0.463,1.416 -0.85,2.829 -1.096,4.275c-0.633,3.85 1.271,9.391 4.483,10.379c-4.237,6.817 -12.037,14.583 -18.816,5.617c-0.425,-0.534 -0.992,-0.746 -1.555,-0.709c-1.45,-0.883 -3.67,0.671 -2.508,2.296" style="fill:#1c2733;fill-rule:nonzero;"/><path d="M233.35,300.541c-0.07,-0.246 -0.212,-0.425 -0.354,-0.6c1.167,-3.354 2.684,-4.942 6.534,-6.921c2.929,-1.483 6.141,-2.504 9.32,-3.496c1.909,7.204 7.909,14.125 15.184,18.571c-4.946,1.379 -9.959,1.908 -15.079,1.063c-5.013,-0.813 -13.663,-3.217 -15.605,-8.617" style="fill:#1c2733;fill-rule:nonzero;"/><path d="M243.802,311.91c-0.25,0.25 -0.53,0.458 -0.78,0.708l-0.033,-0c-3.812,-0.6 -7.417,-1.483 -11.05,-2.683c-0.496,-1.521 -0.533,-3.005 -0.179,-5.121c2.683,3.741 7.096,5.933 12.042,7.096" style="fill:#1c2733;fill-rule:nonzero;"/><path d="M252.204,288.395c0.704,-0.246 1.413,-0.458 2.083,-0.704c7.734,-2.967 15.184,-6.746 21.925,-11.584c-0.387,8.759 2.934,17.375 10.63,22.351c0.245,0.179 0.529,0.283 0.779,0.425c1.129,1.837 2.575,3.108 4.621,4.095c-1.375,2.046 -2.967,3.567 -4.696,4.663c-0.704,-0.146 -1.409,0.137 -1.763,0.846c-12.146,5.187 -30.437,-7.875 -33.579,-20.092" style="fill:#1c2733;fill-rule:nonzero;"/><path d="M156.062,283.347c6.037,3.563 12.533,6.284 19.312,8.121c0.813,0.213 1.696,0.354 2.508,0.563c-0.283,6.146 -7.908,13.596 -12.995,16.491c-5.259,2.963 -11.159,3.284 -16.771,1.975c-0.175,-0.387 -0.421,-0.67 -0.738,-0.883c2.15,-0.95 4.163,-2.329 5.859,-4.2c5.541,-6.212 5.508,-14.687 2.825,-22.067" style="fill:#1c2733;fill-rule:nonzero;"/><path d="M181.377,292.81c1.979,0.35 3.954,0.671 5.967,0.883c2.4,0.246 7.875,0 9.85,1.025l0.529,0.634c-1.904,7.346 -9.038,11.546 -16.913,13.558c-0.066,0 -0.104,-0.037 -0.175,-0.037c-0.637,-0.138 -1.166,0.075 -1.554,0.462c-3.637,0.775 -7.379,1.129 -10.733,1.129c6,-3.954 12.358,-10.875 13.029,-17.654" style="fill:#1c2733;fill-rule:nonzero;"/><path d="M200.336,298.74l3.817,4.871c-0.179,2.192 -0.604,4.346 -1.167,6.463c-3.391,4.875 -10.171,3.746 -15.221,3.108l-0.104,0c-0.6,-0.742 -1.271,-1.446 -2.012,-2.012c6.566,-2.4 12.254,-6.392 14.687,-12.43" style="fill:#1c2733;fill-rule:nonzero;"/><path d="M162.806,313.252c0.246,0.25 0.6,0.459 1.025,0.496c4.941,0.563 11.05,0.246 16.946,-1.129c0.212,0.067 0.387,0.175 0.6,0.246c0.033,0.137 -0,0.246 0.07,0.421c12.255,36.087 19.771,73.441 22.525,111.4c-2.083,-9.463 -5.295,-18.609 -9.954,-27.188c-4.204,-7.804 -8.933,-14.866 -12.254,-23.162c-2.154,-5.475 -4.096,-10.946 -7.096,-16.029c-6.108,-10.455 -15.146,-20.163 -24.504,-28.038c0,-0.071 -0.033,-0.175 -0.033,-0.279c-0.25,-0.921 -0.992,-1.275 -1.767,-1.2c-0.212,-0.213 -0.458,-0.425 -0.708,-0.604c-4.2,-3.388 -9.529,-4.625 -12.813,-1.659c0.175,-6.25 4.059,-11.262 10.271,-13.204c5.792,1.763 11.9,2.013 17.692,-0.071" style="fill:#c73a3a;fill-rule:nonzero;"/><path d="M150.023,416.88c4.237,-26.729 6.567,-53.775 1.45,-80.467c1.058,0.988 1.8,1.805 2.15,2.121c3.462,3.317 6.817,6.709 9.925,10.379c7.521,8.863 11.546,18.396 15.85,29.021c3.283,8.05 8.3,15.042 12.287,22.704c4.309,8.263 7.346,17.021 9.184,26.059c-17.621,-1.167 -34.675,-4.521 -50.846,-9.817" style="fill:#c73a3a;fill-rule:nonzero;"/><path d="M215.378,427.225c-2.576,0 -5.155,-0.033 -7.696,-0.141c-2.471,-37.25 -9.605,-73.971 -21.15,-109.525c0.07,0.071 0.179,0.141 0.283,0.179c4.625,13.804 16.171,30.046 31.35,32.129c9.075,1.271 15.254,-2.896 19.317,-9.25c-1.696,12.992 -3.075,26.021 -3.992,39.083c-0.742,10.771 -1.271,21.538 -1.167,32.309c0.038,3.991 -0.35,9.425 -0.104,14.546c-5.541,0.458 -11.158,0.67 -16.841,0.67" style="fill:#fff;fill-rule:nonzero;"/><path d="M236.245,426.202c0,-1.483 0,-2.896 -0.07,-4.025c-0.284,-5.083 -0.355,-10.171 -0.317,-15.254c0.071,-9.638 0.6,-19.313 1.304,-28.917c1.45,-20.475 3.954,-40.85 7.379,-61.083c0.038,-0.208 0,-0.421 0,-0.6c1.167,-1.838 2.863,-2.892 4.979,-3.283c0.18,-0.034 0.317,-0.142 0.459,-0.209c5.971,0.421 12.004,-0.321 16.312,-1.662c0.671,-0.213 0.988,-0.671 1.129,-1.2c5.58,2.683 11.584,3.85 16.917,2.65c-4.312,11.825 -12.996,21.571 -19.421,32.304c-6.108,10.242 -11.262,20.975 -15.5,32.129c-4.521,11.933 -7.946,24.292 -10.133,36.863c-0.496,2.929 -1.767,7.591 -2.475,12.254c-0.213,-0 -0.388,0.033 -0.563,0.033" style="fill:#c73a3a;fill-rule:nonzero;"/><path d="M282.321,416.386c1.658,-28.738 3.321,-57.479 5.017,-86.258c0.104,-2.259 -3.43,-2.259 -3.534,-0c-1.729,29.166 -3.392,58.295 -5.083,87.425c-12.254,3.849 -25.033,6.599 -38.133,8.191c0.6,-3.25 1.341,-6.287 1.587,-7.875c0.779,-5.046 1.8,-10.062 2.967,-15.004c2.933,-12.287 7.029,-24.292 12.179,-35.804c4.629,-10.238 10.137,-20.088 16.387,-29.409c5.575,-8.299 11.509,-16.137 14.58,-25.704c15.079,5.221 15.608,33.4 17.441,46.675c2.121,15.396 3.392,30.896 3.921,46.43c-8.792,4.412 -17.9,8.191 -27.329,11.333" style="fill:#c73a3a;fill-rule:nonzero;"/><path d="M313.146,403.288c-0.742,-18.609 -2.542,-37.109 -5.509,-55.505c-2.012,-12.637 -2.966,-32.591 -16.345,-38.52c1.904,-1.555 3.633,-3.567 5.012,-6.25c0.317,-0.634 0.246,-1.305 -0.104,-1.834c4.375,-0.179 8.329,-2.475 10.346,-7.45c0.421,-1.096 -0.675,-2.262 -1.7,-2.262c-4.834,-5.296 -5.504,-9.567 -2.079,-12.779c0.879,-0.955 1.729,-1.875 2.575,-2.863c0.637,-0.775 1.27,-1.55 1.804,-2.4c1.937,-3.038 3.175,-6.496 3.741,-10.063c0.742,-4.766 0.175,-9.358 -1.52,-13.629c8.508,3.388 17.866,-6.179 21.575,-14.441c0.741,-1.73 -1.309,-3.742 -2.788,-2.15c-4.167,-1.413 -5.121,-4.03 -2.9,-7.805c0.533,-1.837 1.238,-3.637 2.083,-5.37c1.346,-3.138 2.967,-6.175 4.45,-9.284c2.542,-5.296 4.555,-10.591 5.33,-16.421c0.991,-7.2 0.954,-16.308 -3.917,-22.17c7.733,-2.4 15.183,-16.313 16.667,-22.246c0.562,-2.221 -2.58,-3 -3.392,-0.917c-6.992,1.588 -10.875,-0.458 -11.758,-6.142c-0.421,-2.683 -0.53,-5.404 -0.317,-8.12c0.104,-3.85 0.567,-7.625 0.317,-11.509c-0.35,-5.9 -1.621,-11.758 -4.163,-17.129c-4.483,-9.567 -12.325,-16.592 -21.75,-20.9c5.542,-7.096 6.742,-17.162 4.554,-26.8c-0.462,-2.046 -3.321,-1.408 -3.462,0.458c-0.917,12.642 -23.479,-6.495 -25.667,-8.116c-4.521,-3.392 -9.321,-6.429 -14.583,-8.583c-9.709,-3.988 -19.95,-4.555 -29.588,-0.809c1.588,-8.687 -3.991,-18.046 -12.779,-22.246c-7.662,-3.637 -16.704,-3.566 -24.896,-2.012c-3.987,0.775 -7.871,1.979 -11.616,3.6c-5.967,2.579 -15.392,11.087 -21.675,4.625c-1.484,-1.479 -3.638,0.425 -2.792,2.154c0.708,1.45 1.592,2.825 2.508,4.096c-4.591,-0.388 -9.179,1.625 -12.958,5.05c-4.308,3.917 -7.1,9.146 -11.229,13.171c-6.179,6.07 -18.817,13.204 -25.809,3.987c-0.637,-0.846 -1.941,-1.304 -2.754,-0.35c-5.508,6.179 -2.437,12.038 3.317,15.496c-11.475,2.967 -21.221,10.487 -27.4,20.904c-4.129,6.883 -6.529,14.758 -7.658,22.667c-0.6,4.487 -0.813,8.971 -0.705,13.454c0.067,2.15 0.984,5.329 0.421,7.45c-1.871,7.271 -6.741,11.262 -13.841,7.837c-1.305,-0.637 -2.505,0.142 -2.684,1.517c-1.304,10.521 8.371,16.525 16.738,12.642c-2.4,5.437 -4.2,11.229 -5.475,17.196c-1.659,7.908 -3.529,17.229 -2.221,25.279c0.562,3.496 1.8,6.566 3.387,9.708c2.684,5.296 10.63,23.871 -3.108,20.975c-1.55,-0.316 -2.717,1.2 -2.012,2.579c4.308,8.509 14.937,11.367 21.325,6.529c-1.092,8.967 2.333,17.938 8.158,25.28c4.237,5.366 9.533,9.745 14.758,14.091c3.321,2.75 6.675,5.471 9.779,8.438c4.592,4.341 12.959,16.066 2.65,19.737c-1.45,0.529 -1.729,2.329 -0.425,3.213c2.613,1.762 5.58,2.683 8.546,2.825c0.213,0.104 0.425,0.175 0.6,0.246c-6.883,3.741 -10.171,11.229 -8.579,19.416c-4.308,11.796 -5.333,24.363 -6.887,36.721c-1.517,12.358 -3.071,24.683 -4.588,37.038c-69.133,-34.954 -116.621,-106.625 -116.621,-189.213c0,-116.796 95.046,-211.846 211.846,-211.846c116.833,0 211.846,95.05 211.846,211.846c0,81.563 -46.325,152.492 -114.079,187.908" style="fill:#8ba8aa;fill-rule:nonzero;"/><path d="M217.143,258.343c7.534,-0.937 15.017,-2.933 17.467,-10.846c1.35,-4.35 -5.467,-6.208 -6.808,-1.875c-1.525,4.925 -9.53,5.934 -13.905,5.93c-4.737,-0.005 -8.687,-2.142 -11.895,-5.48c-3.155,-3.283 -8.142,1.713 -4.996,4.992c5.358,5.579 12.437,8.238 20.137,7.279" style="fill-rule:nonzero;"/><path d="M252.684,216.384c13.317,7.929 34.7,-9.35 34.642,-23.246c-0.017,-4.371 -2.525,-7.15 -5.842,-8.442c-1.35,-1.333 -3.112,-2.291 -5.042,-2.65c-2.625,-0.483 -5.42,-0.033 -8.066,0.904c-7.621,1.559 -13.088,6.705 -17.563,13.13c-4.358,6.258 -5.741,15.775 1.871,20.304" style="fill-rule:nonzero;"/><path d="M183.039,216.384c7.613,-4.529 6.233,-14.046 1.871,-20.304c-4.475,-6.425 -9.942,-11.571 -17.558,-13.13c-2.646,-0.937 -5.442,-1.387 -8.071,-0.904c-1.925,0.359 -3.692,1.317 -5.038,2.65c-3.321,1.292 -5.829,4.071 -5.846,8.442c-0.058,13.896 21.325,31.175 34.642,23.246" style="fill-rule:nonzero;"/><path d="M313.146,403.287c-0.742,-18.608 -2.542,-37.108 -5.509,-55.504c-2.012,-12.637 -2.966,-32.591 -16.345,-38.521c1.904,-1.554 3.633,-3.566 5.012,-6.25c0.317,-0.633 0.246,-1.304 -0.104,-1.833c4.375,-0.179 8.329,-2.475 10.346,-7.45c0.421,-1.096 -0.675,-2.262 -1.7,-2.262c-4.834,-5.296 -5.504,-9.567 -2.079,-12.779c0.879,-0.955 1.729,-1.875 2.575,-2.863c0.637,-0.775 1.27,-1.55 1.804,-2.4c1.937,-3.038 3.175,-6.496 3.741,-10.063c0.742,-4.766 0.175,-9.358 -1.52,-13.629c8.508,3.388 17.866,-6.179 21.575,-14.441c0.741,-1.73 -1.309,-3.742 -2.788,-2.15c-4.167,-1.413 -5.121,-4.03 -2.9,-7.805c0.533,-1.837 1.238,-3.637 2.083,-5.37c1.346,-3.138 2.967,-6.175 4.45,-9.284c2.542,-5.296 4.555,-10.591 5.33,-16.421c0.991,-7.2 0.954,-16.308 -3.917,-22.17c7.733,-2.4 15.183,-16.313 16.667,-22.246c0.562,-2.221 -2.58,-3 -3.392,-0.917c-6.992,1.588 -10.875,-0.458 -11.758,-6.142c-0.421,-2.683 -0.53,-5.404 -0.317,-8.12c0.104,-3.85 0.567,-7.625 0.317,-11.509c-0.35,-5.9 -1.621,-11.758 -4.163,-17.129c-4.483,-9.567 -12.325,-16.592 -21.75,-20.9c5.542,-7.096 6.742,-17.162 4.554,-26.8c-0.462,-2.046 -3.321,-1.408 -3.462,0.458c-0.917,12.642 -23.479,-6.495 -25.667,-8.116c-4.521,-3.392 -9.321,-6.429 -14.583,-8.584c-9.709,-3.987 -19.95,-4.554 -29.588,-0.808c1.588,-8.687 -3.991,-18.046 -12.779,-22.246c-7.662,-3.637 -16.704,-3.566 -24.896,-2.012c-3.987,0.775 -7.871,1.979 -11.616,3.6c-5.967,2.579 -15.392,11.087 -21.675,4.625c-1.484,-1.479 -3.638,0.425 -2.792,2.154c0.708,1.45 1.592,2.825 2.508,4.096c-4.591,-0.388 -9.179,1.625 -12.958,5.05c-4.308,3.916 -7.1,9.146 -11.229,13.171c-6.179,6.07 -18.817,13.204 -25.809,3.987c-0.637,-0.846 -1.941,-1.304 -2.754,-0.35c-5.508,6.179 -2.437,12.038 3.317,15.496c-11.475,2.967 -21.221,10.487 -27.4,20.904c-4.129,6.883 -6.529,14.758 -7.658,22.667c-0.6,4.487 -0.813,8.971 -0.705,13.454c0.067,2.15 0.984,5.329 0.421,7.45c-1.871,7.271 -6.741,11.262 -13.841,7.837c-1.305,-0.637 -2.505,0.142 -2.684,1.517c-1.304,10.521 8.371,16.525 16.738,12.642c-2.4,5.437 -4.2,11.229 -5.475,17.196c-1.659,7.908 -3.529,17.229 -2.221,25.279c0.562,3.496 1.8,6.566 3.387,9.708c2.684,5.296 10.63,23.871 -3.108,20.975c-1.55,-0.316 -2.717,1.2 -2.012,2.579c4.308,8.509 14.937,11.367 21.325,6.529c-1.092,8.967 2.333,17.938 8.158,25.28c4.237,5.366 9.533,9.746 14.758,14.091c3.321,2.75 6.675,5.471 9.779,8.438c4.592,4.342 12.959,16.067 2.65,19.737c-1.45,0.529 -1.729,2.33 -0.425,3.213c2.613,1.762 5.58,2.683 8.546,2.825c0.213,0.104 0.425,0.175 0.6,0.246c-6.883,3.741 -10.171,11.229 -8.579,19.416c-4.308,11.796 -5.333,24.363 -6.887,36.721c-1.517,12.358 -3.071,24.683 -4.588,37.038c-69.133,-34.954 -116.621,-106.625 -116.621,-189.213c0,-116.796 95.046,-211.846 211.846,-211.846c116.833,0 211.846,95.05 211.846,211.846c0,81.563 -46.325,152.492 -114.079,187.908m-30.825,13.1c1.658,-28.741 3.321,-57.483 5.016,-86.258c0.105,-2.258 -3.429,-2.258 -3.533,0c-1.729,29.163 -3.387,58.296 -5.083,87.421c-12.254,3.85 -25.034,6.604 -38.134,8.192c0.6,-3.246 1.342,-6.284 1.588,-7.871c0.779,-5.05 1.8,-10.067 2.967,-15.009c2.933,-12.287 7.029,-24.291 12.183,-35.8c4.625,-10.241 10.133,-20.091 16.383,-29.412c5.579,-8.296 11.509,-16.133 14.579,-25.704c15.08,5.225 15.609,33.4 17.442,46.679c2.121,15.392 3.392,30.892 3.921,46.429c-8.792,4.413 -17.9,8.192 -27.329,11.333m-46.075,9.817c-0,-1.483 -0,-2.896 -0.071,-4.029c-0.283,-5.083 -0.354,-10.167 -0.317,-15.25c0.071,-9.638 0.6,-19.317 1.304,-28.917c1.451,-20.479 3.955,-40.854 7.38,-61.083c0.033,-0.213 -0,-0.425 -0,-0.6c1.166,-1.838 2.862,-2.896 4.979,-3.283c0.175,-0.038 0.316,-0.142 0.458,-0.213c5.967,0.425 12.004,-0.317 16.313,-1.658c0.671,-0.213 0.987,-0.675 1.129,-1.2c5.579,2.683 11.583,3.846 16.912,2.646c-4.308,11.829 -12.991,21.575 -19.416,32.308c-6.113,10.237 -11.263,20.971 -15.5,32.129c-4.521,11.933 -7.946,24.292 -10.138,36.863c-0.492,2.929 -1.762,7.591 -2.471,12.25c-0.212,-0 -0.387,0.037 -0.562,0.037m-20.867,1.021c-2.579,-0 -5.154,-0.033 -7.7,-0.142c-2.471,-37.25 -9.6,-73.971 -21.146,-109.525c0.071,0.071 0.175,0.142 0.284,0.179c4.625,13.805 16.171,30.046 31.35,32.13c9.075,1.27 15.254,-2.896 19.312,-9.25c-1.691,12.991 -3.071,26.02 -3.987,39.083c-0.742,10.771 -1.271,21.537 -1.167,32.308c0.038,3.992 -0.35,9.425 -0.104,14.546c-5.542,0.458 -11.158,0.671 -16.842,0.671m-65.354,-10.346c4.237,-26.725 6.567,-53.775 1.446,-80.462c1.058,0.983 1.8,1.8 2.154,2.116c3.458,3.317 6.817,6.709 9.921,10.38c7.521,8.862 11.546,18.395 15.854,29.024c3.283,8.05 8.296,15.038 12.287,22.7c4.309,8.263 7.342,17.021 9.18,26.059c-17.617,-1.167 -34.671,-4.521 -50.842,-9.817m12.779,-103.625c0.25,0.246 0.6,0.459 1.025,0.492c4.942,0.566 11.05,0.246 16.946,-1.129c0.213,0.07 0.392,0.175 0.6,0.245c0.037,0.142 0,0.246 0.075,0.425c12.25,36.088 19.771,73.442 22.525,111.396c-2.083,-9.462 -5.296,-18.608 -9.958,-27.187c-4.2,-7.804 -8.934,-14.863 -12.25,-23.163c-2.155,-5.471 -4.096,-10.946 -7.096,-16.029c-6.113,-10.45 -15.15,-20.158 -24.504,-28.033c-0,-0.071 -0.038,-0.175 -0.038,-0.284c-0.246,-0.916 -0.987,-1.27 -1.762,-1.2c-0.217,-0.212 -0.463,-0.42 -0.709,-0.6c-4.204,-3.387 -9.533,-4.625 -12.816,-1.658c0.175,-6.25 4.062,-11.262 10.275,-13.204c5.787,1.762 11.895,2.012 17.687,-0.071m37.534,-14.512l3.812,4.871c-0.175,2.191 -0.6,4.345 -1.162,6.462c-3.392,4.871 -10.171,3.742 -15.221,3.108l-0.105,0c-0.599,-0.741 -1.27,-1.45 -2.012,-2.012c6.567,-2.404 12.25,-6.392 14.688,-12.429m-18.963,-5.934c1.979,0.355 3.958,0.671 5.971,0.884c2.4,0.246 7.871,-0 9.85,1.025l0.529,0.633c-1.908,7.346 -9.042,11.546 -16.912,13.558c-0.071,0 -0.109,-0.033 -0.175,-0.033c-0.638,-0.142 -1.167,0.071 -1.555,0.458c-3.637,0.775 -7.379,1.13 -10.733,1.13c6,-3.955 12.354,-10.875 13.025,-17.655m-25.312,-9.462c6.037,3.567 12.533,6.287 19.312,8.121c0.813,0.212 1.696,0.354 2.508,0.566c-0.283,6.142 -7.908,13.592 -12.995,16.488c-5.259,2.967 -11.159,3.283 -16.771,1.975c-0.175,-0.388 -0.421,-0.667 -0.742,-0.879c2.154,-0.954 4.167,-2.334 5.863,-4.204c5.541,-6.213 5.508,-14.688 2.825,-22.067m96.141,5.05c0.704,-0.246 1.413,-0.458 2.084,-0.708c7.733,-2.963 15.183,-6.742 21.925,-11.58c-0.388,8.759 2.933,17.371 10.629,22.35c0.245,0.175 0.529,0.284 0.779,0.425c1.129,1.834 2.575,3.105 4.621,4.096c-1.375,2.046 -2.967,3.567 -4.696,4.659c-0.704,-0.142 -1.408,0.141 -1.763,0.85c-12.145,5.187 -30.437,-7.875 -33.579,-20.092m-8.404,23.512c-0.246,0.25 -0.529,0.463 -0.775,0.709l-0.037,-0c-3.813,-0.6 -7.413,-1.484 -11.05,-2.684c-0.492,-1.52 -0.53,-3 -0.175,-5.12c2.683,3.745 7.095,5.933 12.037,7.095m-10.45,-11.366c-0.071,-0.246 -0.212,-0.425 -0.354,-0.6c1.167,-3.354 2.683,-4.942 6.533,-6.921c2.929,-1.483 6.142,-2.504 9.321,-3.496c1.908,7.204 7.908,14.121 15.183,18.571c-4.945,1.379 -9.958,1.908 -15.079,1.062c-5.012,-0.812 -13.662,-3.216 -15.604,-8.616m69.379,-55.646c5.154,7.133 6.638,16.454 2.613,24.537c-2.329,4.734 -7.238,7.7 -9.392,12.5c-2.683,6.038 0.458,11.475 6.146,12.784c-2.613,3.812 -7.029,3.633 -11.054,1.729c-0.459,-0.425 -0.884,-0.813 -1.342,-1.233c-0.425,-1.134 -1.554,-1.38 -2.433,-1.063c-1.729,-1.342 -3.25,-2.896 -4.238,-4.412c-3.071,-4.696 -3.954,-10.063 -3.179,-15.534c0.038,-0.321 0,-0.604 -0.071,-0.85c11.792,-9.675 19.913,-22.846 21.609,-38.129c9.533,1.55 16.383,-4.242 20.833,-12.183c-0.463,1.412 -0.85,2.825 -1.096,4.271c-0.633,3.85 1.271,9.391 4.483,10.379c-4.237,6.816 -12.037,14.583 -18.816,5.616c-0.425,-0.529 -0.992,-0.741 -1.555,-0.704c-1.45,-0.883 -3.67,0.667 -2.508,2.292m-206.021,-40.004c2.542,-9.6 14.442,-12.392 19.988,-3.954c0.492,0.779 1.337,0.92 2.046,0.67c1.237,0.709 2.612,1.096 4.237,0.917c1.446,-0.104 2.084,-1.375 1.517,-2.646c-1.904,-4.45 -1.517,-9.533 -3.388,-13.662c2.892,0.633 6.071,0.704 9.534,-0.109c0.104,-0.033 0.212,-0.104 0.316,-0.141c0.213,0.037 0.388,0.071 0.6,0.108c2.259,0.175 2.259,-3.354 0,-3.533c-18.079,-1.659 -9.5,-24.221 -2.012,-31.35c3.496,-3.321 7.025,-6.075 9.321,-10.454c1.696,-3.284 2.579,-6.742 2.825,-10.238c5.4,7.238 13.45,12.392 23.9,13.417c0.746,0.071 1.237,-0.284 1.483,-0.779c12.892,13.241 33.9,16.737 48.196,2.72c0.883,-0.845 0.567,-2.154 -0.35,-2.791c-11.088,-7.588 -11.408,-17.9 -7.275,-27.854c-0.038,3.425 0.708,6.849 2.542,10.062c3.533,6.142 10.595,10.308 17.091,12.496c4.904,1.662 10.096,1.625 15.004,3.108c8.225,2.471 12.217,10.488 9.071,18.113c-0.529,-0 -1.021,0.212 -1.337,0.85c-1.309,2.433 -0.179,5.05 2.787,5.296c5.863,0.491 9.113,-10.734 9.746,-14.796c0.388,-2.471 0.35,-4.838 0.033,-7.129c3.817,2.82 8.475,4.691 12.784,6.916c10.133,5.229 15.641,11.333 18.041,21.996c-0.671,7.7 6.213,10.983 13.454,10.558c-0.708,0.671 -1.379,1.38 -2.016,2.084c-1.517,1.695 0.992,4.2 2.508,2.508c6.075,-6.708 14.513,-7.908 17.234,2.967c1.304,5.258 0.704,11.862 -0.355,17.05c-2.154,10.383 -8.933,27.05 -22.458,24.47c-0.425,-0.104 -0.808,0 -1.129,0.175c-0.988,-0.387 -2.433,0.142 -2.542,1.555c-2.116,27.008 -24.996,43.995 -48.796,52.22c-7.2,2.509 -15.533,4.521 -20.016,11.334c-4.379,6.675 -1.734,13.771 2.471,19.808c1.27,1.838 4.341,0.071 3.033,-1.8c-0.246,-0.316 -0.421,-0.637 -0.633,-0.954c2.541,0.563 5.225,1.238 6.566,3.213c0.071,0.108 0.109,0.245 0.142,0.387c-0.671,4.063 -1.308,8.158 -1.908,12.217c-2.93,9.216 -10.025,17.762 -20.655,16.208c-13.558,-1.979 -23.795,-16.738 -28.033,-29.167c5.508,0.496 10.908,-0.07 14.475,-3.704c0.6,-0.071 1.167,-0.462 1.375,-1.237c0.075,-0.246 0.146,-0.529 0.213,-0.813c0.462,-0.775 0.883,-1.587 1.237,-2.575c0.213,-0.671 0.033,-1.2 -0.354,-1.554c0.85,-5.158 0.458,-10.417 -4.271,-13.771c-2.575,-1.837 -5.896,-2.258 -8.967,-2.612c-6.5,-0.709 -12.783,-1.204 -19.066,-3.038c-24.929,-7.2 -43.642,-26.871 -50.917,-51.55c-0.137,-1.025 -1.092,-1.658 -1.942,-1.658c-0.666,-0 -1.304,0.387 -1.445,1.271c-1.8,10.554 -12.85,-0.175 -15.255,-3.038c-3.354,-3.954 -5.858,-8.612 -7.379,-13.558c-1.341,-4.304 -2.471,-9.708 -1.271,-14.229m234.196,-64.013c0.638,5.334 3.109,11.371 8.546,13.417c1.696,0.6 3.317,0.779 4.767,0.529c-3.85,8.333 -11.513,20.338 -17.513,10.771c-1.2,-1.942 -4.271,-0.175 -3.071,1.762c1.409,2.23 2.892,3.605 4.413,4.38c0.071,0.25 0.246,0.495 0.492,0.708c9.004,7.096 5.65,23.512 1.945,32.554c-1.308,3.104 -2.933,6.179 -4.52,9.283c1.554,-4.8 2.437,-9.741 2.683,-13.945c0.354,-6.992 -0.071,-16.913 -6.779,-21.113c-4.767,-3.004 -9.217,-1.308 -12.992,1.692c0.033,-0.279 -0.071,-0.6 -0.283,-0.884c-4.663,-6.175 0.812,-17.545 1.516,-24.641c0.638,-6.25 0.85,-12.817 -0.562,-18.959c-1.625,-7.029 -5.721,-12.679 -11.3,-16.562c8.05,-0.104 15.817,-4.554 20.092,-12.288c0.845,-1.554 -0.884,-3.283 -2.438,-2.433c-4.625,2.646 -11.192,-0.671 -13.804,-4.554c-1.625,-2.367 -2.438,-5.296 -3.179,-8.054c2.858,-1.163 5.296,-2.788 7.346,-4.659c10.062,4.205 18.145,11.9 22.137,22.209c4.058,10.521 1.271,20.125 2.504,30.787m-117.221,-105.183c-4.766,-1.729 -9.887,-0.917 -14.687,-0c-8.192,1.554 -15.888,2.05 -21.925,-1.479c5.046,0.633 10.554,-0.567 15.462,-1.063c4.946,-0.491 9.959,-1.2 14.9,-1.021c9.217,0.317 27.896,8.825 15.396,21.288c-0.141,0.142 -0.246,0.321 -0.316,0.462c-1.063,0.175 -2.159,0.246 -3.288,0.28c4.346,-6.921 3.675,-15.038 -5.542,-18.467m-132.158,166.725c-4.162,-11.05 -0.704,-25.388 2.542,-36.471c3.425,-11.721 9.254,-22.387 19.104,-29.908c1.8,-1.342 0.033,-4.413 -1.767,-3.038c-6.212,4.734 -10.946,10.596 -14.546,17.092c-0.529,-0.108 -1.095,-0.071 -1.587,0.387c-5.475,4.592 -9.288,4.063 -11.442,-1.52c-1.729,-1.059 -2.646,-2.33 -2.929,-3.775c4.2,1.375 8.933,1.412 12.604,-1.484c5.934,-4.625 3.671,-12.783 3.6,-19.279c-0.279,-23.829 12.184,-50.1 38.025,-53.137c5.296,1.412 11.125,1.025 14.759,-2.117c1.733,-1.483 -0.775,-3.992 -2.505,-2.471c-2.012,1.763 -5.683,2.117 -9.358,1.479c-0.279,-0.387 -0.737,-0.666 -1.412,-0.633c-0.28,0.037 -0.6,0.104 -0.917,0.142c-5.825,-1.625 -10.804,-5.617 -8.225,-10.313c5.121,4.946 12.075,5.05 18.887,2.158c4.909,-2.12 9.075,-5.333 12.609,-9.287c5.896,-6.638 13.166,-20.621 24.325,-13.629c0.316,0.212 0.633,0.279 0.916,0.246c2.684,1.941 5.721,3.32 9.146,3.92c4.592,0.813 8.792,-0.175 13.275,-0.954c3.179,-0.566 6.284,-1.587 9.534,-1.587c2.645,-0.25 5.262,0.246 7.804,1.412c5.083,5.646 5.4,10.45 1.058,14.367c-2.296,-0.104 -4.587,-0.175 -6.637,0.179c-2.225,0.421 -1.271,3.813 0.954,3.425c1.979,-0.387 3.954,-0.387 5.966,-0.354c0.388,0.212 0.846,0.246 1.309,0.033c5.012,0.179 9.916,0.463 14.016,-3.387c1.48,-1.413 -0.387,-3.529 -1.979,-2.825c3.213,-7.45 -0.921,-15.925 -8.966,-19.879c-6.075,-3.034 -13.138,-2.825 -19.738,-2.296c-6.287,0.496 -15.642,3.179 -22.742,1.837c6.042,-1.271 12.325,-6.037 17.655,-7.979c8.725,-3.212 19.316,-4.729 28.25,-1.587c11.366,3.954 19.558,17.829 8.825,27.362c-1.73,1.483 0.775,3.988 2.47,2.471c1.838,-1.588 3.142,-3.388 4.134,-5.263c20.512,-10.27 37,3.746 52.962,15.042c4.763,3.354 14.546,7.804 19.275,4.029c0.529,7.025 -1.129,13.946 -5.471,18.959c-0.92,-0.034 -1.483,0.741 -1.554,1.625c-1.625,1.479 -3.496,2.754 -5.754,3.708c-0.917,-3.321 -1.767,-6.675 -2.933,-9.958c-2.4,-6.675 -5.684,-13.134 -10.663,-18.292c-11.366,-11.721 -26.337,-10.308 -41.096,-7.342c-2.225,0.459 -1.308,3.884 0.917,3.425c12.925,-2.612 26.304,-4.346 36.721,5.509c8.192,7.766 11.192,18.641 14.054,29.195c2.329,8.475 8.117,19.28 17.229,18.363c-5.862,6.354 -15.041,8.546 -23.233,4.058c-9.604,-5.187 -9.992,-14.791 -12.996,-24.008c-3.354,-10.379 -11.367,-17.475 -22.067,-19.525c-2.225,-0.421 -3.175,2.967 -0.95,3.392c13.555,2.612 18.392,12.145 21.43,24.5c1.729,7.1 4.554,13.208 10.733,17.441c0.742,0.496 1.446,0.921 2.192,1.346c-0,0.704 0.35,1.446 1.233,1.729c16.454,5.188 19.596,21.009 18.008,36.438c-0.741,7.204 -5.366,16.629 -2.471,23.833c-3.108,-0.496 -5.475,-3.004 -7.1,-7.521c0.109,-0.566 -0.033,-1.058 -0.316,-1.45c-1.588,-7.096 -4.413,-12.921 -10.592,-17.725c-7.837,-6.071 -21.183,-8.296 -26.092,-17.404c0,-0.037 -0.037,-0.037 -0.07,-0.071c-0.955,-1.941 -2.155,-3.812 -3.534,-5.579c-6,-7.733 -24.466,-19.737 -19.7,-30.717c0.921,-2.05 -2.116,-3.85 -3.037,-1.766c-4.059,9.287 2.262,15.854 8.404,22.279c4.908,5.121 10.946,10.204 14.371,16.417c0.175,0.283 0.279,0.566 0.425,0.85c0.033,0.141 0.033,0.245 0.104,0.35c0.033,0.145 0.142,0.212 0.212,0.354c1.446,3.141 2.259,6.571 2.117,10.062c-0.175,4.696 -1.833,7.275 -3.779,10.204c2.192,-9.212 -3.742,-17.97 -13.663,-20.337c-10.412,-2.504 -22.841,-3.213 -28.42,-14.05c-3.284,-6.358 -2.225,-13.313 0.95,-19.525c4.237,-5.792 9.287,-10.983 13.562,-14.758c1.092,-0.955 0.421,-2.33 -0.637,-2.792c-0.496,-0.388 -1.167,-0.492 -1.838,-0.033c-3.917,2.683 -7.908,6.566 -11.121,11.05c-6,6.67 -10.875,14.3 -11.971,23.337c-1.091,9.108 1.734,17.971 8.546,23.904c-6.004,-3.671 -13.204,-3.921 -19.35,-7.45c-8.046,-4.587 -13.662,-12.958 -15.5,-21.996c-4.166,-20.195 9.854,-42.65 29.129,-48.975c2.155,-0.704 1.238,-4.091 -0.916,-3.387c-19.492,6.354 -33.579,27.117 -32.379,47.667c0.529,8.683 4.062,17.158 10.029,23.512c7.554,8.054 17.758,7.979 26.446,13.138c-15.713,10.412 -36.617,1.554 -45.23,-14.938c-8.508,-16.383 -8.933,-42.121 5.05,-55.679c1.659,-1.588 -0.85,-4.063 -2.47,-2.471c-16.28,15.746 -15.255,46.783 -2.825,64.471c0.491,0.708 1.058,1.342 1.587,2.012c-11.654,-1.516 -19.35,-8.333 -23.375,-17.266c-0.458,-2.079 -1.129,-4.129 -2.012,-6.142c-0.034,-0.037 -0.071,-0.071 -0.071,-0.104c-2.575,-10.313 -1.059,-22.208 4.275,-31.813c10.521,-18.783 36.471,-33.966 58.079,-33.158c2.296,0.108 2.262,-3.421 -0,-3.529c-25.808,-0.954 -55.929,18.571 -64.825,42.971c-3.954,10.804 -3.388,22.704 1.058,32.483c1.767,8.333 -1.129,16.525 -7.696,22.525c-5.191,4.767 -9.075,8.792 -11.154,15.679c-2.404,7.942 -1.029,16.804 4.942,21.325c-13.875,-1.129 -19.421,-18.854 -18.679,-31.529c0.812,-13.417 7.166,-25.562 16.95,-34.567c1.658,-1.52 -0.85,-4.025 -2.509,-2.47c-12.604,11.579 -19.704,28.491 -17.725,45.687c1.096,9.392 5.755,18.75 13.205,23.408c0.104,0.388 0.316,0.742 0.704,1.025c4.062,2.896 3.921,8.967 4.908,13.875c-0.529,-0.245 -0.987,-0.6 -1.412,-1.2c-0.384,-0.529 -0.917,-0.741 -1.48,-0.741c-4.062,-4.167 -9.995,-5.863 -15.712,-3.25c-8.475,3.812 -10.029,13.1 -8.65,21.329c0.704,4.304 2.221,8.787 4.375,12.954c-0.033,0.146 -0.142,0.283 -0.175,0.463c-1.696,10.237 -12.288,9.92 -17.758,3.883c3.704,-0.533 6.779,-3 8.12,-6.992c2.788,-8.121 -3.708,-15.571 -6.358,-22.633m49.821,80.467c-13.417,-12.746 -39.225,-28.105 -30.508,-50.067c2.262,3.142 4.945,5.967 8.016,8.05c4.309,2.896 9.992,3.567 13.1,0.212c5.334,15.288 14.796,28.742 28.034,38.309c0.179,0.141 0.391,0.245 0.566,0.354c0.034,0.071 0,0.142 0.071,0.212c3.6,6.284 5.613,15.005 1.163,21.538c-2.684,3.987 -7.134,6.108 -11.65,6.037c-0.071,-0.07 -0.175,-0.104 -0.284,-0.175c-0.6,-0.283 -1.129,-0.25 -1.587,0c-0.813,-0.145 -1.625,-0.32 -2.4,-0.6c8.296,-5.829 1.837,-17.795 -4.521,-23.87m-7.871,123.329c1.446,-11.721 2.929,-23.442 4.375,-35.167c1.554,-12.392 2.438,-25.067 6.354,-36.967c0.604,-0.104 1.134,-0.495 1.271,-1.2c1.308,-6.708 6.925,-3.987 11.583,-0.316c6.213,27.575 3.955,55.575 -0.354,83.221c-7.979,-2.721 -15.712,-5.934 -23.229,-9.571m91.904,-406.217c-118.741,0 -215.379,96.604 -215.379,215.379c0,84.421 48.796,157.613 119.696,192.921c1.092,0.567 2.187,1.096 3.317,1.625c7.487,3.567 15.183,6.708 23.125,9.392c1.095,0.387 2.229,0.779 3.358,1.096c16.558,5.366 34,8.754 52.042,9.883c2.12,0.142 4.204,0.25 6.354,0.321c2.475,0.104 4.979,0.141 7.487,0.141c5.754,0 11.475,-0.212 17.125,-0.67c2.504,-0.213 5.013,-0.463 7.521,-0.746c13.238,-1.517 26.092,-4.2 38.483,-8.046c1.2,-0.354 2.4,-0.742 3.6,-1.133c9.534,-3.105 18.788,-6.846 27.684,-11.192c1.166,-0.6 2.296,-1.167 3.458,-1.767c69.7,-35.691 117.508,-108.254 117.508,-191.825c0,-118.775 -96.604,-215.379 -215.379,-215.379" style="fill-rule:nonzero;"/></svg>